GeoramaExtended-ExtraBoldItalic.ufo
<glyph name="exclam" format="2">
  <advance width="320.396"/>
  <unicode hex="0021"/>
  <outline>
    <contour>
      <point x="67.72800000000001" y="259.7" type="line"/>
      <point x="245.344" y="259.7" type="line"/>
      <point x="338.146" y="740.0" type="line"/>
      <point x="131.29000000000002" y="740.0" type="line"/>
    </contour>
    <contour>
      <point x="14.275999999999996" y="66.244" type="curve" smooth="yes"/>
      <point x="14.135999999999996" y="16.35"/>
      <point x="43.379999999999995" y="-8.6"/>
      <point x="115.514" y="-8.6" type="curve" smooth="yes"/>
      <point x="200.68200000000002" y="-8.6"/>
      <point x="248.76799999999997" y="37.721999999999994"/>
      <point x="249.188" y="119.80399999999999" type="curve" smooth="yes"/>
      <point x="249.32799999999997" y="169.73999999999998"/>
      <point x="220.0" y="194.648"/>
      <point x="148.51" y="194.648" type="curve" smooth="yes"/>
      <point x="60.931999999999995" y="194.648"/>
      <point x="14.695999999999998" y="145.832"/>
    </contour>
  </outline>
</glyph>
<glyph name="numbersign" format="2">
  <advance width="852.292"/>
  <unicode hex="0023"/>
  <outline>
    <contour>
      <point x="143.176" y="419.01599999999996" type="line"/>
      <point x="217.52399999999997" y="419.01599999999996" type="line"/>
      <point x="170.664" y="281.82199999999995" type="line"/>
      <point x="98.322" y="281.82199999999995" type="line"/>
      <point x="75.25399999999999" y="140.85399999999998" type="line"/>
      <point x="126.596" y="140.85399999999998" type="line"/>
      <point x="81.264" y="0.0" type="line"/>
      <point x="282.42199999999997" y="0.0" type="line"/>
      <point x="327.614" y="140.85399999999998" type="line"/>
      <point x="410.91600000000005" y="140.85399999999998" type="line"/>
      <point x="365.724" y="0.0" type="line"/>
      <point x="566.582" y="0.0" type="line"/>
      <point x="611.7739999999999" y="140.85399999999998" type="line"/>
      <point x="710.7839999999999" y="140.85399999999998" type="line"/>
      <point x="733.208" y="281.82199999999995" type="line"/>
      <point x="657.144" y="281.82199999999995" type="line"/>
      <point x="702.7019999999999" y="419.01599999999996" type="line"/>
      <point x="778.0619999999999" y="419.01599999999996" type="line"/>
      <point x="801.444" y="559.2959999999999" type="line"/>
      <point x="746.8679999999999" y="559.2959999999999" type="line"/>
      <point x="792.4140000000001" y="700.0" type="line"/>
      <point x="591.298" y="700.0" type="line"/>
      <point x="545.7520000000001" y="559.2959999999999" type="line"/>
      <point x="462.45" y="559.2959999999999" type="line"/>
      <point x="507.9959999999999" y="700.0" type="line"/>
      <point x="307.1379999999999" y="700.0" type="line"/>
      <point x="261.592" y="559.2959999999999" type="line"/>
      <point x="165.95599999999996" y="559.2959999999999" type="line"/>
    </contour>
    <contour>
      <point x="418.38199999999995" y="419.01599999999996" type="line"/>
      <point x="501.68399999999997" y="419.01599999999996" type="line"/>
      <point x="455.08199999999994" y="281.82199999999995" type="line"/>
      <point x="371.78" y="281.82199999999995" type="line"/>
    </contour>
  </outline>
</glyph>
<glyph name="dollar" format="2">
  <advance width="852.292"/>
  <unicode hex="0024"/>
  <outline>
    <contour>
      <point x="788.256" y="669.4359999999999" type="line"/>
      <point x="737.65" y="683.8720000000001"/>
      <point x="670.4559999999999" y="702.108"/>
      <point x="582.3199999999998" y="707.6460000000001" type="curve"/>
      <point x="598.0199999999999" y="804.4839999999999" type="line"/>
      <point x="446.5799999999999" y="804.4839999999999" type="line"/>
      <point x="430.16200000000003" y="703.7660000000001" type="line"/>
      <point x="266.902" y="689.442"/>
      <point x="127.54399999999998" y="624.3919999999999"/>
      <point x="127.54399999999998" y="464.29200000000003" type="curve" smooth="yes"/>
      <point x="127.54399999999998" y="226.33599999999998"/>
      <point x="535.6" y="278.8040000000001"/>
      <point x="535.6" y="202.30599999999998" type="curve" smooth="yes"/>
      <point x="535.6" y="164.428"/>
      <point x="485.892" y="150.394"/>
      <point x="412.30199999999996" y="150.394" type="curve" smooth="yes"/>
      <point x="305.958" y="150.394"/>
      <point x="189.638" y="174.506"/>
      <point x="104.368" y="206.42000000000004" type="curve"/>
      <point x="42.21199999999999" y="43.68999999999999" type="line"/>
      <point x="113.87799999999999" y="18.572"/>
      <point x="212.07599999999996" y="-3.193999999999999"/>
      <point x="315.122" y="-7.85" type="curve"/>
      <point x="300.122" y="-105.0" type="line"/>
      <point x="450.96000000000004" y="-105.0" type="line"/>
      <point x="465.96000000000004" y="-4.024" type="line"/>
      <point x="619.7599999999999" y="17.093999999999998"/>
      <point x="766.096" y="71.756"/>
      <point x="766.096" y="236.29599999999996" type="curve" smooth="yes"/>
      <point x="766.096" y="470.34599999999995"/>
      <point x="357.71599999999995" y="413.722"/>
      <point x="357.71599999999995" y="493.836" type="curve" smooth="yes"/>
      <point x="357.71599999999995" y="531.864"/>
      <point x="408.63199999999995" y="544.4979999999998"/>
      <point x="472.65" y="544.4979999999998" type="curve" smooth="yes"/>
      <point x="561.9000000000001" y="544.4979999999998"/>
      <point x="650.006" y="534.4359999999999"/>
      <point x="727.852" y="506.124" type="curve"/>
    </contour>
  </outline>
</glyph>
<glyph name="ampersand" format="2">
  <advance width="910.6800000000001"/>
  <unicode hex="0026"/>
  <outline>
    <contour>
      <point x="378.87399999999997" y="-10.0" type="curve" smooth="yes"/>
      <point x="619.748" y="-10.0"/>
      <point x="767.7059999999999" y="108.36"/>
      <point x="807.4499999999999" y="310.946" type="curve"/>
      <point x="648.33" y="308.016" type="line"/>
      <point x="644.894" y="203.704"/>
      <point x="537.318" y="139.38199999999998"/>
      <point x="405.29999999999995" y="139.38199999999998" type="curve" smooth="yes"/>
      <point x="300.83" y="139.38199999999998"/>
      <point x="241.62399999999997" y="173.63599999999997"/>
      <point x="241.62399999999997" y="225.584" type="curve" smooth="yes"/>
      <point x="241.62399999999997" y="284.93399999999997"/>
      <point x="293.36199999999997" y="319.312"/>
      <point x="366.784" y="319.312" type="curve" smooth="yes"/>
      <point x="429.196" y="319.312" type="line"/>
      <point x="456.0679999999999" y="424.04599999999994" type="line"/>
      <point x="434.702" y="426.982" type="line" smooth="yes"/>
      <point x="369.99" y="434.914"/>
      <point x="336.168" y="458.034"/>
      <point x="336.168" y="497.512" type="curve" smooth="yes"/>
      <point x="336.168" y="536.01"/>
      <point x="375.054" y="565.616"/>
      <point x="432.38" y="565.616" type="curve" smooth="yes"/>
      <point x="474.074" y="565.616"/>
      <point x="513.5379999999999" y="552.766"/>
      <point x="554.4599999999999" y="525.466" type="curve"/>
      <point x="663.574" y="634.418" type="line"/>
      <point x="592.236" y="685.154"/>
      <point x="510.39" y="710.0"/>
      <point x="408.65999999999997" y="710.0" type="curve" smooth="yes"/>
      <point x="232.942" y="710.0"/>
      <point x="119.872" y="630.8979999999999"/>
      <point x="119.872" y="530.2919999999999" type="curve" smooth="yes"/>
      <point x="119.872" y="472.79799999999994"/>
      <point x="163.93399999999997" y="423.228"/>
      <point x="232.706" y="400.54400000000004" type="curve"/>
      <point x="106.22599999999998" y="385.99999999999994"/>
      <point x="20.683999999999997" y="320.174"/>
      <point x="20.683999999999997" y="206.79399999999998" type="curve" smooth="yes"/>
      <point x="20.683999999999997" y="73.39200000000001"/>
      <point x="140.138" y="-10.0"/>
    </contour>
    <contour>
      <point x="560.1840000000001" y="222.43600000000004" type="line"/>
      <point x="568.514" y="258.538"/>
      <point x="591.53" y="276.232"/>
      <point x="622.15" y="276.232" type="curve" smooth="yes"/>
      <point x="681.4820000000001" y="276.232"/>
      <point x="746.264" y="263.156"/>
      <point x="793.786" y="263.156" type="curve" smooth="yes"/>
      <point x="880.034" y="263.156"/>
      <point x="938.1759999999999" y="340.762"/>
      <point x="932.62" y="446.108" type="curve"/>
      <point x="810.03" y="446.48600000000005" type="line"/>
      <point x="808.716" y="397.61600000000004"/>
      <point x="783.076" y="382.50199999999995"/>
      <point x="733.976" y="382.50199999999995" type="curve" smooth="yes"/>
      <point x="688.4599999999999" y="382.50199999999995"/>
      <point x="650.4759999999999" y="397.762"/>
      <point x="604.092" y="397.762" type="curve" smooth="yes"/>
      <point x="511.08799999999997" y="397.762"/>
      <point x="456.246" y="337.702"/>
      <point x="447.74800000000005" y="253.214" type="curve"/>
    </contour>
  </outline>
</glyph>
<glyph name="quotesingle" format="2">
  <advance width="245.226"/>
  <unicode hex="0027"/>
  <outline>
    <contour>
      <point x="62.584" y="427.0" type="line"/>
      <point x="228.14799999999997" y="427.0" type="line"/>
      <point x="280.308" y="700.0" type="line"/>
      <point x="98.918" y="700.0" type="line"/>
    </contour>
  </outline>
</glyph>
<glyph name="parenleft" format="2">
  <advance width="414.546"/>
  <unicode hex="0028"/>
  <outline>
    <contour>
      <point x="56.07599999999999" y="119.66" type="curve" smooth="yes"/>
      <point x="56.07599999999999" y="-56.69200000000001"/>
      <point x="126.60599999999998" y="-197.882"/>
      <point x="305.36799999999994" y="-220.0" type="curve"/>
      <point x="328.826" y="-80.47999999999999" type="line"/>
      <point x="253.932" y="-53.738"/>
      <point x="223.12599999999998" y="9.873999999999995"/>
      <point x="223.12599999999998" y="109.20400000000001" type="curve" smooth="yes"/>
      <point x="223.12599999999998" y="278.858"/>
      <point x="286.05" y="578.442"/>
      <point x="436.268" y="605.496" type="curve"/>
      <point x="458.37" y="749.9580000000001" type="line"/>
      <point x="176.348" y="742.468"/>
      <point x="56.07599999999999" y="396.63800000000003"/>
    </contour>
  </outline>
</glyph>
<glyph name="parenright" format="2">
  <advance width="414.546"/>
  <unicode hex="0029"/>
  <outline>
    <contour>
      <point x="354.90999999999997" y="410.144" type="curve" smooth="yes"/>
      <point x="354.90999999999997" y="590.0939999999999"/>
      <point x="284.226" y="727.882"/>
      <point x="105.366" y="750.0" type="curve"/>
      <point x="81.99199999999999" y="607.148" type="line"/>
      <point x="157.95" y="579.9580000000001"/>
      <point x="187.86" y="515.9540000000001"/>
      <point x="187.86" y="418.13599999999997" type="curve" smooth="yes"/>
      <point x="187.86" y="250.428"/>
      <point x="125.58000000000001" y="-47.784"/>
      <point x="-25.52" y="-75.384" type="curve"/>
      <point x="-47.58" y="-220.0" type="line"/>
      <point x="230.732" y="-208.128"/>
      <point x="354.90999999999997" y="134.46800000000005"/>
    </contour>
  </outline>
</glyph>
<glyph name="asterisk" format="2">
  <advance width="430.012"/>
  <unicode hex="002A"/>
  <outline>
    <contour>
      <point x="146.16799999999998" y="327.34000000000003" type="line"/>
      <point x="236.924" y="420.312" type="line"/>
      <point x="297.084" y="327.38200000000006" type="line"/>
      <point x="377.33399999999995" y="380.186" type="line"/>
      <point x="337.784" y="489.79800000000006" type="line"/>
      <point x="448.82599999999996" y="541.608" type="line"/>
      <point x="436.49600000000004" y="628.6320000000001" type="line"/>
      <point x="322.95000000000005" y="604.7919999999999" type="line"/>
      <point x="331.64" y="728.3380000000001" type="line"/>
      <point x="242.774" y="728.3380000000001" type="line"/>
      <point x="211.55200000000002" y="604.8340000000001" type="line"/>
      <point x="105.852" y="628.674" type="line"/>
      <point x="65.884" y="541.692" type="line"/>
      <point x="159.058" y="489.88200000000006" type="line"/>
      <point x="84.76200000000001" y="380.382" type="line"/>
    </contour>
  </outline>
</glyph>
<glyph name="plus" format="2">
  <advance width="610.986"/>
  <unicode hex="002B"/>
  <outline>
    <contour>
      <point x="188.26600000000002" y="104.508" type="line"/>
      <point x="367.042" y="104.508" type="line"/>
      <point x="387.21599999999995" y="233.948" type="line"/>
      <point x="548.704" y="233.948" type="line"/>
      <point x="576.0419999999999" y="401.2" type="line"/>
      <point x="414.554" y="401.2" type="line"/>
      <point x="435.428" y="530.08" type="line"/>
      <point x="257.856" y="530.08" type="line"/>
      <point x="235.778" y="401.2" type="line"/>
      <point x="76.054" y="401.2" type="line"/>
      <point x="48.715999999999994" y="233.948" type="line"/>
      <point x="209.64399999999998" y="233.948" type="line"/>
    </contour>
  </outline>
</glyph>
<glyph name="comma" format="2">
  <advance width="297.212"/>
  <unicode hex="002C"/>
  <outline>
    <contour>
      <point x="27.897999999999996" y="99.63199999999999" type="line"/>
      <point x="27.472" y="75.05"/>
      <point x="24.228" y="51.016"/>
      <point x="21.046" y="32.012" type="curve" smooth="yes"/>
      <point x="10.296" y="-34.886"/>
      <point x="-21.022000000000002" y="-111.22200000000001"/>
      <point x="-72.568" y="-168.76199999999997" type="curve"/>
      <point x="84.61999999999999" y="-194.19199999999998" type="line"/>
      <point x="162.44" y="-122.026"/>
      <point x="222.39" y="-31.902"/>
      <point x="222.39" y="67.912" type="curve" smooth="yes"/>
      <point x="222.39" y="79.75800000000001"/>
      <point x="221.236" y="91.206"/>
      <point x="218.856" y="101.668" type="curve"/>
    </contour>
  </outline>
</glyph>
<glyph name="hyphen" format="2">
  <advance width="402.84799999999996"/>
  <unicode hex="002D"/>
  <outline>
    <contour>
      <point x="39.249999999999986" y="224.816" type="line"/>
      <point x="346.462" y="224.816" type="line"/>
      <point x="374.87399999999997" y="397.58399999999995" type="line"/>
      <point x="67.662" y="397.58399999999995" type="line"/>
    </contour>
  </outline>
</glyph>
<glyph name="period" format="2">
  <advance width="305.038"/>
  <unicode hex="002E"/>
  <outline>
    <contour>
      <point x="5.888" y="67.018" type="curve" smooth="yes"/>
      <point x="5.747999999999999" y="16.866"/>
      <point x="34.733999999999995" y="-7.826"/>
      <point x="107.12599999999999" y="-7.826" type="curve" smooth="yes"/>
      <point x="192.294" y="-7.826"/>
      <point x="240.122" y="38.495999999999995"/>
      <point x="240.54199999999997" y="121.094" type="curve" smooth="yes"/>
      <point x="240.68199999999996" y="170.772"/>
      <point x="211.61200000000002" y="195.422"/>
      <point x="140.12199999999999" y="195.422" type="curve" smooth="yes"/>
      <point x="52.286" y="195.422"/>
      <point x="6.308000000000002" y="146.606"/>
    </contour>
  </outline>
</glyph>
<glyph name="slash" format="2">
  <advance width="510.87"/>
  <unicode hex="002F"/>
  <outline>
    <contour>
      <point x="-72.11800000000001" y="-210.0" type="line"/>
      <point x="97.03200000000001" y="-210.0" type="line"/>
      <point x="579.9879999999999" y="740.0" type="line"/>
      <point x="409.72" y="740.0" type="line"/>
    </contour>
  </outline>
</glyph>
<glyph name="zero" format="2">
  <advance width="852.46"/>
  <unicode hex="0030"/>
  <outline>
    <contour>
      <point x="416.14" y="-10.28" type="curve" smooth="yes"/>
      <point x="656.2" y="-10.28"/>
      <point x="815.1199999999999" y="154.72000000000003"/>
      <point x="815.1199999999999" y="407.0999999999999" type="curve" smooth="yes"/>
      <point x="815.1199999999999" y="608.6"/>
      <point x="689.1199999999999" y="710.14"/>
      <point x="459.45999999999987" y="710.14" type="curve" smooth="yes"/>
      <point x="217.64000000000001" y="710.14"/>
      <point x="60.48" y="545.94"/>
      <point x="60.48" y="294.04" type="curve" smooth="yes"/>
      <point x="60.48" y="93.03999999999999"/>
      <point x="186.76" y="-10.28"/>
    </contour>
    <contour>
      <point x="418.75999999999993" y="148.68" type="curve" smooth="yes"/>
      <point x="342.03999999999996" y="148.68"/>
      <point x="289.46000000000004" y="186.32"/>
      <point x="289.46" y="281.91999999999996" type="curve" smooth="yes"/>
      <point x="289.46" y="402.1"/>
      <point x="343.76000000000005" y="552.4"/>
      <point x="456.97999999999996" y="552.4" type="curve" smooth="yes"/>
      <point x="533.34" y="552.4"/>
      <point x="586.1399999999999" y="514.8199999999998"/>
      <point x="586.1399999999999" y="419.58000000000004" type="curve" smooth="yes"/>
      <point x="586.14" y="299.46"/>
      <point x="531.92" y="148.68"/>
    </contour>
  </outline>
</glyph>
<glyph name="one" format="2">
  <advance width="852.292"/>
  <unicode hex="0031"/>
  <outline>
    <contour>
      <point x="116.36399999999999" y="0.0" type="line"/>
      <point x="714.4179999999999" y="0.0" type="line"/>
      <point x="741.4119999999999" y="164.38199999999998" type="line"/>
      <point x="561.646" y="164.38199999999998" type="line"/>
      <point x="648.772" y="700.98" type="line"/>
      <point x="540.506" y="700.98" type="line"/>
      <point x="173.292" y="566.644" type="line"/>
      <point x="198.18400000000003" y="394.356" type="line"/>
      <point x="387.90999999999997" y="465.978" type="line"/>
      <point x="340.90199999999993" y="164.38199999999998" type="line"/>
      <point x="143.09999999999997" y="164.38199999999998" type="line"/>
    </contour>
  </outline>
</glyph>
<glyph name="two" format="2">
  <advance width="852.46"/>
  <unicode hex="0032"/>
  <outline>
    <contour>
      <point x="70.32" y="125.49999999999999" type="curve"/>
      <point x="52.26" y="0.0" type="line"/>
      <point x="723.08" y="0.0" type="line"/>
      <point x="750.8799999999999" y="162.04000000000002" type="line"/>
      <point x="440.08000000000004" y="162.04000000000002" type="line"/>
      <point x="606.5" y="265.88"/>
      <point x="730.3800000000001" y="364.71999999999997"/>
      <point x="730.3800000000001" y="514.5" type="curve" smooth="yes"/>
      <point x="730.3800000000001" y="641.98"/>
      <point x="613.5" y="710.0"/>
      <point x="463.47999999999996" y="710.0" type="curve" smooth="yes"/>
      <point x="355.64" y="710.0"/>
      <point x="225.9" y="677.5399999999998"/>
      <point x="140.32" y="631.8000000000001" type="curve"/>
      <point x="172.66000000000003" y="461.6000000000001" type="line"/>
      <point x="249.34" y="493.30000000000007"/>
      <point x="323.78" y="517.44"/>
      <point x="392.99999999999994" y="517.44" type="curve" smooth="yes"/>
      <point x="461.25999999999993" y="517.44"/>
      <point x="492.03999999999996" y="488.73999999999995"/>
      <point x="492.03999999999996" y="446.8800000000001" type="curve" smooth="yes"/>
      <point x="492.03999999999996" y="339.86"/>
      <point x="311.73999999999995" y="224.79999999999998"/>
    </contour>
  </outline>
</glyph>
<glyph name="three" format="2">
  <advance width="852.4599999999999"/>
  <unicode hex="0033"/>
  <outline>
    <contour>
      <point x="31.620000000000005" y="45.559999999999995" type="line"/>
      <point x="120.56000000000002" y="5.960000000000001"/>
      <point x="227.92" y="-9.64"/>
      <point x="346.28" y="-9.64" type="curve" smooth="yes"/>
      <point x="513.3000000000001" y="-9.64"/>
      <point x="752.2799999999999" y="39.940000000000005"/>
      <point x="752.2799999999999" y="234.55999999999997" type="curve" smooth="yes"/>
      <point x="752.2799999999999" y="309.5"/>
      <point x="712.2199999999999" y="354.0"/>
      <point x="636.9599999999999" y="375.1" type="curve"/>
      <point x="719.52" y="401.28000000000003"/>
      <point x="781.0400000000001" y="460.97999999999996"/>
      <point x="781.0400000000001" y="550.36" type="curve" smooth="yes"/>
      <point x="781.0400000000001" y="650.0000000000001"/>
      <point x="683.9599999999999" y="710.0"/>
      <point x="467.6" y="710.0" type="curve" smooth="yes"/>
      <point x="339.17999999999995" y="710.0"/>
      <point x="213.18" y="690.84"/>
      <point x="147.48" y="662.3799999999999" type="curve"/>
      <point x="159.68000000000004" y="509.88000000000005" type="line"/>
      <point x="236.22000000000003" y="530.26"/>
      <point x="324.34" y="542.52"/>
      <point x="402.06" y="542.52" type="curve" smooth="yes"/>
      <point x="496.5" y="542.52"/>
      <point x="557.66" y="525.5600000000001"/>
      <point x="557.66" y="487.79999999999995" type="curve" smooth="yes"/>
      <point x="557.66" y="447.28"/>
      <point x="516.5200000000001" y="426.44"/>
      <point x="401.21999999999997" y="426.44" type="curve" smooth="yes"/>
      <point x="251.77999999999997" y="426.44" type="line"/>
      <point x="227.50000000000006" y="280.68" type="line"/>
      <point x="413.78" y="280.68" type="line" smooth="yes"/>
      <point x="504.40000000000003" y="280.68"/>
      <point x="534.0799999999999" y="261.28"/>
      <point x="534.0799999999999" y="227.42" type="curve" smooth="yes"/>
      <point x="534.0799999999999" y="177.88000000000002"/>
      <point x="477.78" y="155.68"/>
      <point x="360.0199999999999" y="155.68" type="curve" smooth="yes"/>
      <point x="262.16" y="155.68"/>
      <point x="162.08" y="172.15999999999997"/>
      <point x="99.3" y="195.77999999999997" type="curve"/>
    </contour>
  </outline>
</glyph>
<glyph name="four" format="2">
  <advance width="852.4599999999999"/>
  <unicode hex="0034"/>
  <outline>
    <contour>
      <point x="19.479999999999997" y="102.10000000000001" type="line"/>
      <point x="427.15999999999997" y="102.10000000000001" type="line"/>
      <point x="411.0" y="-0.7000000000000005" type="line"/>
      <point x="635.0399999999998" y="-0.7000000000000005" type="line"/>
      <point x="651.2" y="102.10000000000001" type="line"/>
      <point x="767.0799999999999" y="102.10000000000001" type="line"/>
      <point x="790.72" y="250.73999999999998" type="line"/>
      <point x="675.34" y="250.73999999999998" type="line"/>
      <point x="748.9799999999998" y="699.4400000000002" type="line"/>
      <point x="593.36" y="700.56" type="line"/>
      <point x="38.75999999999999" y="227.1" type="line"/>
    </contour>
    <contour>
      <point x="258.67999999999995" y="250.73999999999998" type="line"/>
      <point x="486.9800000000001" y="448.9800000000001" type="line"/>
      <point x="453.73999999999995" y="250.73999999999998" type="line"/>
    </contour>
  </outline>
</glyph>
<glyph name="five" format="2">
  <advance width="852.46"/>
  <unicode hex="0035"/>
  <outline>
    <contour>
      <point x="40.27999999999999" y="42.900000000000006" type="line"/>
      <point x="128.86" y="4.159999999999999"/>
      <point x="230.69999999999996" y="-10.0"/>
      <point x="351.52" y="-10.0" type="curve" smooth="yes"/>
      <point x="642.5" y="-10.0"/>
      <point x="757.4199999999998" y="102.12"/>
      <point x="757.4199999999998" y="260.62000000000006" type="curve" smooth="yes"/>
      <point x="757.4199999999998" y="382.7"/>
      <point x="678.8999999999999" y="434.23999999999995"/>
      <point x="495.3999999999999" y="434.96000000000004" type="curve" smooth="yes"/>
      <point x="340.6" y="435.32" type="line"/>
      <point x="363.03999999999996" y="529.0000000000001" type="line"/>
      <point x="754.4199999999998" y="529.0000000000001" type="line"/>
      <point x="782.8599999999999" y="700.0" type="line"/>
      <point x="248.38000000000002" y="700.0" type="line"/>
      <point x="128.14" y="295.17999999999995" type="line"/>
      <point x="135.63999999999996" y="286.40000000000003" type="line"/>
      <point x="409.55999999999995" y="286.40000000000003" type="line" smooth="yes"/>
      <point x="517.1999999999999" y="286.40000000000003"/>
      <point x="539.96" y="266.44"/>
      <point x="539.96" y="233.04" type="curve" smooth="yes"/>
      <point x="539.96" y="189.6"/>
      <point x="489.18" y="156.2"/>
      <point x="363.26000000000005" y="156.2" type="curve" smooth="yes"/>
      <point x="262.14" y="156.2"/>
      <point x="163.72" y="175.94000000000003"/>
      <point x="103.52" y="197.5" type="curve"/>
    </contour>
  </outline>
</glyph>
<glyph name="six" format="2">
  <advance width="852.4599999999999"/>
  <unicode hex="0036"/>
  <note>
14
</note>
  <outline>
    <contour>
      <point x="405.88000000000005" y="-10.0" type="curve" smooth="yes"/>
      <point x="606.3999999999999" y="-10.0"/>
      <point x="787.02" y="56.620000000000005"/>
      <point x="787.02" y="258.03999999999996" type="curve" smooth="yes"/>
      <point x="787.02" y="377.2000000000001"/>
      <point x="695.4200000000001" y="449.1"/>
      <point x="521.5" y="449.1" type="curve" smooth="yes"/>
      <point x="434.11999999999995" y="449.1"/>
      <point x="339.19999999999993" y="433.23999999999995"/>
      <point x="268.7" y="391.4" type="curve"/>
      <point x="258.5199999999999" y="261.90000000000003" type="line"/>
      <point x="304.5999999999999" y="286.0199999999999"/>
      <point x="374.5" y="303.29999999999995"/>
      <point x="440.87999999999994" y="303.29999999999995" type="curve" smooth="yes"/>
      <point x="541.5600000000001" y="303.29999999999995"/>
      <point x="572.0999999999999" y="279.8599999999999"/>
      <point x="572.0999999999999" y="238.17999999999998" type="curve" smooth="yes"/>
      <point x="572.0999999999999" y="184.60000000000002"/>
      <point x="522.1" y="151.54000000000002"/>
      <point x="433.81999999999994" y="151.54000000000002" type="curve" smooth="yes"/>
      <point x="333.8" y="151.54000000000002"/>
      <point x="272.84" y="188.39999999999998"/>
      <point x="272.84" y="275.66" type="curve" smooth="yes"/>
      <point x="272.84" y="366.00000000000006"/>
      <point x="304.9199999999999" y="439.41999999999996"/>
      <point x="366.17999999999995" y="486.12" type="curve" smooth="yes"/>
      <point x="414.68" y="522.4799999999999"/>
      <point x="483.26000000000005" y="543.52"/>
      <point x="563.3" y="543.52" type="curve" smooth="yes"/>
      <point x="641.44" y="543.52"/>
      <point x="699.0600000000001" y="533.2399999999999"/>
      <point x="762.6600000000001" y="515.2" type="curve"/>
      <point x="823.76" y="669.5" type="line"/>
      <point x="769.6199999999999" y="690.4799999999999"/>
      <point x="672.22" y="710.0"/>
      <point x="557.5600000000001" y="710.0" type="curve" smooth="yes"/>
      <point x="263.69999999999993" y="710.0"/>
      <point x="63.579999999999984" y="541.8600000000001"/>
      <point x="63.579999999999984" y="269.5" type="curve" smooth="yes"/>
      <point x="63.579999999999984" y="77.72000000000001"/>
      <point x="193.21999999999997" y="-10.0"/>
    </contour>
  </outline>
</glyph>
<glyph name="seven" format="2">
  <advance width="852.292"/>
  <unicode hex="0037"/>
  <note>
9
</note>
  <outline>
    <contour>
      <point x="177.786" y="0.0" type="curve"/>
      <point x="406.67400000000004" y="0.0" type="line"/>
      <point x="430.102" y="113.26599999999999"/>
      <point x="486.924" y="203.79000000000002"/>
      <point x="621.0219999999999" y="358.582" type="curve" smooth="yes"/>
      <point x="796.5379999999999" y="559.7499999999999" type="line"/>
      <point x="819.072" y="700.0" type="line"/>
      <point x="159.998" y="700.0" type="line"/>
      <point x="132.24200000000002" y="526.59" type="line"/>
      <point x="534.434" y="526.59" type="line"/>
      <point x="379.88000000000005" y="359.20599999999996" type="line" smooth="yes"/>
      <point x="256.2559999999999" y="224.79399999999998"/>
      <point x="199.17000000000002" y="128.49"/>
    </contour>
  </outline>
</glyph>
<glyph name="eight" format="2">
  <advance width="874.78"/>
  <unicode hex="0038"/>
  <outline>
    <contour>
      <point x="411.85999999999996" y="-10.0" type="curve" smooth="yes"/>
      <point x="630.2999999999998" y="-10.0"/>
      <point x="808.9599999999999" y="33.059999999999995"/>
      <point x="808.9599999999999" y="222.78" type="curve" smooth="yes"/>
      <point x="808.9599999999999" y="474.7"/>
      <point x="320.53999999999996" y="385.2"/>
      <point x="320.53999999999996" y="508.72" type="curve" smooth="yes"/>
      <point x="320.53999999999996" y="543.1800000000001"/>
      <point x="374.02" y="560.8"/>
      <point x="477.7999999999999" y="560.8" type="curve" smooth="yes"/>
      <point x="578.8800000000001" y="560.8"/>
      <point x="629.66" y="535.88"/>
      <point x="629.66" y="495.22" type="curve" smooth="yes"/>
      <point x="629.66" y="452.32"/>
      <point x="592.9799999999998" y="433.3"/>
      <point x="535.82" y="409.74" type="curve"/>
      <point x="663.0" y="356.36" type="line"/>
      <point x="741.5600000000001" y="389.48"/>
      <point x="812.26" y="442.54"/>
      <point x="812.26" y="532.14" type="curve" smooth="yes"/>
      <point x="812.26" y="634.8800000000001"/>
      <point x="714.5200000000002" y="710.0"/>
      <point x="489.0399999999999" y="710.0" type="curve" smooth="yes"/>
      <point x="285.17999999999995" y="710.0"/>
      <point x="129.83999999999997" y="650.96"/>
      <point x="129.83999999999997" y="491.34000000000015" type="curve" smooth="yes"/>
      <point x="129.83999999999997" y="227.56"/>
      <point x="598.42" y="329.94"/>
      <point x="598.42" y="197.44" type="curve" smooth="yes"/>
      <point x="598.42" y="139.01999999999998"/>
      <point x="525.5999999999999" y="129.96"/>
      <point x="425.37999999999994" y="129.96" type="curve" smooth="yes"/>
      <point x="300.44" y="129.96"/>
      <point x="242.89999999999998" y="163.18"/>
      <point x="242.89999999999998" y="210.00000000000003" type="curve" smooth="yes"/>
      <point x="242.89999999999998" y="260.52"/>
      <point x="291.5" y="284.5799999999999"/>
      <point x="359.58000000000004" y="298.28000000000003" type="curve"/>
      <point x="232.42000000000004" y="367.64" type="line"/>
      <point x="124.93999999999997" y="352.71999999999997"/>
      <point x="40.739999999999995" y="281.38000000000005"/>
      <point x="40.739999999999995" y="191.32" type="curve" smooth="yes"/>
      <point x="40.739999999999995" y="70.99999999999999"/>
      <point x="153.05999999999997" y="-10.0"/>
    </contour>
  </outline>
</glyph>
<glyph name="nine" format="2">
  <advance width="852.4599999999999"/>
  <unicode hex="0039"/>
  <outline>
    <contour>
      <point x="467.0799999999999" y="710.0" type="curve" smooth="yes"/>
      <point x="224.06" y="710.0"/>
      <point x="89.54" y="618.4599999999999"/>
      <point x="89.54" y="446.38000000000005" type="curve" smooth="yes"/>
      <point x="89.54" y="320.7399999999999"/>
      <point x="184.73999999999998" y="250.9"/>
      <point x="358.66" y="250.9" type="curve" smooth="yes"/>
      <point x="446.03999999999996" y="250.9"/>
      <point x="537.36" y="266.76"/>
      <point x="607.86" y="308.6" type="curve"/>
      <point x="618.0399999999998" y="438.09999999999997" type="line"/>
      <point x="571.9600000000002" y="413.98"/>
      <point x="502.0599999999999" y="396.7000000000001"/>
      <point x="435.67999999999995" y="396.7000000000001" type="curve" smooth="yes"/>
      <point x="335.00000000000006" y="396.7000000000001"/>
      <point x="304.46" y="420.1400000000001"/>
      <point x="304.46" y="461.82000000000005" type="curve" smooth="yes"/>
      <point x="304.46" y="515.4"/>
      <point x="354.46" y="548.46"/>
      <point x="442.73999999999995" y="548.46" type="curve" smooth="yes"/>
      <point x="542.7599999999999" y="548.46"/>
      <point x="603.7200000000001" y="511.6"/>
      <point x="603.7200000000001" y="424.34" type="curve" smooth="yes"/>
      <point x="603.7200000000001" y="334.00000000000006"/>
      <point x="573.5000000000001" y="259.44000000000005"/>
      <point x="512.2400000000001" y="212.74" type="curve" smooth="yes"/>
      <point x="464.10000000000014" y="176.02"/>
      <point x="398.4" y="155.34"/>
      <point x="314.76" y="155.34" type="curve" smooth="yes"/>
      <point x="236.61999999999995" y="155.34"/>
      <point x="177.5" y="166.76"/>
      <point x="113.9" y="184.8" type="curve"/>
      <point x="52.800000000000004" y="30.499999999999996" type="line"/>
      <point x="106.93999999999997" y="9.52"/>
      <point x="204.33999999999997" y="-10.0"/>
      <point x="318.9999999999999" y="-10.0" type="curve" smooth="yes"/>
      <point x="612.86" y="-10.0"/>
      <point x="812.9799999999998" y="158.14000000000001"/>
      <point x="812.9799999999998" y="426.9" type="curve" smooth="yes"/>
      <point x="812.9799999999998" y="611.0799999999999"/>
      <point x="690.28" y="710.0"/>
    </contour>
  </outline>
</glyph>
<glyph name="less" format="2">
  <advance width="609.836"/>
  <unicode hex="003C"/>
  <outline>
    <contour>
      <point x="523.398" y="51.00600000000001" type="line"/>
      <point x="549.962" y="218.85" type="line"/>
      <point x="235.27" y="312.392" type="line"/>
      <point x="581.1479999999999" y="405.632" type="line"/>
      <point x="607.712" y="574.604" type="line"/>
      <point x="69.688" y="404.174" type="line"/>
      <point x="41.705999999999996" y="228.002" type="line"/>
    </contour>
  </outline>
</glyph>
<glyph name="equal" format="2">
  <advance width="600.794"/>
  <unicode hex="003D"/>
  <outline>
    <contour>
      <point x="545.25" y="277.668" type="line"/>
      <point x="57.13" y="277.668" type="line"/>
      <point x="30.308" y="110.37400000000001" type="line"/>
      <point x="518.428" y="110.37400000000001" type="line"/>
    </contour>
    <contour>
      <point x="582.41" y="515.69" type="line"/>
      <point x="93.946" y="515.69" type="line"/>
      <point x="67.468" y="348.396" type="line"/>
      <point x="555.588" y="348.396" type="line"/>
    </contour>
  </outline>
</glyph>
<glyph name="greater" format="2">
  <advance width="609.836"/>
  <unicode hex="003E"/>
  <outline>
    <contour>
      <point x="552.6600000000001" y="227.876" type="line"/>
      <point x="579.438" y="395.01800000000003" type="line"/>
      <point x="99.166" y="568.5" type="line"/>
      <point x="71.39800000000001" y="405.72999999999996" type="line"/>
      <point x="386.99199999999996" y="312.434" type="line"/>
      <point x="41.458" y="218.99" type="line"/>
      <point x="14.25" y="50.92200000000001" type="line"/>
    </contour>
  </outline>
</glyph>
<glyph name="question" format="2">
  <advance width="578.65"/>
  <unicode hex="003F"/>
  <outline>
    <contour>
      <point x="173.46999999999997" y="259.54599999999994" type="line"/>
      <point x="351.204" y="259.54599999999994" type="line"/>
      <point x="361.90199999999993" y="314.47200000000004" type="line"/>
      <point x="499.15599999999995" y="356.78400000000005"/>
      <point x="604.626" y="426.05400000000003"/>
      <point x="604.626" y="566.716" type="curve" smooth="yes"/>
      <point x="604.626" y="695.85"/>
      <point x="492.65200000000004" y="750.0"/>
      <point x="361.54999999999995" y="750.0" type="curve" smooth="yes"/>
      <point x="264.978" y="750.0"/>
      <point x="150.14000000000001" y="723.314"/>
      <point x="74.568" y="677.29" type="curve"/>
      <point x="102.12" y="516.916" type="line"/>
      <point x="171.81799999999998" y="550.4839999999999"/>
      <point x="234.948" y="569.226"/>
      <point x="299.914" y="569.226" type="curve" smooth="yes"/>
      <point x="347.642" y="569.226"/>
      <point x="378.27" y="557.532"/>
      <point x="378.27" y="522.9720000000001" type="curve" smooth="yes"/>
      <point x="378.27" y="478.128"/>
      <point x="345.658" y="450.33599999999996"/>
      <point x="193.97199999999998" y="416.14599999999996" type="curve"/>
    </contour>
    <contour>
      <point x="119.24199999999999" y="65.574" type="curve" smooth="yes"/>
      <point x="119.34" y="15.952"/>
      <point x="148.18599999999998" y="-8.6"/>
      <point x="219.964" y="-8.6" type="curve" smooth="yes"/>
      <point x="305.07599999999996" y="-8.6"/>
      <point x="354.072" y="36.69"/>
      <point x="353.778" y="119.60199999999999" type="curve" smooth="yes"/>
      <point x="353.67999999999995" y="169.73999999999998"/>
      <point x="324.86799999999994" y="194.50799999999998"/>
      <point x="253.87399999999997" y="194.50799999999998" type="curve" smooth="yes"/>
      <point x="165.718" y="194.50799999999998"/>
      <point x="118.948" y="145.972"/>
    </contour>
  </outline>
</glyph>
<glyph name="at" format="2">
  <advance width="998.18"/>
  <unicode hex="0040"/>
  <outline>
    <contour>
      <point x="426.30000000000007" y="-121.5" type="curve" smooth="yes"/>
      <point x="497.26" y="-121.5"/>
      <point x="581.9799999999999" y="-107.24000000000002"/>
      <point x="654.8600000000001" y="-82.38" type="curve"/>
      <point x="642.28" y="-5.440000000000003" type="line"/>
      <point x="567.66" y="-26.159999999999997"/>
      <point x="494.65999999999985" y="-36.559999999999995"/>
      <point x="432.65999999999997" y="-36.559999999999995" type="curve" smooth="yes"/>
      <point x="249.48000000000002" y="-36.559999999999995"/>
      <point x="129.72" y="55.49999999999999"/>
      <point x="129.72" y="236.33999999999997" type="curve" smooth="yes"/>
      <point x="129.72" y="439.38"/>
      <point x="299.76" y="634.84"/>
      <point x="558.9000000000001" y="634.84" type="curve" smooth="yes"/>
      <point x="768.5200000000001" y="634.84"/>
      <point x="878.5799999999998" y="535.18"/>
      <point x="878.5799999999998" y="357.08" type="curve" smooth="yes"/>
      <point x="878.5799999999998" y="264.02000000000004"/>
      <point x="846.6999999999999" y="159.54"/>
      <point x="760.6399999999999" y="159.54" type="curve" smooth="yes"/>
      <point x="713.6199999999999" y="159.54"/>
      <point x="702.8799999999999" y="192.24"/>
      <point x="716.74" y="252.24" type="curve" smooth="yes"/>
      <point x="775.02" y="497.87999999999994" type="line"/>
      <point x="710.6200000000001" y="523.62"/>
      <point x="630.4200000000001" y="540.5"/>
      <point x="562.1799999999998" y="540.5" type="curve" smooth="yes"/>
      <point x="356.05999999999995" y="540.5"/>
      <point x="236.17999999999995" y="377.06"/>
      <point x="236.17999999999995" y="224.3" type="curve" smooth="yes"/>
      <point x="236.17999999999995" y="117.02000000000001"/>
      <point x="294.00000000000006" y="62.56"/>
      <point x="392.12" y="62.56" type="curve" smooth="yes"/>
      <point x="468.33999999999986" y="62.56"/>
      <point x="538.18" y="106.65999999999998"/>
      <point x="582.2" y="158.98" type="curve"/>
      <point x="596.5400000000002" y="81.61999999999998"/>
      <point x="654.0799999999999" y="55.11999999999999"/>
      <point x="726.7" y="55.11999999999999" type="curve" smooth="yes"/>
      <point x="892.5200000000001" y="55.11999999999999"/>
      <point x="970.9599999999999" y="198.90000000000003"/>
      <point x="970.9599999999999" y="365.6" type="curve" smooth="yes"/>
      <point x="970.9599999999999" y="585.14"/>
      <point x="814.6400000000001" y="718.5600000000001"/>
      <point x="577.9399999999999" y="718.5600000000001" type="curve" smooth="yes"/>
      <point x="246.3" y="718.5600000000001"/>
      <point x="35.620000000000005" y="492.18"/>
      <point x="35.620000000000005" y="224.45999999999998" type="curve" smooth="yes"/>
      <point x="35.620000000000005" y="10.600000000000001"/>
      <point x="184.84000000000003" y="-121.5"/>
    </contour>
    <contour>
      <point x="469.7200000000001" y="196.64000000000001" type="curve" smooth="yes"/>
      <point x="423.26" y="196.64000000000001"/>
      <point x="399.64" y="220.18"/>
      <point x="399.64" y="261.68000000000006" type="curve" smooth="yes"/>
      <point x="399.64" y="322.94"/>
      <point x="460.88" y="422.34000000000003"/>
      <point x="539.3" y="422.34000000000003" type="curve" smooth="yes"/>
      <point x="569.0600000000001" y="422.34000000000003"/>
      <point x="586.52" y="419.06"/>
      <point x="610.56" y="410.14000000000004" type="curve"/>
      <point x="571.16" y="247.89999999999998" type="line" smooth="yes"/>
      <point x="553.2" y="219.88"/>
      <point x="510.14000000000004" y="196.64000000000001"/>
    </contour>
  </outline>
</glyph>
<glyph name="A" format="2">
  <advance width="833.726"/>
  <unicode hex="0041"/>
  <anchor x="373.44399999999996" y="0.0" name="bottom"/>
  <anchor x="785.622" y="0.0" name="ogonek"/>
  <anchor x="486.014" y="700.0" name="top"/>
  <outline>
    <contour>
      <point x="-39.896" y="0.0" type="line"/>
      <point x="208.996" y="0.0" type="line"/>
      <point x="264.58" y="116.366" type="line"/>
      <point x="518.0319999999999" y="116.366" type="line"/>
      <point x="538.88" y="0.0" type="line"/>
      <point x="785.622" y="0.0" type="line"/>
      <point x="611.9780000000001" y="707.42" type="line"/>
      <point x="356.82000000000005" y="707.42" type="line"/>
    </contour>
    <contour>
      <point x="341.584" y="274.75600000000003" type="line"/>
      <point x="459.082" y="532.326" type="line"/>
      <point x="494.90399999999994" y="274.75600000000003" type="line"/>
    </contour>
  </outline>
</glyph>
<glyph name="B" format="2">
  <advance width="817.49"/>
  <unicode hex="0042"/>
  <outline>
    <contour>
      <point x="21.781999999999996" y="4.5379999999999985" type="line"/>
      <point x="169.64399999999998" y="-5.118"/>
      <point x="265.518" y="-10.0"/>
      <point x="385.07199999999995" y="-10.0" type="curve" smooth="yes"/>
      <point x="578.018" y="-10.0"/>
      <point x="793.774" y="31.95000000000001"/>
      <point x="793.774" y="241.43599999999998" type="curve" smooth="yes"/>
      <point x="793.774" y="315.11600000000004"/>
      <point x="747.1559999999998" y="371.66999999999996"/>
      <point x="657.18" y="387.1039999999999" type="curve"/>
      <point x="738.906" y="419.508"/>
      <point x="801.6639999999999" y="471.75"/>
      <point x="801.6639999999999" y="568.676" type="curve" smooth="yes"/>
      <point x="801.6639999999999" y="664.598"/>
      <point x="715.0120000000001" y="710.0"/>
      <point x="482.45" y="710.0" type="curve" smooth="yes"/>
      <point x="403.62999999999994" y="710.0"/>
      <point x="294.714" y="706.342"/>
      <point x="133.75800000000004" y="695.378" type="curve"/>
    </contour>
    <contour>
      <point x="314.70799999999997" y="422.992" type="line"/>
      <point x="332.538" y="538.314" type="line"/>
      <point x="385.54999999999995" y="541.448"/>
      <point x="402.954" y="543.4899999999999"/>
      <point x="449.18199999999996" y="543.4899999999999" type="curve" smooth="yes"/>
      <point x="545.2739999999999" y="543.4899999999999"/>
      <point x="572.812" y="531.46"/>
      <point x="572.812" y="495.652" type="curve" smooth="yes"/>
      <point x="572.812" y="440.96200000000005"/>
      <point x="517.1840000000001" y="422.992"/>
      <point x="482.9099999999999" y="422.992" type="curve" smooth="yes"/>
    </contour>
    <contour>
      <point x="290.19599999999997" y="278.14799999999997" type="line"/>
      <point x="457.322" y="278.14799999999997" type="line" smooth="yes"/>
      <point x="529.2520000000001" y="278.14799999999997"/>
      <point x="559.0" y="265.05"/>
      <point x="559.0" y="231.568" type="curve" smooth="yes"/>
      <point x="559.0" y="166.406"/>
      <point x="500.472" y="151.428"/>
      <point x="382.034" y="151.428" type="curve" smooth="yes"/>
      <point x="352.77" y="151.428"/>
      <point x="307.24" y="153.45800000000003"/>
      <point x="270.736" y="156.10799999999998" type="curve"/>
    </contour>
  </outline>
</glyph>
<glyph name="C" format="2">
  <advance width="791.3400000000001"/>
  <unicode hex="0043"/>
  <anchor x="414.73999999999995" y="0.0" name="bottom"/>
  <anchor x="514.4000000000001" y="700.0" name="top"/>
  <outline>
    <contour>
      <point x="457.9199999999999" y="-10.0" type="curve" smooth="yes"/>
      <point x="549.3799999999999" y="-10.0"/>
      <point x="631.22" y="0.4199999999999988"/>
      <point x="725.6000000000001" y="21.98" type="curve"/>
      <point x="709.4200000000001" y="189.61999999999998" type="line"/>
      <point x="636.0399999999998" y="176.57999999999998"/>
      <point x="570.3199999999999" y="164.44"/>
      <point x="492.74" y="164.44" type="curve" smooth="yes"/>
      <point x="353.0" y="164.44"/>
      <point x="277.68" y="195.46"/>
      <point x="277.68" y="302.76" type="curve" smooth="yes"/>
      <point x="277.68" y="445.76"/>
      <point x="359.42" y="535.56"/>
      <point x="507.40000000000003" y="535.56" type="curve" smooth="yes"/>
      <point x="588.9399999999999" y="535.56"/>
      <point x="681.8" y="517.46"/>
      <point x="745.4399999999998" y="499.8399999999999" type="curve"/>
      <point x="796.1600000000001" y="663.3199999999999" type="line"/>
      <point x="695.9000000000001" y="699.1400000000001"/>
      <point x="593.58" y="710.0"/>
      <point x="490.26" y="710.0" type="curve" smooth="yes"/>
      <point x="212.11999999999998" y="710.0"/>
      <point x="44.260000000000005" y="548.26"/>
      <point x="44.260000000000005" y="277.82000000000005" type="curve" smooth="yes"/>
      <point x="44.260000000000005" y="75.18"/>
      <point x="183.06" y="-10.0"/>
    </contour>
  </outline>
</glyph>
<glyph name="D" format="2">
  <advance width="876.6999999999998"/>
  <unicode hex="0044"/>
  <anchor x="384.76000000000005" y="0.0" name="bottom"/>
  <anchor x="448.01644" y="350.0" name="center"/>
  <anchor x="447.5599999999999" y="700.0" name="top"/>
  <outline>
    <contour>
      <point x="377.23999999999995" y="-10.0" type="curve" smooth="yes"/>
      <point x="683.48" y="-10.0"/>
      <point x="853.44" y="136.12000000000003"/>
      <point x="853.44" y="402.47999999999996" type="curve" smooth="yes"/>
      <point x="853.44" y="607.2799999999999"/>
      <point x="722.7199999999999" y="710.0"/>
      <point x="444.98" y="710.0" type="curve" smooth="yes"/>
      <point x="353.09999999999997" y="710.0"/>
      <point x="253.72" y="707.0"/>
      <point x="133.86000000000004" y="699.7800000000001" type="curve"/>
      <point x="20.639999999999997" y="1.0799999999999985" type="line"/>
      <point x="127.89999999999996" y="-5.920000000000001"/>
      <point x="225.38" y="-10.0"/>
    </contour>
    <contour>
      <point x="398.9" y="148.10000000000002" type="curve" smooth="yes"/>
      <point x="342.08000000000004" y="148.10000000000002"/>
      <point x="316.5" y="150.46"/>
      <point x="270.18000000000006" y="152.51999999999998" type="curve"/>
      <point x="333.54" y="546.1199999999999" type="line"/>
      <point x="362.12000000000006" y="548.4"/>
      <point x="400.3" y="549.82"/>
      <point x="452.72" y="549.82" type="curve" smooth="yes"/>
      <point x="558.5" y="549.82"/>
      <point x="623.2399999999999" y="496.90000000000003"/>
      <point x="623.2399999999999" y="393.74000000000007" type="curve" smooth="yes"/>
      <point x="623.2399999999999" y="238.94"/>
      <point x="539.7399999999999" y="148.10000000000002"/>
    </contour>
  </outline>
</glyph>
<glyph name="E" format="2">
  <advance width="768.168"/>
  <unicode hex="0045"/>
  <anchor x="355.848" y="0.0" name="bottom"/>
  <anchor x="690.564" y="0.0" name="ogonek"/>
  <anchor x="454.488" y="700.0" name="top"/>
  <anchor x="90.02536" y="700.0" name="topleft"/>
  <outline>
    <contour>
      <point x="20.49599999999999" y="0.0" type="line"/>
      <point x="690.564" y="0.0" type="line"/>
      <point x="718.42" y="169.368" type="line"/>
      <point x="268.74000000000007" y="169.368" type="line"/>
      <point x="285.424" y="275.988" type="line"/>
      <point x="686.1" y="275.988" type="line"/>
      <point x="711.9399999999998" y="430.036" type="line"/>
      <point x="310.768" y="430.036" type="line"/>
      <point x="326.892" y="529.552" type="line"/>
      <point x="754.356" y="529.552" type="line"/>
      <point x="782.644" y="700.0" type="line"/>
      <point x="133.57600000000005" y="700.0" type="line"/>
    </contour>
  </outline>
</glyph>
<glyph name="F" format="2">
  <advance width="730.586"/>
  <unicode hex="0046"/>
  <outline>
    <contour>
      <point x="20.349999999999994" y="0.0" type="line"/>
      <point x="245.266" y="0.0" type="line"/>
      <point x="278.404" y="205.70800000000003" type="line"/>
      <point x="641.5759999999999" y="205.70800000000003" type="line"/>
      <point x="669.774" y="378.9" type="line"/>
      <point x="306.53999999999996" y="378.9" type="line"/>
      <point x="329.07599999999996" y="521.768" type="line"/>
      <point x="746.91" y="521.768" type="line"/>
      <point x="776.766" y="700.0" type="line"/>
      <point x="133.71600000000004" y="700.0" type="line"/>
    </contour>
  </outline>
</glyph>
<glyph name="G" format="2">
  <advance width="828.0"/>
  <unicode hex="0047"/>
  <anchor x="414.95000000000005" y="0.0" name="bottom"/>
  <anchor x="519.558" y="700.0" name="top"/>
  <outline>
    <contour>
      <point x="416.068" y="-10.0" type="curve" smooth="yes"/>
      <point x="565.8960000000001" y="-10.0"/>
      <point x="671.512" y="16.618"/>
      <point x="743.828" y="47.626" type="curve"/>
      <point x="803.1759999999999" y="409.24600000000004" type="line"/>
      <point x="467.8419999999999" y="409.24600000000004" type="line"/>
      <point x="443.686" y="259.44" type="line"/>
      <point x="581.742" y="259.44" type="line"/>
      <point x="567.126" y="167.78" type="line"/>
      <point x="542.3199999999999" y="157.82799999999997"/>
      <point x="503.626" y="149.954"/>
      <point x="453.30799999999994" y="149.954" type="curve" smooth="yes"/>
      <point x="333.96" y="149.954"/>
      <point x="270.024" y="190.83399999999997"/>
      <point x="270.024" y="290.492" type="curve" smooth="yes"/>
      <point x="270.024" y="439.882"/>
      <point x="360.186" y="537.49"/>
      <point x="523.9559999999999" y="537.49" type="curve" smooth="yes"/>
      <point x="612.1299999999999" y="537.49"/>
      <point x="681.222" y="525.168"/>
      <point x="751.7019999999999" y="509.04" type="curve"/>
      <point x="817.858" y="672.712" type="line"/>
      <point x="721.1779999999999" y="700.04"/>
      <point x="626.858" y="710.0"/>
      <point x="514.1539999999999" y="710.0" type="curve" smooth="yes"/>
      <point x="200.342" y="710.0"/>
      <point x="42.646" y="527.704"/>
      <point x="42.646" y="273.19" type="curve" smooth="yes"/>
      <point x="42.646" y="87.86000000000001"/>
      <point x="180.39600000000002" y="-10.0"/>
    </contour>
  </outline>
</glyph>
<glyph name="H" format="2">
  <advance width="875.7839999999999"/>
  <unicode hex="0048"/>
  <anchor x="394.38735199999996" y="0.0" name="bottom"/>
  <anchor x="449.84608199999997" y="350.0" name="center"/>
  <anchor x="505.2618539999999" y="700.0" name="top"/>
  <anchor x="87.21585400000001" y="700.0" name="topleft"/>
  <outline>
    <contour>
      <point x="20.251999999999995" y="0.0" type="line"/>
      <point x="245.35" y="0.0" type="line"/>
      <point x="282.062" y="232.864" type="line"/>
      <point x="583.4440000000001" y="232.864" type="line"/>
      <point x="545.786" y="0.0" type="line"/>
      <point x="765.1659999999999" y="0.0" type="line"/>
      <point x="878.574" y="700.0" type="line"/>
      <point x="659.5379999999999" y="700.0" type="line"/>
      <point x="612.588" y="414.576" type="line"/>
      <point x="311.164" y="414.576" type="line"/>
      <point x="358.716" y="700.0" type="line"/>
      <point x="133.61800000000002" y="700.0" type="line"/>
    </contour>
  </outline>
</glyph>
<glyph name="I" format="2">
  <advance width="355.926"/>
  <unicode hex="0049"/>
  <anchor x="134.170064" y="0.0" name="bottom"/>
  <anchor x="246.089224" y="2.58" name="ogonek"/>
  <anchor x="245.123428" y="700.0" name="top"/>
  <anchor x="89.93675400000001" y="700.0" name="topleft"/>
  <outline>
    <contour>
      <point x="20.251999999999995" y="0.0" type="line"/>
      <point x="245.308" y="0.0" type="line"/>
      <point x="358.716" y="700.0" type="line"/>
      <point x="133.61800000000002" y="700.0" type="line"/>
    </contour>
  </outline>
</glyph>
<glyph name="J" format="2">
  <advance width="673.596"/>
  <unicode hex="004A"/>
  <anchor x="288.652552" y="0.0" name="bottom"/>
  <anchor x="409.344" y="700.0" name="top"/>
  <outline>
    <contour>
      <point x="-23.026000000000003" y="32.959999999999994" type="line"/>
      <point x="72.4" y="4.879999999999999"/>
      <point x="173.50599999999997" y="-10.0"/>
      <point x="273.038" y="-10.0" type="curve" smooth="yes"/>
      <point x="479.49399999999997" y="-10.0"/>
      <point x="580.6139999999999" y="77.72399999999999"/>
      <point x="612.316" y="266.008" type="curve" smooth="yes"/>
      <point x="683.8040000000001" y="700.0" type="line"/>
      <point x="140.904" y="700.0" type="line"/>
      <point x="110.814" y="518.374" type="line"/>
      <point x="428.658" y="518.374" type="line"/>
      <point x="394.774" y="304.582" type="line" smooth="yes"/>
      <point x="379.33199999999994" y="206.382"/>
      <point x="332.10999999999996" y="172.916"/>
      <point x="247.272" y="172.916" type="curve" smooth="yes"/>
      <point x="188.81" y="172.916"/>
      <point x="122.104" y="186.90400000000002"/>
      <point x="36.49799999999999" y="208.01800000000003" type="curve"/>
    </contour>
  </outline>
</glyph>
<glyph name="K" format="2">
  <advance width="825.164"/>
  <unicode hex="004B"/>
  <anchor x="387.93999999999994" y="0.0" name="bottom"/>
  <anchor x="484.96399999999994" y="700.0" name="top"/>
  <outline>
    <contour>
      <point x="20.007999999999996" y="0.0" type="line"/>
      <point x="245.508" y="0.0" type="line"/>
      <point x="358.416" y="700.0" type="line"/>
      <point x="134.92000000000002" y="700.0" type="line"/>
    </contour>
    <contour>
      <point x="705.3240000000001" y="-9.8" type="curve" smooth="yes"/>
      <point x="717.768" y="-9.8"/>
      <point x="750.7439999999999" y="-6.532"/>
      <point x="760.088" y="-3.528" type="curve"/>
      <point x="787.3199999999998" y="194.136" type="line"/>
      <point x="778.4879999999999" y="193.932"/>
      <point x="770.572" y="193.648"/>
      <point x="762.96" y="193.648" type="curve" smooth="yes"/>
      <point x="715.5919999999999" y="193.648"/>
      <point x="671.6479999999999" y="208.164"/>
      <point x="604.6999999999999" y="253.90399999999997" type="curve" smooth="yes"/>
      <point x="283.368" y="472.67599999999993" type="line"/>
      <point x="253.768" y="264.096" type="line"/>
      <point x="503.0319999999999" y="64.652" type="line" smooth="yes"/>
      <point x="571.236" y="14.104"/>
      <point x="643.232" y="-9.8"/>
    </contour>
    <contour>
      <point x="460.89199999999994" y="297.50399999999996" type="line"/>
      <point x="621.928" y="366.452"/>
      <point x="764.7759999999998" y="476.97600000000006"/>
      <point x="847.7959999999998" y="599.9759999999999" type="curve"/>
      <point x="696.584" y="712.936" type="line"/>
      <point x="585.808" y="575.2719999999999"/>
      <point x="448.044" y="464.796"/>
      <point x="325.904" y="399.384" type="curve"/>
    </contour>
  </outline>
</glyph>
<glyph name="L" format="2">
  <advance width="715.208"/>
  <unicode hex="004C"/>
  <anchor x="336.048" y="0.0" name="bottom"/>
  <anchor x="369.054082" y="350.0" name="center"/>
  <anchor x="246.076" y="700.0" name="top"/>
  <anchor x="491.94199999999995" y="700.0" name="topright"/>
  <outline>
    <contour>
      <point x="20.209999999999997" y="0.0" type="line"/>
      <point x="645.038" y="0.0" type="line"/>
      <point x="675.988" y="178.874" type="line"/>
      <point x="275.012" y="178.874" type="line"/>
      <point x="358.674" y="700.0" type="line"/>
      <point x="133.61800000000002" y="700.0" type="line"/>
    </contour>
  </outline>
</glyph>
<glyph name="M" format="2">
  <advance width="965.992"/>
  <unicode hex="004D"/>
  <outline>
    <contour>
      <point x="19.951999999999998" y="0.0" type="line"/>
      <point x="229.73799999999997" y="0.0" type="line"/>
      <point x="292.84000000000003" y="411.38800000000003" type="line"/>
      <point x="408.2180000000001" y="127.868" type="line"/>
      <point x="506.31999999999994" y="127.868" type="line"/>
      <point x="716.8339999999998" y="417.85400000000004" type="line"/>
      <point x="648.0339999999999" y="0.0" type="line"/>
      <point x="855.374" y="0.0" type="line"/>
      <point x="968.7819999999998" y="700.0" type="line"/>
      <point x="734.7759999999998" y="700.0" type="line"/>
      <point x="489.92" y="356.35400000000004" type="line"/>
      <point x="352.638" y="700.0" type="line"/>
      <point x="133.618" y="700.0" type="line"/>
    </contour>
  </outline>
</glyph>
<glyph name="N" format="2">
  <advance width="835.1899999999999"/>
  <unicode hex="004E"/>
  <anchor x="375.09092" y="0.0" name="bottom"/>
  <anchor x="485.65459" y="700.0" name="top"/>
  <outline>
    <contour>
      <point x="20.28" y="0.0" type="line"/>
      <point x="222.16999999999996" y="0.0" type="line"/>
      <point x="284.38" y="382.16" type="line"/>
      <point x="524.3699999999999" y="-0.9800000000000004" type="line"/>
      <point x="723.8299999999999" y="-0.9800000000000004" type="line"/>
      <point x="837.9799999999999" y="700.0" type="line"/>
      <point x="635.73" y="700.0" type="line"/>
      <point x="570.0800000000002" y="299.34999999999997" type="line"/>
      <point x="334.03" y="700.98" type="line"/>
      <point x="134.42999999999998" y="700.98" type="line"/>
    </contour>
  </outline>
</glyph>
<glyph name="O" format="2">
  <advance width="881.8199999999998"/>
  <unicode hex="004F"/>
  <note>
8
</note>
  <anchor x="396.8999999999999" y="0.0" name="bottom"/>
  <anchor x="452.5399999999999" y="350.0" name="center"/>
  <anchor x="509.38" y="2.220446049250313e-16" name="ogonek"/>
  <anchor x="500.56" y="700.0" name="top"/>
  <anchor x="84.88" y="700.0" name="topleft"/>
  <anchor x="734.88" y="687.64" name="topright"/>
  <outline>
    <contour>
      <point x="421.52" y="-8.14" type="curve" smooth="yes"/>
      <point x="700.8599999999998" y="-8.14"/>
      <point x="855.7599999999999" y="146.49999999999997"/>
      <point x="859.7199999999999" y="404.02000000000004" type="curve" smooth="yes"/>
      <point x="862.5999999999999" y="602.0799999999999"/>
      <point x="739.0800000000002" y="708.28"/>
      <point x="483.80000000000007" y="708.28" type="curve" smooth="yes"/>
      <point x="204.46000000000004" y="708.28"/>
      <point x="49.56" y="553.64"/>
      <point x="45.60000000000001" y="296.12" type="curve" smooth="yes"/>
      <point x="42.72000000000001" y="98.06"/>
      <point x="166.24" y="-8.14"/>
    </contour>
    <contour>
      <point x="435.06" y="155.97999999999996" type="curve" smooth="yes"/>
      <point x="324.78" y="155.97999999999996"/>
      <point x="274.08" y="195.99999999999997"/>
      <point x="274.08" y="300.22" type="curve" smooth="yes"/>
      <point x="274.08" y="431.24"/>
      <point x="344.7" y="544.1600000000001"/>
      <point x="470.40000000000003" y="544.1600000000001" type="curve" smooth="yes"/>
      <point x="580.5400000000001" y="544.1600000000001"/>
      <point x="631.2399999999999" y="503.78000000000003"/>
      <point x="631.2399999999999" y="399.55999999999995" type="curve" smooth="yes"/>
      <point x="631.2399999999999" y="268.53999999999996"/>
      <point x="560.6199999999999" y="155.97999999999996"/>
    </contour>
  </outline>
</glyph>
<glyph name="P" format="2">
  <advance width="851.3999999999999"/>
  <unicode hex="0050"/>
  <outline>
    <contour>
      <point x="20.28" y="0.0" type="line"/>
      <point x="244.39" y="0.0" type="line"/>
      <point x="274.34999999999997" y="177.93" type="line"/>
      <point x="350.63999999999993" y="174.07000000000002"/>
      <point x="377.74999999999994" y="173.43"/>
      <point x="419.91999999999996" y="173.43" type="curve" smooth="yes"/>
      <point x="737.8000000000001" y="173.43"/>
      <point x="857.98" y="265.73999999999995"/>
      <point x="858.19" y="481.95" type="curve" smooth="yes"/>
      <point x="858.2600000000001" y="647.6899999999999"/>
      <point x="750.4199999999998" y="710.0"/>
      <point x="476.38999999999993" y="710.0" type="curve" smooth="yes"/>
      <point x="423.64000000000004" y="710.0"/>
      <point x="314.36" y="707.14"/>
      <point x="134.29" y="700.5699999999999" type="curve"/>
    </contour>
    <contour>
      <point x="333.03999999999996" y="539.81" type="line"/>
      <point x="413.7099999999999" y="543.16"/>
      <point x="430.48999999999995" y="543.9399999999999"/>
      <point x="483.28000000000003" y="543.9399999999999" type="curve" smooth="yes"/>
      <point x="592.28" y="543.9399999999999"/>
      <point x="626.77" y="518.36"/>
      <point x="626.77" y="460.68000000000006" type="curve" smooth="yes"/>
      <point x="626.77" y="386.31000000000006"/>
      <point x="584.82" y="341.64"/>
      <point x="409.72999999999996" y="341.64" type="curve" smooth="yes"/>
      <point x="378.27000000000004" y="341.64"/>
      <point x="356.62999999999994" y="342.84999999999997"/>
      <point x="301.86" y="345.78" type="curve"/>
    </contour>
  </outline>
</glyph>
<glyph name="Q" format="2">
  <advance width="882.094"/>
  <unicode hex="0051"/>
  <note>
14
</note>
  <outline>
    <contour>
      <point x="635.1639999999999" y="-198.28199999999998" type="curve" smooth="yes"/>
      <point x="673.458" y="-198.28199999999998"/>
      <point x="712.06" y="-191.942"/>
      <point x="752.968" y="-179.08" type="curve"/>
      <point x="757.1759999999999" y="-13.902000000000015" type="line"/>
      <point x="741.12" y="-20.598"/>
      <point x="722.7499999999999" y="-23.577999999999996"/>
      <point x="701.7139999999999" y="-23.577999999999996" type="curve" smooth="yes"/>
      <point x="657.746" y="-23.577999999999996"/>
      <point x="612.3679999999999" y="-2.4339999999999984"/>
      <point x="594.1759999999999" y="34.512" type="curve"/>
      <point x="392.284" y="9.241999999999997" type="line"/>
      <point x="426.764" y="-136.356"/>
      <point x="520.234" y="-198.28199999999998"/>
    </contour>
    <component base="O"/>
  </outline>
</glyph>
<glyph name="R" format="2">
  <advance width="874.04"/>
  <unicode hex="0052"/>
  <anchor x="417.86" y="0.0" name="bottom"/>
  <anchor x="470.4000000000001" y="700.0" name="top"/>
  <outline>
    <contour>
      <point x="20.28000000000001" y="0.0" type="line"/>
      <point x="245.46" y="0.0" type="line"/>
      <point x="280.69999999999993" y="217.94" type="line"/>
      <point x="346.43999999999994" y="217.01999999999998"/>
      <point x="409.91999999999985" y="216.52"/>
      <point x="478.45999999999987" y="215.66" type="curve"/>
      <point x="545.4" y="252.84" type="line"/>
      <point x="731.14" y="253.11999999999998"/>
      <point x="849.9799999999998" y="344.28000000000003"/>
      <point x="849.9799999999998" y="503.59999999999997" type="curve" smooth="yes"/>
      <point x="849.9799999999998" y="637.0600000000002"/>
      <point x="748.4799999999998" y="710.0"/>
      <point x="485.23999999999995" y="710.0" type="curve" smooth="yes"/>
      <point x="420.97999999999996" y="710.0"/>
      <point x="302.4799999999999" y="706.7800000000001"/>
      <point x="133.86" y="699.9200000000001" type="curve"/>
    </contour>
    <contour>
      <point x="751.5599999999998" y="-10.0" type="curve" smooth="yes"/>
      <point x="762.08" y="-10.0"/>
      <point x="792.66" y="-8.139999999999999"/>
      <point x="801.8199999999999" y="-5.42" type="curve"/>
      <point x="829.4199999999998" y="183.49999999999997" type="line"/>
      <point x="823.56" y="182.5"/>
      <point x="812.0399999999998" y="182.5"/>
      <point x="805.2399999999999" y="182.5" type="curve" smooth="yes"/>
      <point x="746.4199999999998" y="182.49999999999997"/>
      <point x="661.9399999999999" y="226.42000000000002"/>
      <point x="597.5799999999999" y="290.56" type="curve"/>
      <point x="363.38" y="238.68" type="line"/>
      <point x="504.2800000000001" y="83.34"/>
      <point x="611.7399999999998" y="-10.0"/>
    </contour>
    <contour>
      <point x="454.64" y="364.17999999999995" type="curve" smooth="yes"/>
      <point x="396.5" y="364.17999999999995"/>
      <point x="350.63999999999993" y="366.03999999999996"/>
      <point x="305.3399999999999" y="369.68" type="curve"/>
      <point x="333.18000000000006" y="547.62" type="line"/>
      <point x="407.41999999999996" y="550.9"/>
      <point x="420.84" y="551.5400000000001"/>
      <point x="477.21999999999997" y="551.5400000000001" type="curve" smooth="yes"/>
      <point x="583.7199999999999" y="551.5400000000001"/>
      <point x="613.98" y="523.1600000000001"/>
      <point x="613.98" y="476.4000000000001" type="curve" smooth="yes"/>
      <point x="613.98" y="401.6999999999999"/>
      <point x="555.62" y="364.17999999999995"/>
    </contour>
  </outline>
</glyph>
<glyph name="S" format="2">
  <advance width="778.4200000000001"/>
  <unicode hex="0053"/>
  <anchor x="377.0" y="0.0" name="bottom"/>
  <anchor x="456.21999999999997" y="700.0" name="top"/>
  <outline>
    <contour>
      <point x="768.8000000000001" y="664.6600000000001" type="line"/>
      <point x="674.5200000000001" y="694.26"/>
      <point x="578.54" y="710.0"/>
      <point x="472.9599999999999" y="710.0" type="curve" smooth="yes"/>
      <point x="183.05999999999997" y="710.0"/>
      <point x="62.82000000000001" y="620.7"/>
      <point x="62.82000000000001" y="468.2" type="curve" smooth="yes"/>
      <point x="62.82000000000001" y="218.01999999999998"/>
      <point x="500.38000000000005" y="289.7"/>
      <point x="500.3800000000001" y="201.94" type="curve" smooth="yes"/>
      <point x="500.3800000000001" y="172.38"/>
      <point x="467.78" y="150.29999999999998"/>
      <point x="382.58" y="150.29999999999998" type="curve" smooth="yes"/>
      <point x="262.73999999999995" y="150.29999999999998"/>
      <point x="148.55999999999997" y="171.50000000000006"/>
      <point x="38.980000000000004" y="207.51999999999998" type="curve"/>
      <point x="-22.599999999999998" y="47.87999999999998" type="line"/>
      <point x="78.53999999999999" y="13.879999999999999"/>
      <point x="203.55999999999997" y="-10.0"/>
      <point x="344.56" y="-10.0" type="curve" smooth="yes"/>
      <point x="637.1999999999999" y="-10.0"/>
      <point x="750.28" y="83.00000000000001"/>
      <point x="750.28" y="232.38000000000002" type="curve" smooth="yes"/>
      <point x="750.42" y="474.56"/>
      <point x="311.14" y="411.70000000000005"/>
      <point x="311.14" y="494.9" type="curve" smooth="yes"/>
      <point x="311.14" y="528.2999999999998"/>
      <point x="342.74" y="547.7"/>
      <point x="437.2" y="547.7" type="curve" smooth="yes"/>
      <point x="539.4399999999998" y="547.7"/>
      <point x="632.44" y="535.0600000000001"/>
      <point x="711.9599999999999" y="508.7" type="curve"/>
    </contour>
  </outline>
</glyph>
<glyph name="T" format="2">
  <advance width="782.4639999999999"/>
  <unicode hex="0054"/>
  <anchor x="347.346552" y="0.0" name="bottom"/>
  <anchor x="403.18892399999993" y="350.0" name="center"/>
  <anchor x="458.343428" y="700.0" name="top"/>
  <outline>
    <contour>
      <point x="801.8679999999999" y="531.704" type="line"/>
      <point x="832.216" y="700.0" type="line"/>
      <point x="88.72" y="700.0" type="line"/>
      <point x="57.769999999999996" y="531.704" type="line"/>
      <point x="318.05" y="531.704" type="line"/>
      <point x="234.12999999999997" y="0.0" type="line"/>
      <point x="459.186" y="0.0" type="line"/>
      <point x="542.5039999999999" y="531.704" type="line"/>
    </contour>
  </outline>
</glyph>
<glyph name="U" format="2">
  <advance width="859.468"/>
  <unicode hex="0055"/>
  <anchor x="386.46584" y="0.0" name="bottom"/>
  <anchor x="498.6039999999999" y="0.0" name="ogonek"/>
  <anchor x="496.87717999999995" y="700.0" name="top"/>
  <anchor x="860.732" y="700.0" name="topright"/>
  <outline>
    <contour>
      <point x="381.76199999999994" y="-10.0" type="curve" smooth="yes"/>
      <point x="634.8259999999999" y="-10.0"/>
      <point x="768.342" y="76.70000000000002"/>
      <point x="798.712" y="261.76399999999995" type="curve" smooth="yes"/>
      <point x="869.6759999999999" y="700.0" type="line"/>
      <point x="648.7919999999999" y="700.0" type="line"/>
      <point x="579.45" y="271.224" type="line" smooth="yes"/>
      <point x="568.322" y="199.12"/>
      <point x="511.754" y="162.768"/>
      <point x="412.10799999999995" y="162.768" type="curve" smooth="yes"/>
      <point x="313.014" y="162.768"/>
      <point x="264.34" y="200.7"/>
      <point x="276.146" y="270.678" type="curve" smooth="yes"/>
      <point x="346.796" y="700.0" type="line"/>
      <point x="125.954" y="700.0" type="line"/>
      <point x="55.00399999999999" y="261.694" type="line" smooth="yes"/>
      <point x="50.83" y="232.934"/>
      <point x="49.614000000000004" y="216.944"/>
      <point x="49.614000000000004" y="201.624" type="curve" smooth="yes"/>
      <point x="49.614000000000004" y="59.036"/>
      <point x="158.346" y="-10.0"/>
    </contour>
  </outline>
</glyph>
<glyph name="V" format="2">
  <advance width="775.8779999999999"/>
  <unicode hex="0056"/>
  <outline>
    <contour>
      <point x="461.278" y="0.0" type="line"/>
      <point x="738.8399999999999" y="416.05800000000005"/>
      <point x="810.56" y="553.5"/>
      <point x="832.4899999999999" y="676.51" type="curve" smooth="yes"/>
      <point x="833.7800000000001" y="684.748"/>
      <point x="834.5000000000001" y="692.098"/>
      <point x="835.108" y="700.0" type="curve"/>
      <point x="587.468" y="700.0" type="line"/>
      <point x="587.72" y="695.5200000000001"/>
      <point x="588.748" y="690.418"/>
      <point x="588.748" y="680.45" type="curve" smooth="yes"/>
      <point x="588.7479999999999" y="554.49"/>
      <point x="489.37399999999997" y="384.72399999999993"/>
      <point x="378.70599999999996" y="188.41999999999996" type="curve"/>
      <point x="306.78" y="701.1479999999999" type="line"/>
      <point x="64.75" y="700.21" type="line"/>
      <point x="221.40799999999996" y="0.0" type="line"/>
    </contour>
  </outline>
</glyph>
<glyph name="W" format="2">
  <advance width="1067.02"/>
  <unicode hex="0057"/>
  <anchor x="481.53999999999996" y="0.0" name="bottom"/>
  <anchor x="600.9" y="700.0" name="top"/>
  <outline>
    <contour>
      <point x="838.66" y="-5.551115123125783e-17" type="line"/>
      <point x="1039.44" y="377.46000000000004"/>
      <point x="1114.6200000000001" y="582.8"/>
      <point x="1117.7799999999997" y="684.4599999999998" type="curve" smooth="yes"/>
      <point x="1117.7799999999997" y="689.88"/>
      <point x="1117.2799999999997" y="697.1600000000001"/>
      <point x="1117.36" y="700.0" type="curve"/>
      <point x="916.8999999999999" y="700.0" type="line"/>
      <point x="916.6800000000001" y="694.0799999999999"/>
      <point x="916.3199999999999" y="687.9399999999999"/>
      <point x="915.8199999999999" y="680.7399999999999" type="curve" smooth="yes"/>
      <point x="905.2199999999997" y="540.52"/>
      <point x="857.3399999999999" y="425.9800000000001"/>
      <point x="739.2399999999999" y="181.96" type="curve"/>
      <point x="710.46" y="659.84" type="line"/>
      <point x="481.17999999999995" y="659.84" type="line"/>
      <point x="433.21999999999997" y="504.06000000000006"/>
      <point x="372.42" y="332.23999999999995"/>
      <point x="304.4" y="180.98" type="curve"/>
      <point x="279.24" y="700.0" type="line"/>
      <point x="67.39999999999999" y="700.0" type="line"/>
      <point x="142.45999999999998" y="-5.551115123125783e-17" type="line"/>
      <point x="363.1399999999999" y="-5.551115123125783e-17" type="line"/>
      <point x="438.14" y="143.6"/>
      <point x="508.6" y="283.58000000000004"/>
      <point x="560.7199999999999" y="407.06" type="curve"/>
      <point x="600.5399999999998" y="-5.551115123125783e-17" type="line"/>
    </contour>
  </outline>
</glyph>
<glyph name="X" format="2">
  <advance width="791.9399999999998"/>
  <unicode hex="0058"/>
  <outline>
    <contour>
      <point x="504.08" y="-1.3399999999999999" type="line"/>
      <point x="746.5799999999999" y="1.2799999999999998" type="line"/>
      <point x="557.52" y="354.12" type="line"/>
      <point x="708.0200000000001" y="527.32"/>
      <point x="801.1399999999999" y="602.5200000000001"/>
      <point x="829.22" y="700.86" type="curve"/>
      <point x="592.04" y="702.78" type="line"/>
      <point x="576.16" y="617.5000000000001"/>
      <point x="516.56" y="544.6199999999999"/>
      <point x="423.37999999999994" y="455.34000000000003" type="curve"/>
      <point x="324.32" y="701.48" type="line"/>
      <point x="87.2" y="698.8599999999999" type="line"/>
      <point x="253.22" y="364.26" type="line"/>
      <point x="113.01999999999998" y="225.00000000000003"/>
      <point x="6.400000000000002" y="111.76000000000002"/>
      <point x="-15.220000000000006" y="0.0" type="curve"/>
      <point x="221.31999999999996" y="0.0" type="line"/>
      <point x="236.76" y="94.48000000000002"/>
      <point x="292.29999999999995" y="158.94000000000003"/>
      <point x="389.43999999999994" y="261.84000000000003" type="curve"/>
    </contour>
  </outline>
</glyph>
<glyph name="Y" format="2">
  <advance width="756.6959999999998"/>
  <unicode hex="0059"/>
  <anchor x="332.336" y="0.0" name="bottom"/>
  <anchor x="450.182" y="700.0" name="top"/>
  <anchor x="80.942" y="700.0" name="topleft"/>
  <outline>
    <contour>
      <point x="230.72399999999993" y="0.0" type="line"/>
      <point x="452.50000000000006" y="0.0" type="line"/>
      <point x="491.386" y="232.346" type="line"/>
      <point x="717.71" y="476.11600000000004"/>
      <point x="780.138" y="565.2180000000001"/>
      <point x="814.2779999999999" y="669.074" type="curve" smooth="yes"/>
      <point x="817.3699999999999" y="678.876"/>
      <point x="820.978" y="689.94"/>
      <point x="824.0279999999999" y="700.742" type="curve"/>
      <point x="577.9559999999999" y="701.39" type="line"/>
      <point x="576.126" y="690.7919999999999"/>
      <point x="573.734" y="681.436"/>
      <point x="571.6039999999999" y="671.842" type="curve" smooth="yes"/>
      <point x="544.7559999999999" y="571.044"/>
      <point x="512.162" y="511.3199999999999"/>
      <point x="404.688" y="378.72400000000005" type="curve"/>
      <point x="310.75800000000004" y="700.948" type="line"/>
      <point x="61.6" y="699.646" type="line"/>
      <point x="268.426" y="232.346" type="line"/>
    </contour>
  </outline>
</glyph>
<glyph name="Z" format="2">
  <advance width="772.7799999999999"/>
  <unicode hex="005A"/>
  <anchor x="343.65999999999997" y="0.0" name="bottom"/>
  <anchor x="398.1199999999999" y="350.0" name="center"/>
  <anchor x="447.24" y="700.0" name="top"/>
  <outline>
    <contour>
      <point x="-15.440000000000001" y="0.0" type="line"/>
      <point x="699.5999999999999" y="0.0" type="line"/>
      <point x="726.68" y="164.62" type="line"/>
      <point x="319.93999999999994" y="164.62" type="line"/>
      <point x="763.48" y="545.04" type="line"/>
      <point x="788.6999999999998" y="700.0" type="line"/>
      <point x="127.45999999999998" y="700.0" type="line"/>
      <point x="100.37999999999998" y="535.3800000000001" type="line"/>
      <point x="465.68" y="535.3800000000001" type="line"/>
      <point x="9.419999999999996" y="152.88000000000002" type="line"/>
    </contour>
  </outline>
</glyph>
<glyph name="bracketleft" format="2">
  <advance width="414.546"/>
  <unicode hex="005B"/>
  <outline>
    <contour>
      <point x="177.524" y="-74.18" type="line"/>
      <point x="286.232" y="604.2780000000001" type="line"/>
      <point x="439.642" y="604.2780000000001" type="line"/>
      <point x="461.562" y="740.0" type="line"/>
      <point x="146.522" y="740.0" type="line"/>
      <point x="-5.381999999999998" y="-210.0" type="line"/>
      <point x="308.756" y="-210.0" type="line"/>
      <point x="330.93399999999997" y="-74.18" type="line"/>
    </contour>
  </outline>
</glyph>
<glyph name="backslash" format="2">
  <advance width="455.452"/>
  <unicode hex="005C"/>
  <outline>
    <contour>
      <point x="228.95199999999997" y="740.0" type="line"/>
      <point x="73.75800000000001" y="740.0" type="line"/>
      <point x="254.006" y="-210.0" type="line"/>
      <point x="408.942" y="-210.0" type="line"/>
    </contour>
  </outline>
</glyph>
<glyph name="bracketright" format="2">
  <advance width="414.546"/>
  <unicode hex="005D"/>
  <outline>
    <contour>
      <point x="-27.956" y="-74.18" type="line"/>
      <point x="-49.274" y="-210.0" type="line"/>
      <point x="264.724" y="-210.0" type="line"/>
      <point x="417.53" y="740.0" type="line"/>
      <point x="102.53199999999998" y="740.0" type="line"/>
      <point x="80.35399999999998" y="604.1800000000001" type="line"/>
      <point x="233.764" y="604.1800000000001" type="line"/>
      <point x="124.798" y="-74.18" type="line"/>
    </contour>
  </outline>
</glyph>
<glyph name="asciicircum" format="2">
  <advance width="608.6959999999999"/>
  <unicode hex="005E"/>
  <outline>
    <contour>
      <point x="37.138000000000005" y="222.806" type="line"/>
      <point x="200.728" y="222.806" type="line"/>
      <point x="337.728" y="505.47200000000004" type="line"/>
      <point x="391.478" y="222.806" type="line"/>
      <point x="554.614" y="222.806" type="line"/>
      <point x="459.764" y="701.4" type="line"/>
      <point x="283.354" y="701.4" type="line"/>
    </contour>
  </outline>
</glyph>
<glyph name="underscore" format="2">
  <advance width="842.6959999999999"/>
  <unicode hex="005F"/>
  <outline>
    <contour>
      <point x="-61.025999999999996" y="-199.382" type="line"/>
      <point x="752.566" y="-199.382" type="line"/>
      <point x="776.722" y="-52.298" type="line"/>
      <point x="-36.87" y="-52.298" type="line"/>
    </contour>
  </outline>
</glyph>
<glyph name="a" format="2">
  <advance width="731.4099999999999"/>
  <unicode hex="0061"/>
  <note>
15
</note>
  <anchor x="323.18092" y="0.0" name="bottom"/>
  <anchor x="688.78" y="6.02" name="ogonek"/>
  <anchor x="404.92999999999995" y="547.2" name="top"/>
  <outline>
    <contour>
      <point x="584.14" y="-10.0" type="curve" smooth="yes"/>
      <point x="620.71" y="-10.0"/>
      <point x="664.3800000000001" y="-2.7699999999999996"/>
      <point x="688.4900000000001" y="5.81" type="curve"/>
      <point x="693.7299999999999" y="157.83" type="line"/>
      <point x="687.89" y="156.33999999999997"/>
      <point x="679.47" y="155.63"/>
      <point x="673.78" y="155.63" type="curve" smooth="yes"/>
      <point x="657.9799999999999" y="155.63"/>
      <point x="652.8" y="164.02000000000004"/>
      <point x="652.8" y="179.14999999999998" type="curve" smooth="yes"/>
      <point x="652.8" y="188.8"/>
      <point x="663.1" y="250.43999999999997"/>
      <point x="705.89" y="516.97" type="curve"/>
      <point x="641.62" y="538.25"/>
      <point x="508.39000000000004" y="557.2"/>
      <point x="395.71999999999997" y="557.2" type="curve" smooth="yes"/>
      <point x="164.43" y="557.2"/>
      <point x="24.149999999999995" y="446.02000000000004"/>
      <point x="24.149999999999995" y="205.41" type="curve" smooth="yes"/>
      <point x="24.149999999999995" y="56.910000000000004"/>
      <point x="115.13" y="-10.0"/>
      <point x="238.53" y="-10.0" type="curve" smooth="yes"/>
      <point x="314.88" y="-10.0"/>
      <point x="384.53" y="15.059999999999999"/>
      <point x="440.72999999999985" y="53.82999999999999" type="curve"/>
      <point x="468.53000000000003" y="14.779999999999996"/>
      <point x="528.08" y="-10.0"/>
    </contour>
    <contour>
      <point x="436.21999999999997" y="181.19" type="line"/>
      <point x="404.46000000000004" y="166.20999999999995"/>
      <point x="362.17999999999995" y="153.54999999999998"/>
      <point x="325.65999999999997" y="153.54999999999998" type="curve" smooth="yes"/>
      <point x="277.62000000000006" y="153.54999999999998"/>
      <point x="241.22999999999996" y="182.14000000000001"/>
      <point x="241.22999999999996" y="238.57999999999998" type="curve" smooth="yes"/>
      <point x="241.22999999999996" y="336.78"/>
      <point x="301.70000000000005" y="404.61"/>
      <point x="388.08" y="404.61" type="curve" smooth="yes"/>
      <point x="417.17999999999995" y="404.61"/>
      <point x="445.88" y="401.49000000000007"/>
      <point x="469.8299999999999" y="392.66999999999996" type="curve"/>
    </contour>
  </outline>
</glyph>
<glyph name="b" format="2">
  <advance width="719.202"/>
  <unicode hex="0062"/>
  <note>
12
</note>
  <outline>
    <contour>
      <point x="344.056" y="740.0" type="line"/>
      <point x="128.11599999999999" y="740.0" type="line"/>
      <point x="14.031999999999998" y="21.145999999999997" type="line"/>
      <point x="86.64799999999998" y="7.117999999999999"/>
      <point x="193.378" y="-10.0"/>
      <point x="310.96799999999996" y="-10.0" type="curve" smooth="yes"/>
      <point x="545.984" y="-10.0"/>
      <point x="697.478" y="109.45200000000001"/>
      <point x="697.048" y="350.828" type="curve" smooth="yes"/>
      <point x="697.0479999999999" y="477.306"/>
      <point x="635.3100000000001" y="557.2"/>
      <point x="507.758" y="557.2" type="curve" smooth="yes"/>
      <point x="437.534" y="557.2"/>
      <point x="374.752" y="536.466"/>
      <point x="303.95000000000005" y="494.9220000000001" type="curve"/>
    </contour>
    <contour>
      <point x="399.68399999999997" y="388.172" type="curve" smooth="yes"/>
      <point x="450.61800000000005" y="388.172"/>
      <point x="479.3880000000001" y="362.11199999999997"/>
      <point x="479.3880000000001" y="303.538" type="curve" smooth="yes"/>
      <point x="479.3880000000001" y="214.05200000000002"/>
      <point x="418.86999999999995" y="136.668"/>
      <point x="334.73" y="136.668" type="curve" smooth="yes"/>
      <point x="303.532" y="136.668"/>
      <point x="273.94" y="141.802"/>
      <point x="250.13" y="148.722" type="curve"/>
      <point x="282.89" y="357.098" type="line"/>
      <point x="319.812" y="374.844"/>
      <point x="360.92599999999993" y="388.172"/>
    </contour>
  </outline>
</glyph>
<glyph name="c" format="2">
  <advance width="634.6600000000001"/>
  <unicode hex="0063"/>
  <note>
10
</note>
  <anchor x="334.88" y="0.0" name="bottom"/>
  <anchor x="406.22" y="547.1999999999999" name="top"/>
  <outline>
    <contour>
      <point x="315.75999999999993" y="-10.0" type="curve" smooth="yes"/>
      <point x="397.43999999999994" y="-10.0"/>
      <point x="494.97999999999985" y="-2.740000000000002"/>
      <point x="573.3399999999999" y="21.780000000000005" type="curve"/>
      <point x="565.9799999999999" y="169.05999999999997" type="line"/>
      <point x="489.48" y="155.14000000000001"/>
      <point x="439.09999999999997" y="150.04000000000002"/>
      <point x="377.76000000000005" y="150.04000000000002" type="curve" smooth="yes"/>
      <point x="292.44000000000005" y="150.04000000000002"/>
      <point x="245.96" y="185.94"/>
      <point x="245.96" y="248.21999999999997" type="curve" smooth="yes"/>
      <point x="245.96" y="334.4"/>
      <point x="297.9" y="399.54"/>
      <point x="403.43999999999994" y="399.54" type="curve" smooth="yes"/>
      <point x="456.91999999999996" y="399.54"/>
      <point x="518.06" y="394.26000000000005"/>
      <point x="590.5" y="378.2" type="curve"/>
      <point x="642.5800000000002" y="531.0600000000001" type="line"/>
      <point x="579.3" y="547.8399999999999"/>
      <point x="489.2799999999999" y="557.1999999999999"/>
      <point x="409.88" y="557.1999999999999" type="curve" smooth="yes"/>
      <point x="150.73999999999995" y="557.1999999999999"/>
      <point x="25.27999999999999" y="431.02"/>
      <point x="25.27999999999999" y="220.77999999999997" type="curve" smooth="yes"/>
      <point x="25.27999999999999" y="73.16000000000003"/>
      <point x="114.39999999999999" y="-10.0"/>
    </contour>
  </outline>
</glyph>
<glyph name="d" format="2">
  <advance width="732.5999999999999"/>
  <unicode hex="0064"/>
  <note>
17
</note>
  <anchor x="339.56" y="0.0" name="bottom"/>
  <anchor x="366.16" y="278.92" name="center"/>
  <anchor x="424.46000000000004" y="740.0" name="top"/>
  <anchor x="776.38" y="740.0" name="topright"/>
  <outline>
    <contour>
      <point x="584.42" y="-10.0" type="curve" smooth="yes"/>
      <point x="619.4999999999999" y="-10.0"/>
      <point x="663.0999999999999" y="-3.1999999999999997"/>
      <point x="687.92" y="5.88" type="curve"/>
      <point x="692.8799999999999" y="157.9" type="line"/>
      <point x="687.18" y="156.33999999999997"/>
      <point x="679.1199999999999" y="155.70000000000002"/>
      <point x="673.36" y="155.70000000000002" type="curve" smooth="yes"/>
      <point x="658.6999999999999" y="155.70000000000002"/>
      <point x="652.38" y="163.01999999999998"/>
      <point x="652.38" y="176.52" type="curve" smooth="yes"/>
      <point x="652.38" y="192.62000000000003"/>
      <point x="734.8999999999999" y="712.9799999999999"/>
      <point x="739.1" y="740.0" type="curve"/>
      <point x="524.7399999999998" y="740.0" type="line"/>
      <point x="493.1799999999999" y="542.36" type="line"/>
      <point x="460.6399999999999" y="551.0"/>
      <point x="415.93999999999994" y="557.2"/>
      <point x="366.2199999999999" y="557.2" type="curve" smooth="yes"/>
      <point x="177.95999999999998" y="557.2"/>
      <point x="24.080000000000002" y="448.68000000000006"/>
      <point x="24.080000000000002" y="205.50000000000003" type="curve" smooth="yes"/>
      <point x="24.080000000000002" y="56.86"/>
      <point x="117.75999999999999" y="-10.0"/>
      <point x="238.76" y="-10.0" type="curve" smooth="yes"/>
      <point x="314.9" y="-10.0"/>
      <point x="386.3799999999999" y="16.92"/>
      <point x="439.88" y="52.919999999999995" type="curve"/>
      <point x="467.82" y="14.860000000000001"/>
      <point x="527.3000000000001" y="-10.0"/>
    </contour>
    <contour>
      <point x="324.32000000000005" y="153.76000000000002" type="curve" smooth="yes"/>
      <point x="277.59999999999997" y="153.76000000000002"/>
      <point x="240.8" y="181.08"/>
      <point x="240.8" y="233.29999999999998" type="curve" smooth="yes"/>
      <point x="240.8" y="329.2"/>
      <point x="300.9" y="404.68"/>
      <point x="387.23999999999995" y="404.68" type="curve" smooth="yes"/>
      <point x="417.73999999999995" y="404.68"/>
      <point x="445.88000000000005" y="401.14000000000004"/>
      <point x="469.53999999999996" y="393.86" type="curve"/>
      <point x="435.58" y="180.27999999999997" type="line"/>
      <point x="403.68" y="165.99999999999997"/>
      <point x="360.9" y="153.76000000000002"/>
    </contour>
  </outline>
</glyph>
<glyph name="e" format="2">
  <advance width="672.88"/>
  <unicode hex="0065"/>
  <note>
14 points
</note>
  <anchor x="306.96" y="0.0" name="bottom"/>
  <anchor x="544.4599999999999" y="9.28" name="ogonek"/>
  <anchor x="391.17999999999995" y="546.98" name="top"/>
  <outline>
    <contour>
      <point x="206.04000000000002" y="310.2200000000001" type="curve"/>
      <point x="208.20000000000002" y="208.44" type="line"/>
      <point x="252.22" y="202.5"/>
      <point x="304.13999999999993" y="200.42"/>
      <point x="370.84000000000003" y="204.56" type="curve" smooth="yes"/>
      <point x="557.02" y="217.56000000000003"/>
      <point x="661.08" y="287.9"/>
      <point x="661.08" y="396.35999999999996" type="curve" smooth="yes"/>
      <point x="661.08" y="496.21999999999997"/>
      <point x="561.86" y="556.84"/>
      <point x="403.03999999999996" y="556.84" type="curve" smooth="yes"/>
      <point x="150.54" y="556.84"/>
      <point x="25.64" y="422.3799999999999"/>
      <point x="25.64" y="228.27999999999997" type="curve" smooth="yes"/>
      <point x="25.64" y="75.50000000000001"/>
      <point x="139.99999999999997" y="-10.0"/>
      <point x="335.3" y="-10.0" type="curve" smooth="yes"/>
      <point x="427.12" y="-10.0"/>
      <point x="517.64" y="1.6199999999999997"/>
      <point x="600.8199999999999" y="24.660000000000004" type="curve"/>
      <point x="581.2800000000001" y="176.1" type="line"/>
      <point x="498.8399999999999" y="153.42"/>
      <point x="421.12" y="144.51999999999998"/>
      <point x="380.38000000000005" y="144.51999999999998" type="curve" smooth="yes"/>
      <point x="272.0" y="144.51999999999998"/>
      <point x="240.0" y="168.48"/>
      <point x="240.72000000000003" y="244.7" type="curve" smooth="yes"/>
      <point x="241.44" y="347.3399999999999"/>
      <point x="301.44" y="413.5800000000001"/>
      <point x="381.21999999999997" y="413.58000000000004" type="curve" smooth="yes"/>
      <point x="421.62" y="413.58000000000004"/>
      <point x="441.19999999999993" y="400.43999999999994"/>
      <point x="441.19999999999993" y="374.58" type="curve" smooth="yes"/>
      <point x="440.8399999999999" y="340.22"/>
      <point x="389.79999999999995" y="317.88000000000005"/>
      <point x="300.38" y="310.96000000000004" type="curve" smooth="yes"/>
      <point x="264.99999999999994" y="308.18000000000006"/>
      <point x="231.7" y="306.74"/>
    </contour>
  </outline>
</glyph>
<glyph name="f" format="2">
  <advance width="496.18600000000004"/>
  <unicode hex="0066"/>
  <outline>
    <contour>
      <point x="53.742" y="-220.0" type="curve" smooth="yes"/>
      <point x="171.242" y="-220.0"/>
      <point x="246.284" y="-142.62800000000001"/>
      <point x="269.19199999999995" y="-0.3359999999999985" type="curve" smooth="yes"/>
      <point x="323.80199999999996" y="346.492" type="line"/>
      <point x="482.268" y="346.492" type="line"/>
      <point x="506.33799999999997" y="495.61000000000007" type="line"/>
      <point x="347.27" y="495.61000000000007" type="line"/>
      <point x="356.91599999999994" y="555.0559999999999"/>
      <point x="390.758" y="579.64"/>
      <point x="448.0679999999999" y="579.64" type="curve" smooth="yes"/>
      <point x="484.71" y="579.64"/>
      <point x="529.9599999999999" y="571.9499999999999"/>
      <point x="557.828" y="562.96" type="curve"/>
      <point x="608.418" y="718.13" type="line"/>
      <point x="557.1999999999999" y="737.658"/>
      <point x="491.72399999999993" y="750.0"/>
      <point x="426.40799999999996" y="750.0" type="curve" smooth="yes"/>
      <point x="261.672" y="750.0"/>
      <point x="154.806" y="661.1039999999999"/>
      <point x="132.34999999999997" y="495.61000000000007" type="curve"/>
      <point x="48.41" y="481.02200000000005" type="line"/>
      <point x="26.285999999999994" y="346.492" type="line"/>
      <point x="108.27999999999999" y="346.492" type="line"/>
      <point x="57.386" y="23.293999999999993" type="line" smooth="yes"/>
      <point x="49.476" y="-27.428000000000004"/>
      <point x="31.409999999999997" y="-50.866000000000014"/>
      <point x="0.9719999999999924" y="-50.866000000000014" type="curve" smooth="yes"/>
      <point x="-10.116" y="-50.866000000000014"/>
      <point x="-23.056000000000004" y="-49.28400000000001"/>
      <point x="-35.222" y="-45.292000000000016" type="curve"/>
      <point x="-74.59200000000001" y="-197.828" type="line"/>
      <point x="-35.653999999999996" y="-213.258"/>
      <point x="3.1179999999999843" y="-220.0"/>
    </contour>
  </outline>
</glyph>
<glyph name="g" format="2">
  <advance width="721.46"/>
  <unicode hex="0067"/>
  <note>
16
</note>
  <anchor x="274.84" y="-213.55999999999997" name="bottom"/>
  <anchor x="409.52000000000004" y="547.1999999999999" name="top"/>
  <outline>
    <contour>
      <point x="-10.300000000000002" y="-169.60000000000002" type="line"/>
      <point x="65.96" y="-198.26"/>
      <point x="165.68" y="-220.0"/>
      <point x="287.7200000000001" y="-220.0" type="curve" smooth="yes"/>
      <point x="494.62" y="-220.0"/>
      <point x="603.7599999999999" y="-120.43999999999997"/>
      <point x="633.42" y="67.72" type="curve" smooth="yes"/>
      <point x="705.6199999999999" y="521.48" type="line"/>
      <point x="653.3199999999999" y="537.82"/>
      <point x="505.82000000000005" y="557.1999999999999"/>
      <point x="418.73999999999995" y="557.1999999999999" type="curve" smooth="yes"/>
      <point x="125.72000000000003" y="557.1999999999999"/>
      <point x="24.66" y="411.42"/>
      <point x="24.66" y="210.84" type="curve" smooth="yes"/>
      <point x="24.66" y="84.72000000000001"/>
      <point x="102.66" y="19.099999999999998"/>
      <point x="231.58" y="19.099999999999998" type="curve" smooth="yes"/>
      <point x="276.36" y="19.099999999999998"/>
      <point x="363.0" y="37.139999999999986"/>
      <point x="418.75999999999993" y="70.63999999999997" type="curve"/>
      <point x="415.25999999999993" y="47.999999999999986" type="line" smooth="yes"/>
      <point x="402.21999999999997" y="-38.99999999999998"/>
      <point x="353.62000000000006" y="-60.959999999999994"/>
      <point x="264.8" y="-60.959999999999994" type="curve" smooth="yes"/>
      <point x="189.26" y="-60.959999999999994"/>
      <point x="109.6" y="-43.02000000000001"/>
      <point x="39.839999999999996" y="-21.1" type="curve"/>
    </contour>
    <contour>
      <point x="470.34" y="399.26000000000005" type="curve"/>
      <point x="437.44000000000005" y="191.23999999999998" type="line"/>
      <point x="401.44" y="176.54"/>
      <point x="362.14000000000004" y="166.11999999999998"/>
      <point x="332.61999999999995" y="166.11999999999998" type="curve" smooth="yes"/>
      <point x="274.02000000000004" y="166.11999999999998"/>
      <point x="243.31999999999996" y="196.78"/>
      <point x="243.31999999999996" y="254.17999999999998" type="curve" smooth="yes"/>
      <point x="243.31999999999996" y="336.0"/>
      <point x="295.14" y="410.92"/>
      <point x="388.94" y="410.92" type="curve" smooth="yes"/>
      <point x="426.96" y="410.92"/>
      <point x="452.61999999999995" y="404.38"/>
    </contour>
  </outline>
</glyph>
<glyph name="h" format="2">
  <advance width="707.88"/>
  <unicode hex="0068"/>
  <note>
16
</note>
  <anchor x="321.42799999999994" y="0.0" name="bottom"/>
  <anchor x="374.52302399999996" y="385.12" name="center"/>
  <anchor x="419.116" y="740.0" name="top"/>
  <outline>
    <contour>
      <point x="635.144" y="177.324" type="curve" smooth="yes"/>
      <point x="635.144" y="207.92"/>
      <point x="669.676" y="375.452"/>
      <point x="669.676" y="416.66799999999995" type="curve" smooth="yes"/>
      <point x="669.676" y="495.156"/>
      <point x="619.5920000000001" y="557.2"/>
      <point x="501.61199999999997" y="557.2" type="curve" smooth="yes"/>
      <point x="432.864" y="557.2"/>
      <point x="382.83199999999994" y="539.696"/>
      <point x="305.52" y="499.42" type="curve"/>
      <point x="343.92799999999994" y="740.0" type="line"/>
      <point x="128.42" y="740.0" type="line"/>
      <point x="9.915999999999995" y="0.0" type="line"/>
      <point x="226.068" y="0.0" type="line"/>
      <point x="283.748" y="361.54" type="line"/>
      <point x="321.19199999999995" y="378.71999999999997"/>
      <point x="358.19599999999997" y="390.996"/>
      <point x="390.18799999999993" y="390.996" type="curve" smooth="yes"/>
      <point x="428.49199999999996" y="390.996"/>
      <point x="444.5679999999999" y="372.66"/>
      <point x="444.5679999999999" y="343.644" type="curve" smooth="yes"/>
      <point x="444.5679999999999" y="313.07599999999996"/>
      <point x="410.89599999999996" y="139.188"/>
      <point x="410.89599999999996" y="106.81599999999999" type="curve" smooth="yes"/>
      <point x="410.89599999999996" y="31.208000000000002"/>
      <point x="474.5199999999999" y="-10.0"/>
      <point x="560.3919999999999" y="-10.0" type="curve" smooth="yes"/>
      <point x="598.192" y="-10.0"/>
      <point x="642.992" y="-4.703999999999999"/>
      <point x="671.468" y="3.659999999999999" type="curve"/>
      <point x="676.6399999999999" y="158.46800000000002" type="line"/>
      <point x="670.448" y="156.90800000000002"/>
      <point x="661.4639999999999" y="155.844"/>
      <point x="655.488" y="155.844" type="curve" smooth="yes"/>
      <point x="641.824" y="155.844"/>
      <point x="635.144" y="164.17200000000003"/>
    </contour>
  </outline>
</glyph>
<glyph name="i" format="2">
  <advance width="324.85799999999995"/>
  <unicode hex="0069"/>
  <note>
Ajuster pts sur points
8
</note>
  <anchor x="118.75528799999998" y="0.0" name="bottom"/>
  <anchor x="226.87199999999999" y="0.0" name="ogonek"/>
  <anchor x="205.50071200000002" y="547.2" name="top"/>
  <outline>
    <contour>
      <point x="10.888000000000002" y="0.0" type="line"/>
      <point x="226.87199999999999" y="0.0" type="line"/>
      <point x="312.85" y="547.2" type="line"/>
      <point x="98.02799999999999" y="547.2" type="line"/>
    </contour>
    <contour>
      <point x="241.16199999999998" y="778.8" type="curve" smooth="yes"/>
      <point x="142.20600000000002" y="778.8"/>
      <point x="96.39399999999998" y="735.1999999999999"/>
      <point x="96.17" y="662.0699999999999" type="curve" smooth="yes"/>
      <point x="96.12799999999999" y="612.4580000000001"/>
      <point x="130.724" y="584.582"/>
      <point x="208.522" y="584.582" type="curve" smooth="yes"/>
      <point x="291.36999999999995" y="584.582"/>
      <point x="352.786" y="620.27"/>
      <point x="353.108" y="702.2700000000001" type="curve" smooth="yes"/>
      <point x="353.15" y="751.1819999999999"/>
      <point x="318.59" y="778.8"/>
    </contour>
  </outline>
</glyph>
<glyph name="j" format="2">
  <advance width="343.94599999999997"/>
  <unicode hex="006A"/>
  <note>
idem /i
12
</note>
  <outline>
    <contour>
      <point x="260.852" y="778.8" type="curve" smooth="yes"/>
      <point x="161.29399999999998" y="778.8"/>
      <point x="116.28" y="735.1999999999999"/>
      <point x="116.05600000000001" y="662.0699999999999" type="curve" smooth="yes"/>
      <point x="116.01399999999998" y="612.4580000000001"/>
      <point x="151.27399999999997" y="584.582"/>
      <point x="229.072" y="584.582" type="curve" smooth="yes"/>
      <point x="311.368" y="584.582"/>
      <point x="372.28" y="620.27"/>
      <point x="372.602" y="702.2700000000001" type="curve" smooth="yes"/>
      <point x="372.644" y="751.1819999999999"/>
      <point x="338.28" y="778.8"/>
    </contour>
    <contour>
      <point x="333.4" y="547.2" type="line"/>
      <point x="117.71799999999999" y="547.2" type="line"/>
      <point x="34.553999999999995" y="20.516" type="line" smooth="yes"/>
      <point x="27.218" y="-27.07000000000001"/>
      <point x="13.217999999999993" y="-50.866000000000014"/>
      <point x="-21.770000000000003" y="-50.866000000000014" type="curve" smooth="yes"/>
      <point x="-30.750000000000007" y="-50.866000000000014"/>
      <point x="-44.376000000000005" y="-49.984000000000016"/>
      <point x="-55.766" y="-46.20200000000001" type="curve"/>
      <point x="-97.962" y="-207.68200000000002" type="line"/>
      <point x="-58.618" y="-216.18200000000002"/>
      <point x="-14.175999999999995" y="-220.0"/>
      <point x="10.489999999999995" y="-220.0" type="curve" smooth="yes"/>
      <point x="162.682" y="-220.0"/>
      <point x="225.63599999999997" y="-130.566"/>
      <point x="252.246" y="38.306" type="curve" smooth="yes"/>
    </contour>
  </outline>
</glyph>
<glyph name="k" format="2">
  <advance width="678.4800000000001"/>
  <unicode hex="006B"/>
  <anchor x="308.23999999999995" y="0.0" name="bottom"/>
  <anchor x="236.23999999999998" y="740.0" name="top"/>
  <outline>
    <contour>
      <point x="10.699999999999998" y="0.0" type="line"/>
      <point x="225.55999999999997" y="0.0" type="line"/>
      <point x="343.92" y="740.0" type="line"/>
      <point x="128.05999999999997" y="740.0" type="line"/>
    </contour>
    <contour>
      <point x="573.24" y="-10.0" type="curve" smooth="yes"/>
      <point x="587.4000000000001" y="-10.0"/>
      <point x="601.6999999999998" y="-8.36"/>
      <point x="615.9399999999999" y="-4.859999999999999" type="curve"/>
      <point x="645.76" y="187.28" type="line"/>
      <point x="637.1800000000001" y="186.5"/>
      <point x="629.18" y="186.49999999999997"/>
      <point x="620.24" y="186.86" type="curve" smooth="yes"/>
      <point x="570.9" y="188.65999999999997"/>
      <point x="518.0199999999999" y="207.81999999999996"/>
      <point x="423.9599999999999" y="280.47999999999996" type="curve" smooth="yes"/>
      <point x="267.52000000000004" y="402.37999999999994" type="line"/>
      <point x="233.93999999999997" y="208.4" type="line"/>
      <point x="358.83999999999986" y="94.18000000000002" type="line" smooth="yes"/>
      <point x="432.4" y="26.779999999999998"/>
      <point x="502.93999999999994" y="-10.0"/>
    </contour>
    <contour>
      <point x="423.28" y="262.59999999999997" type="line"/>
      <point x="546.3199999999999" y="341.64000000000004"/>
      <point x="653.4799999999999" y="453.46"/>
      <point x="695.6800000000001" y="545.84" type="curve"/>
      <point x="465.3399999999999" y="557.2" type="line"/>
      <point x="422.04" y="468.22"/>
      <point x="360.88" y="406.46000000000004"/>
      <point x="267.96000000000004" y="337.86" type="curve"/>
    </contour>
  </outline>
</glyph>
<glyph name="l" format="2">
  <advance width="394.406"/>
  <unicode hex="006C"/>
  <anchor x="180.72799999999998" y="0.0" name="bottom"/>
  <anchor x="213.79561199999998" y="385.05" name="center"/>
  <anchor x="235.684" y="740.0" name="top"/>
  <anchor x="380.66" y="740.0" name="topright"/>
  <outline>
    <contour>
      <point x="127.94399999999999" y="740.0" type="line"/>
      <point x="41.507999999999996" y="195.80999999999997" type="line" smooth="yes"/>
      <point x="37.74399999999999" y="170.63599999999997"/>
      <point x="34.644" y="145.982"/>
      <point x="34.644" y="124.502" type="curve" smooth="yes"/>
      <point x="34.644" y="31.522000000000006"/>
      <point x="81.906" y="-10.0"/>
      <point x="181.036" y="-10.0" type="curve" smooth="yes"/>
      <point x="242.95799999999997" y="-10.0"/>
      <point x="304.46000000000004" y="1.721999999999999"/>
      <point x="357.44599999999997" y="19.129999999999995" type="curve"/>
      <point x="362.464" y="180.37800000000001" type="line"/>
      <point x="332.52799999999996" y="173.806"/>
      <point x="313.94" y="170.124"/>
      <point x="294.804" y="170.124" type="curve" smooth="yes"/>
      <point x="270.36" y="170.124"/>
      <point x="259.24" y="180.724"/>
      <point x="259.24" y="200.726" type="curve" smooth="yes"/>
      <point x="259.24" y="208.232"/>
      <point x="260.01599999999996" y="216.58999999999997"/>
      <point x="261.842" y="226.488" type="curve" smooth="yes"/>
      <point x="343.466" y="740.0" type="line"/>
    </contour>
  </outline>
</glyph>
<glyph name="m" format="2">
  <advance width="1034.912"/>
  <unicode hex="006D"/>
  <note>
24&gt;23 points
un point de trop dans la jointure avec 2e jambage
</note>
  <outline>
    <contour>
      <point x="886.678" y="-10.0" type="curve" smooth="yes"/>
      <point x="924.492" y="-10.0"/>
      <point x="970.6579999999999" y="-4.773999999999999"/>
      <point x="998.528" y="3.687999999999999" type="curve"/>
      <point x="1003.6439999999999" y="158.216" type="line"/>
      <point x="997.4800000000001" y="156.656"/>
      <point x="988.37" y="155.718"/>
      <point x="982.4219999999998" y="155.718" type="curve" smooth="yes"/>
      <point x="968.856" y="155.718"/>
      <point x="962.1059999999999" y="164.66600000000003"/>
      <point x="962.1059999999999" y="178.67600000000002" type="curve" smooth="yes"/>
      <point x="962.1059999999999" y="213.95800000000003"/>
      <point x="996.8340000000001" y="377.174"/>
      <point x="996.8340000000001" y="418.062" type="curve" smooth="yes"/>
      <point x="996.8340000000001" y="494.52799999999996"/>
      <point x="943.7739999999999" y="557.2"/>
      <point x="825.6899999999999" y="557.2" type="curve" smooth="yes"/>
      <point x="747.0980000000001" y="557.2"/>
      <point x="698.01" y="531.988"/>
      <point x="621.818" y="481.76" type="curve"/>
      <point x="604.4119999999999" y="525.8219999999999"/>
      <point x="566.0419999999999" y="557.2"/>
      <point x="485.426" y="557.2" type="curve" smooth="yes"/>
      <point x="424.2099999999999" y="557.2"/>
      <point x="362.122" y="535.4599999999999"/>
      <point x="282.512" y="489.58399999999995" type="curve"/>
      <point x="291.48" y="547.2" type="line"/>
      <point x="97.38399999999999" y="547.2" type="line"/>
      <point x="10.901999999999997" y="0.0" type="line"/>
      <point x="226.32600000000002" y="0.0" type="line"/>
      <point x="283.972" y="367.238" type="line"/>
      <point x="313.626" y="382.08799999999997"/>
      <point x="338.72799999999995" y="391.01"/>
      <point x="362.186" y="391.01" type="curve" smooth="yes"/>
      <point x="399.60799999999995" y="391.01"/>
      <point x="417.19" y="370.7"/>
      <point x="417.19" y="337.218" type="curve" smooth="yes"/>
      <point x="417.19" y="320.47399999999993"/>
      <point x="388.98799999999994" y="145.85799999999998"/>
      <point x="365.782" y="0.0" type="curve"/>
      <point x="578.5819999999999" y="0.0" type="line"/>
      <point x="598.1759999999999" y="123.54800000000003"/>
      <point x="615.9720000000001" y="236.294"/>
      <point x="630.764" y="330.02200000000005" type="curve" smooth="yes"/>
      <point x="631.624" y="336.322"/>
      <point x="634.4079999999999" y="357.5"/>
      <point x="635.0299999999999" y="362.29600000000005" type="curve"/>
      <point x="665.6699999999998" y="380.526"/>
      <point x="690.1500000000001" y="389.204"/>
      <point x="716.192" y="389.204" type="curve" smooth="yes"/>
      <point x="755.518" y="389.204"/>
      <point x="770.8519999999999" y="370.238"/>
      <point x="770.8519999999999" y="340.04600000000005" type="curve" smooth="yes"/>
      <point x="770.8519999999999" y="310.472"/>
      <point x="737.866" y="142.63"/>
      <point x="737.866" y="107.576" type="curve" smooth="yes"/>
      <point x="737.866" y="29.631999999999998"/>
      <point x="800.932" y="-10.0"/>
    </contour>
  </outline>
</glyph>
<glyph name="n" format="2">
  <advance width="707.9359999999999"/>
  <unicode hex="006E"/>
  <note>
16
</note>
  <anchor x="323.07599999999996" y="0.0" name="bottom"/>
  <anchor x="390.846" y="547.2" name="top"/>
  <outline>
    <contour>
      <point x="97.38399999999999" y="547.2" type="line"/>
      <point x="10.901999999999997" y="0.0" type="line"/>
      <point x="225.72400000000002" y="0.0" type="line"/>
      <point x="284.132" y="361.68" type="line"/>
      <point x="316.102" y="377.19399999999996"/>
      <point x="357.034" y="391.052"/>
      <point x="390.068" y="391.052" type="curve" smooth="yes"/>
      <point x="427.54599999999994" y="391.052"/>
      <point x="444.98" y="374.452"/>
      <point x="444.98" y="343.05600000000004" type="curve" smooth="yes"/>
      <point x="444.98" y="307.76"/>
      <point x="411.39199999999994" y="148.65"/>
      <point x="411.39199999999994" y="105.512" type="curve" smooth="yes"/>
      <point x="411.39199999999994" y="31.438000000000002"/>
      <point x="474.4720000000001" y="-10.0"/>
      <point x="560.218" y="-10.0" type="curve" smooth="yes"/>
      <point x="598.0319999999999" y="-10.0"/>
      <point x="643.682" y="-4.773999999999999"/>
      <point x="671.552" y="3.687999999999999" type="curve"/>
      <point x="676.668" y="158.216" type="line"/>
      <point x="670.504" y="156.656"/>
      <point x="661.394" y="155.718"/>
      <point x="655.4459999999999" y="155.718" type="curve" smooth="yes"/>
      <point x="641.88" y="155.718"/>
      <point x="635.116" y="163.99"/>
      <point x="635.116" y="177.226" type="curve" smooth="yes"/>
      <point x="635.116" y="207.86399999999998"/>
      <point x="670.102" y="375.368"/>
      <point x="670.102" y="416.51399999999995" type="curve" smooth="yes"/>
      <point x="670.102" y="503.472"/>
      <point x="605.962" y="557.2"/>
      <point x="498.972" y="557.2" type="curve" smooth="yes"/>
      <point x="424.75" y="557.2"/>
      <point x="350.72" y="533.7099999999999"/>
      <point x="285.67" y="489.248" type="curve"/>
      <point x="294.576" y="547.2" type="line"/>
    </contour>
  </outline>
</glyph>
<glyph name="o" format="2">
  <advance width="697.7399999999999"/>
  <unicode hex="006F"/>
  <note>
8
</note>
  <anchor x="308.1599999999999" y="0.0" name="bottom"/>
  <anchor x="349.36000000000007" y="274.58" name="center"/>
  <anchor x="425.1" y="1.1102230246251565e-16" name="ogonek"/>
  <anchor x="380.65999999999997" y="547.1999999999999" name="top"/>
  <anchor x="574.3399999999999" y="538.1799999999998" name="topright"/>
  <outline>
    <contour>
      <point x="337.52" y="-9.639999999999999" type="curve" smooth="yes"/>
      <point x="547.88" y="-9.639999999999999"/>
      <point x="667.0199999999999" y="107.52000000000001"/>
      <point x="669.2599999999999" y="313.00000000000006" type="curve" smooth="yes"/>
      <point x="670.7799999999999" y="481.4400000000001"/>
      <point x="554.38" y="558.34"/>
      <point x="362.96000000000004" y="558.34" type="curve" smooth="yes"/>
      <point x="148.88000000000002" y="558.34"/>
      <point x="30.019999999999992" y="439.5799999999999"/>
      <point x="27.779999999999994" y="235.42" type="curve" smooth="yes"/>
      <point x="26.259999999999998" y="67.26"/>
      <point x="142.1" y="-9.639999999999999"/>
    </contour>
    <contour>
      <point x="338.97999999999996" y="135.56" type="curve" smooth="yes"/>
      <point x="279.08000000000004" y="135.2"/>
      <point x="244.51999999999998" y="162.85999999999999"/>
      <point x="243.79999999999998" y="225.93999999999997" type="curve" smooth="yes"/>
      <point x="242.35999999999999" y="315.8"/>
      <point x="278.42" y="412.41999999999996"/>
      <point x="358.05999999999995" y="413.14" type="curve" smooth="yes"/>
      <point x="416.53999999999996" y="413.5"/>
      <point x="452.2399999999999" y="385.62000000000006"/>
      <point x="452.9599999999999" y="323.52" type="curve" smooth="yes"/>
      <point x="454.39999999999986" y="231.28000000000003"/>
      <point x="418.34" y="136.28"/>
    </contour>
  </outline>
</glyph>
<glyph name="p" format="2">
  <advance width="719.73"/>
  <unicode hex="0070"/>
  <note>
14 point
</note>
  <outline>
    <contour>
      <point x="-21.883999999999997" y="-210.0" type="line"/>
      <point x="192.294" y="-210.0" type="line"/>
      <point x="226.448" y="1.4419999999999993" type="line"/>
      <point x="253.82799999999997" y="-4.2440000000000015"/>
      <point x="294.246" y="-9.57"/>
      <point x="337.3719999999999" y="-9.57" type="curve" smooth="yes"/>
      <point x="580.82" y="-9.57"/>
      <point x="697.048" y="131.39"/>
      <point x="697.048" y="350.53400000000005" type="curve" smooth="yes"/>
      <point x="697.048" y="477.188"/>
      <point x="635.5259999999998" y="557.2"/>
      <point x="506.664" y="557.2" type="curve" smooth="yes"/>
      <point x="421.624" y="557.2"/>
      <point x="358.706" y="531.8340000000001"/>
      <point x="285.89" y="489.0" type="curve"/>
      <point x="293.59000000000003" y="547.62" type="line"/>
      <point x="97.64" y="547.62" type="line"/>
    </contour>
    <contour>
      <point x="333.94599999999997" y="136.668" type="curve" smooth="yes"/>
      <point x="302.748" y="136.668"/>
      <point x="273.94" y="141.85799999999998"/>
      <point x="250.088" y="148.778" type="curve"/>
      <point x="282.792" y="357.0" type="line"/>
      <point x="318.92999999999995" y="374.312"/>
      <point x="361.492" y="388.172"/>
      <point x="400.544" y="388.172" type="curve" smooth="yes"/>
      <point x="450.54" y="388.172"/>
      <point x="479.3880000000001" y="363.54"/>
      <point x="479.3880000000001" y="303.146" type="curve" smooth="yes"/>
      <point x="479.3880000000001" y="214.92"/>
      <point x="420.76" y="136.668"/>
    </contour>
  </outline>
</glyph>
<glyph name="q" format="2">
  <advance width="720.684"/>
  <unicode hex="0071"/>
  <note>
12
</note>
  <outline>
    <contour>
      <point x="705.026" y="522.184" type="line"/>
      <point x="630.3439999999999" y="540.4280000000001"/>
      <point x="511.78000000000003" y="557.2"/>
      <point x="401.07" y="557.2" type="curve" smooth="yes"/>
      <point x="147.464" y="557.2"/>
      <point x="23.121999999999993" y="421.022"/>
      <point x="23.121999999999993" y="201.594" type="curve" smooth="yes"/>
      <point x="23.121999999999993" y="71.632"/>
      <point x="94.83599999999998" y="-10.0"/>
      <point x="236.874" y="-10.0" type="curve" smooth="yes"/>
      <point x="298.448" y="-10.0"/>
      <point x="349.90999999999997" y="10.151999999999997"/>
      <point x="414.538" y="51.32599999999999" type="curve"/>
      <point x="373.15599999999995" y="-210.0" type="line"/>
      <point x="587.4599999999999" y="-210.0" type="line"/>
    </contour>
    <contour>
      <point x="469.026" y="394.16400000000004" type="curve"/>
      <point x="435.59800000000007" y="184.18200000000002" type="line"/>
      <point x="400.12399999999997" y="165.84199999999998"/>
      <point x="360.70599999999996" y="153.868"/>
      <point x="324.056" y="153.868" type="curve" smooth="yes"/>
      <point x="276.564" y="153.868"/>
      <point x="239.506" y="179.284"/>
      <point x="239.506" y="242.252" type="curve" smooth="yes"/>
      <point x="239.506" y="328.352"/>
      <point x="294.52" y="405.41400000000004"/>
      <point x="387.48799999999994" y="405.41400000000004" type="curve" smooth="yes"/>
      <point x="418.98999999999995" y="405.41400000000004"/>
      <point x="446.66999999999996" y="401.0420000000001"/>
    </contour>
  </outline>
</glyph>
<glyph name="r" format="2">
  <advance width="507.66999999999996"/>
  <unicode hex="0072"/>
  <anchor x="114.072" y="0.0" name="bottom"/>
  <anchor x="321.67999999999995" y="547.2" name="top"/>
  <outline>
    <contour>
      <point x="289.662" y="547.2" type="line"/>
      <point x="98.588" y="547.2" type="line"/>
      <point x="10.299999999999997" y="0.0" type="line"/>
      <point x="225.45399999999998" y="0.0" type="line"/>
      <point x="279.50600000000003" y="333.54400000000004" type="line"/>
      <point x="330.094" y="360.758"/>
      <point x="368.24" y="369.338"/>
      <point x="403.982" y="369.338" type="curve" smooth="yes"/>
      <point x="430.926" y="369.338"/>
      <point x="458.182" y="364.69800000000004"/>
      <point x="488.83799999999997" y="357.1" type="curve"/>
      <point x="548.2" y="544.994" type="line"/>
      <point x="522.014" y="552.966"/>
      <point x="494.05999999999995" y="557.2"/>
      <point x="466.704" y="557.2" type="curve" smooth="yes"/>
      <point x="405.09799999999996" y="557.2"/>
      <point x="359.04799999999994" y="534.136"/>
      <point x="277.916" y="471.078" type="curve"/>
    </contour>
  </outline>
</glyph>
<glyph name="s" format="2">
  <advance width="589.0600000000001"/>
  <unicode hex="0073"/>
  <anchor x="276.08" y="0.0" name="bottom"/>
  <anchor x="341.24" y="547.1999999999999" name="top"/>
  <outline>
    <contour>
      <point x="-15.56" y="32.74000000000001" type="line"/>
      <point x="60.85999999999999" y="7.86"/>
      <point x="145.1" y="-10.0"/>
      <point x="253.17999999999995" y="-10.0" type="curve" smooth="yes"/>
      <point x="407.79999999999995" y="-10.0"/>
      <point x="553.0" y="21.680000000000014"/>
      <point x="553.0" y="187.58" type="curve" smooth="yes"/>
      <point x="553.0" y="392.32000000000005"/>
      <point x="232.36" y="312.02"/>
      <point x="232.36" y="385.1" type="curve" smooth="yes"/>
      <point x="232.36" y="406.82"/>
      <point x="261.48" y="414.3"/>
      <point x="327.7" y="414.3" type="curve" smooth="yes"/>
      <point x="387.04" y="414.3"/>
      <point x="468.32000000000005" y="403.02000000000004"/>
      <point x="524.4199999999998" y="384.08000000000004" type="curve"/>
      <point x="567.0999999999999" y="523.68" type="line"/>
      <point x="507.42" y="543.2599999999999"/>
      <point x="433.9599999999999" y="557.1999999999999"/>
      <point x="346.66" y="557.1999999999999" type="curve" smooth="yes"/>
      <point x="161.63999999999996" y="557.1999999999999"/>
      <point x="43.8" y="498.84000000000003"/>
      <point x="43.8" y="361.9600000000001" type="curve" smooth="yes"/>
      <point x="43.8" y="156.04"/>
      <point x="362.28" y="236.50000000000003"/>
      <point x="362.28" y="154.61999999999998" type="curve" smooth="yes"/>
      <point x="362.28" y="133.71999999999997"/>
      <point x="328.53999999999996" y="129.08"/>
      <point x="264.76" y="129.08" type="curve" smooth="yes"/>
      <point x="189.14" y="129.08"/>
      <point x="88.0" y="147.49999999999997"/>
      <point x="28.259999999999998" y="169.22" type="curve"/>
    </contour>
  </outline>
</glyph>
<glyph name="t" format="2">
  <advance width="488.496"/>
  <unicode hex="0074"/>
  <anchor x="230.59" y="0.0" name="bottom"/>
  <anchor x="241.98399999999998" y="277.43600000000004" name="center"/>
  <anchor x="270.42" y="662.1619999999999" name="top"/>
  <anchor x="447.68600000000004" y="781.94" name="topright"/>
  <outline>
    <contour>
      <point x="438.216" y="179.54000000000002" type="line"/>
      <point x="395.2579999999999" y="170.624"/>
      <point x="368.03999999999996" y="164.402"/>
      <point x="343.006" y="164.402" type="curve" smooth="yes"/>
      <point x="307.13599999999997" y="164.402"/>
      <point x="292.308" y="179.33399999999997"/>
      <point x="292.308" y="207.052" type="curve" smooth="yes"/>
      <point x="292.308" y="213.84199999999998"/>
      <point x="292.748" y="221.03"/>
      <point x="293.986" y="229.20399999999998" type="curve" smooth="yes"/>
      <point x="322.164" y="398.278" type="line"/>
      <point x="473.462" y="398.278" type="line"/>
      <point x="499.25200000000007" y="547.2" type="line"/>
      <point x="346.14799999999997" y="547.2" type="line"/>
      <point x="364.752" y="662.1619999999999" type="line"/>
      <point x="175.864" y="662.1619999999999" type="line"/>
      <point x="133.99200000000002" y="547.2" type="line"/>
      <point x="42.284" y="532.772" type="line"/>
      <point x="18.6" y="398.53599999999994" type="line"/>
      <point x="106.39600000000002" y="398.53599999999994" type="line"/>
      <point x="78.04599999999999" y="218.368" type="line" smooth="yes"/>
      <point x="73.326" y="189.832"/>
      <point x="70.59400000000001" y="160.0"/>
      <point x="70.59400000000001" y="137.952" type="curve" smooth="yes"/>
      <point x="70.59400000000001" y="24.354"/>
      <point x="139.85999999999999" y="-10.0"/>
      <point x="237.27399999999997" y="-10.0" type="curve" smooth="yes"/>
      <point x="304.904" y="-10.0"/>
      <point x="362.144" y="1.052"/>
      <point x="429.63999999999993" y="20.026000000000003" type="curve"/>
    </contour>
  </outline>
</glyph>
<glyph name="u" format="2">
  <advance width="707.2800000000001"/>
  <unicode hex="0075"/>
  <note>
15
</note>
  <anchor x="310.076" y="0.0" name="bottom"/>
  <anchor x="665.4699999999999" y="19.522" name="ogonek"/>
  <anchor x="388.69144800000004" y="547.2" name="top"/>
  <anchor x="678.058" y="547.2" name="topright"/>
  <outline>
    <contour>
      <point x="206.34599999999998" y="-10.0" type="curve" smooth="yes"/>
      <point x="274.696" y="-10.0"/>
      <point x="348.89799999999997" y="15.19"/>
      <point x="417.812" y="62.366" type="curve"/>
      <point x="435.82599999999996" y="21.146"/>
      <point x="481.63" y="-10.0"/>
      <point x="542.7119999999999" y="-10.0" type="curve" smooth="yes"/>
      <point x="584.7679999999999" y="-10.0"/>
      <point x="631.86" y="2.6739999999999995"/>
      <point x="665.4699999999999" y="26.144" type="curve"/>
      <point x="669.438" y="158.0" type="line"/>
      <point x="658.962" y="154.634"/>
      <point x="652.148" y="154.21399999999997"/>
      <point x="648.846" y="154.21399999999997" type="curve" smooth="yes"/>
      <point x="636.5819999999999" y="154.21399999999997"/>
      <point x="627.5619999999999" y="161.398"/>
      <point x="627.5619999999999" y="180.616" type="curve" smooth="yes"/>
      <point x="627.5619999999999" y="186.148"/>
      <point x="628.6460000000001" y="196.85"/>
      <point x="685.798" y="547.2" type="curve"/>
      <point x="470.448" y="547.2" type="line"/>
      <point x="413.22400000000005" y="182.288" type="line"/>
      <point x="382.64" y="166.718"/>
      <point x="343.618" y="154.428"/>
      <point x="309.934" y="154.428" type="curve" smooth="yes"/>
      <point x="274.396" y="154.428"/>
      <point x="254.954" y="169.38"/>
      <point x="255.47" y="203.80999999999997" type="curve" smooth="yes"/>
      <point x="260.11400000000003" y="252.554"/>
      <point x="269.79999999999995" y="305.344"/>
      <point x="310.76599999999996" y="547.2" type="curve"/>
      <point x="95.256" y="547.2" type="line"/>
      <point x="40.120000000000005" y="207.796"/>
      <point x="31.703999999999994" y="162.19599999999997"/>
      <point x="31.703999999999994" y="129.5" type="curve" smooth="yes"/>
      <point x="31.703999999999994" y="43.544"/>
      <point x="92.294" y="-10.0"/>
    </contour>
  </outline>
</glyph>
<glyph name="v" format="2">
  <advance width="639.054"/>
  <unicode hex="0076"/>
  <outline>
    <contour>
      <point x="369.77799999999996" y="0.031999999999999584" type="line"/>
      <point x="536.4739999999999" y="206.45800000000003"/>
      <point x="643.4859999999999" y="367.19"/>
      <point x="667.1419999999998" y="547.2" type="curve"/>
      <point x="439.9899999999999" y="547.2" type="line"/>
      <point x="431.75399999999996" y="436.366"/>
      <point x="378.138" y="314.154"/>
      <point x="286.082" y="167.99" type="curve"/>
      <point x="257.086" y="548.1800000000001" type="line"/>
      <point x="29.144" y="547.394" type="line"/>
      <point x="124.26999999999997" y="0.031999999999999584" type="line"/>
    </contour>
  </outline>
</glyph>
<glyph name="w" format="2">
  <advance width="889.238"/>
  <unicode hex="0077"/>
  <note>
15
</note>
  <anchor x="398.29400000000004" y="0.0" name="bottom"/>
  <anchor x="471.7899999999999" y="547.2" name="top"/>
  <outline>
    <contour>
      <point x="690.962" y="0.0" type="line"/>
      <point x="814.3179999999999" y="211.50599999999997"/>
      <point x="904.6499999999999" y="396.554"/>
      <point x="905.0859999999998" y="547.2" type="curve"/>
      <point x="710.7120000000001" y="547.2" type="line"/>
      <point x="706.352" y="434.13800000000003"/>
      <point x="669.8340000000001" y="316.65"/>
      <point x="593.978" y="154.724" type="curve"/>
      <point x="597.726" y="544.922" type="line"/>
      <point x="360.662" y="544.922" type="line"/>
      <point x="321.792" y="391.502"/>
      <point x="279.02399999999994" y="283.368"/>
      <point x="233.434" y="155.736" type="curve"/>
      <point x="238.076" y="548.1800000000001" type="line"/>
      <point x="38.518" y="547.492" type="line"/>
      <point x="71.30599999999998" y="0.0" type="line"/>
      <point x="326.84799999999996" y="0.0" type="line"/>
      <point x="368.38599999999997" y="93.69"/>
      <point x="419.23599999999993" y="226.378"/>
      <point x="445.3179999999999" y="308.532" type="curve"/>
      <point x="455.35999999999996" y="0.0" type="line"/>
    </contour>
  </outline>
</glyph>
<glyph name="x" format="2">
  <advance width="661.1959999999998"/>
  <unicode hex="0078"/>
  <outline>
    <contour>
      <point x="464.33599999999996" y="547.2" type="line"/>
      <point x="445.11999999999995" y="468.53999999999996"/>
      <point x="420.988" y="424.872"/>
      <point x="355.476" y="356.012" type="curve"/>
      <point x="302.424" y="549.7919999999999" type="line"/>
      <point x="71.24400000000001" y="547.208" type="line"/>
      <point x="175.90799999999996" y="282.556" type="line"/>
      <point x="79.55199999999999" y="188.536"/>
      <point x="16.08" y="103.156"/>
      <point x="-18.44" y="0.0" type="curve"/>
      <point x="213.86" y="0.0" type="line"/>
      <point x="239.452" y="85.30000000000001"/>
      <point x="275.256" y="143.952"/>
      <point x="323.08000000000004" y="198.14" type="curve"/>
      <point x="380.13599999999997" y="-1.1279999999999997" type="line"/>
      <point x="615.0" y="0.5519999999999998" type="line"/>
      <point x="501.81199999999995" y="272.58" type="line"/>
      <point x="598.3159999999999" y="364.576"/>
      <point x="652.136" y="447.588"/>
      <point x="691.112" y="547.2" type="curve"/>
    </contour>
  </outline>
</glyph>
<glyph name="y" format="2">
  <advance width="645.5799999999999"/>
  <unicode hex="0079"/>
  <anchor x="466.03999999999996" y="-58.80000000000002" name="bottom"/>
  <anchor x="356.41999999999996" y="547.1999999999999" name="top"/>
  <outline>
    <contour>
      <point x="471.24" y="546.1800000000001" type="line"/>
      <point x="458.62" y="438.78000000000003"/>
      <point x="388.21999999999997" y="285.76"/>
      <point x="302.18" y="141.35999999999999" type="curve"/>
      <point x="235.41999999999996" y="548.6" type="line"/>
      <point x="31.179999999999996" y="547.1799999999998" type="line"/>
      <point x="140.48" y="-2.4200000000000004" type="line"/>
      <point x="215.31999999999996" y="-2.4200000000000004" type="line"/>
      <point x="167.63999999999996" y="-70.08"/>
      <point x="110.5" y="-137.06000000000003"/>
      <point x="46.94" y="-208.85999999999999" type="curve"/>
      <point x="257.04" y="-211.54" type="line"/>
      <point x="447.43999999999994" y="37.200000000000024"/>
      <point x="655.8999999999999" y="361.34"/>
      <point x="673.0599999999998" y="546.76" type="curve"/>
    </contour>
  </outline>
</glyph>
<glyph name="z" format="2">
  <advance width="645.902"/>
  <unicode hex="007A"/>
  <anchor x="288.38599999999997" y="0.0" name="bottom"/>
  <anchor x="326.672" y="275.0" name="center"/>
  <anchor x="369.676" y="547.2" name="top"/>
  <outline>
    <contour>
      <point x="0.37999999999999723" y="0.0" type="line"/>
      <point x="571.866" y="0.0" type="line"/>
      <point x="596.538" y="151.37" type="line"/>
      <point x="310.20799999999997" y="151.37" type="line"/>
      <point x="615.384" y="408.54200000000003" type="line"/>
      <point x="639.712" y="547.2" type="line"/>
      <point x="101.67800000000001" y="547.2" type="line"/>
      <point x="76.14599999999999" y="395.31399999999996" type="line"/>
      <point x="334.5279999999999" y="395.31399999999996" type="line"/>
      <point x="20.784" y="131.95" type="line"/>
    </contour>
  </outline>
</glyph>
<glyph name="braceleft" format="2">
  <advance width="415.512"/>
  <unicode hex="007B"/>
  <outline>
    <contour>
      <point x="40.82" y="-77.83" type="curve" smooth="yes"/>
      <point x="40.82" y="-171.24"/>
      <point x="107.536" y="-210.0"/>
      <point x="197.608" y="-210.0" type="curve" smooth="yes"/>
      <point x="307.628" y="-210.0" type="line"/>
      <point x="329.8059999999999" y="-73.9" type="line"/>
      <point x="277.062" y="-73.9" type="line" smooth="yes"/>
      <point x="242.87599999999998" y="-73.9"/>
      <point x="228.694" y="-57.790000000000006"/>
      <point x="228.694" y="-30.784" type="curve" smooth="yes"/>
      <point x="228.694" y="38.944"/>
      <point x="290.07000000000005" y="93.208"/>
      <point x="290.07000000000005" y="170.62400000000002" type="curve" smooth="yes"/>
      <point x="290.07000000000005" y="206.73999999999998"/>
      <point x="276.046" y="239.044"/>
      <point x="228.696" y="265.28" type="curve"/>
      <point x="294.826" y="297.904"/>
      <point x="330.16999999999996" y="348.752"/>
      <point x="330.16999999999996" y="418.84000000000003" type="curve" smooth="yes"/>
      <point x="330.16999999999996" y="454.97"/>
      <point x="317.48199999999997" y="477.136"/>
      <point x="317.48199999999997" y="522.03" type="curve" smooth="yes"/>
      <point x="317.48199999999997" y="563.328"/>
      <point x="337.37" y="603.9"/>
      <point x="386.36999999999995" y="603.9" type="curve" smooth="yes"/>
      <point x="438.43" y="603.9" type="line"/>
      <point x="460.092" y="740.0" type="line"/>
      <point x="350.2819999999999" y="740.0" type="line" smooth="yes"/>
      <point x="213.52999999999997" y="740.0"/>
      <point x="137.68" y="646.918"/>
      <point x="137.68" y="520.878" type="curve" smooth="yes"/>
      <point x="137.68" y="474.368"/>
      <point x="150.54" y="441.296"/>
      <point x="150.54" y="408.226" type="curve" smooth="yes"/>
      <point x="150.54" y="365.03999999999996"/>
      <point x="133.422" y="333.802"/>
      <point x="95.996" y="333.802" type="curve" smooth="yes"/>
      <point x="80.44200000000001" y="333.802" type="line"/>
      <point x="58.52199999999999" y="196.724" type="line"/>
      <point x="74.09" y="196.724" type="line" smooth="yes"/>
      <point x="102.124" y="196.724"/>
      <point x="111.96799999999999" y="184.27200000000002"/>
      <point x="111.96799999999999" y="162.26" type="curve" smooth="yes"/>
      <point x="111.96799999999999" y="98.842"/>
      <point x="40.82" y="21.380000000000003"/>
    </contour>
  </outline>
</glyph>
<glyph name="bar" format="2">
  <advance width="282.932"/>
  <unicode hex="007C"/>
  <outline>
    <contour>
      <point x="307.2" y="790.258" type="line"/>
      <point x="141.28000000000003" y="790.258" type="line"/>
      <point x="-19.526" y="-210.0" type="line"/>
      <point x="146.05" y="-210.0" type="line"/>
    </contour>
  </outline>
</glyph>
<glyph name="braceright" format="2">
  <advance width="415.512"/>
  <unicode hex="007D"/>
  <outline>
    <contour>
      <point x="371.594" y="607.83" type="curve" smooth="yes"/>
      <point x="371.594" y="701.498"/>
      <point x="304.62" y="740.258"/>
      <point x="214.548" y="740.258" type="curve" smooth="yes"/>
      <point x="104.52799999999999" y="740.258" type="line"/>
      <point x="82.35" y="604.158" type="line"/>
      <point x="132.51399999999998" y="604.158" type="line" smooth="yes"/>
      <point x="166.958" y="604.158"/>
      <point x="181.398" y="587.7900000000001"/>
      <point x="181.398" y="560.784" type="curve" smooth="yes"/>
      <point x="181.398" y="490.54"/>
      <point x="120.02199999999999" y="441.814"/>
      <point x="120.02199999999999" y="358.97999999999996" type="curve" smooth="yes"/>
      <point x="120.02199999999999" y="323.63800000000003"/>
      <point x="133.78799999999998" y="291.334"/>
      <point x="181.654" y="265.356" type="curve"/>
      <point x="115.52399999999997" y="232.47400000000002"/>
      <point x="79.922" y="182.14200000000002"/>
      <point x="79.922" y="111.79600000000002" type="curve" smooth="yes"/>
      <point x="79.922" y="75.66600000000001"/>
      <point x="92.61000000000001" y="53.122"/>
      <point x="92.61000000000001" y="8.744000000000002" type="curve" smooth="yes"/>
      <point x="92.61000000000001" y="-32.554"/>
      <point x="72.97999999999999" y="-73.642"/>
      <point x="23.98" y="-73.642" type="curve" smooth="yes"/>
      <point x="-26.016" y="-73.642" type="line"/>
      <point x="-47.678" y="-210.0" type="line"/>
      <point x="61.873999999999995" y="-210.0" type="line" smooth="yes"/>
      <point x="198.626" y="-210.0"/>
      <point x="274.476" y="-113.564"/>
      <point x="274.476" y="4.219999999999999" type="curve" smooth="yes"/>
      <point x="274.476" y="57.696"/>
      <point x="261.616" y="92.178"/>
      <point x="261.616" y="123.442" type="curve" smooth="yes"/>
      <point x="261.616" y="166.11200000000002"/>
      <point x="279.25" y="196.834"/>
      <point x="316.16" y="196.834" type="curve" smooth="yes"/>
      <point x="331.714" y="196.834" type="line"/>
      <point x="353.63399999999996" y="333.654" type="line"/>
      <point x="338.066" y="333.654" type="line" smooth="yes"/>
      <point x="310.032" y="333.654"/>
      <point x="300.18800000000005" y="346.106"/>
      <point x="300.18800000000005" y="368.118" type="curve" smooth="yes"/>
      <point x="300.18800000000005" y="431.794"/>
      <point x="371.594" y="505.008"/>
    </contour>
  </outline>
</glyph>
<glyph name="asciitilde" format="2">
  <advance width="614.414"/>
  <unicode hex="007E"/>
  <outline>
    <contour>
      <point x="548.0279999999999" y="228.32" type="curve"/>
      <point x="572.84" y="395.982" type="line"/>
      <point x="540.856" y="369.28000000000003"/>
      <point x="503.54200000000003" y="357.48600000000005"/>
      <point x="458.85799999999995" y="357.48600000000005" type="curve" smooth="yes"/>
      <point x="339.14" y="357.48600000000005"/>
      <point x="274.242" y="438.44000000000005"/>
      <point x="190.38000000000002" y="438.44000000000005" type="curve" smooth="yes"/>
      <point x="131.82000000000002" y="438.44000000000005"/>
      <point x="94.14399999999999" y="411.99799999999993"/>
      <point x="81.822" y="403.15000000000003" type="curve"/>
      <point x="54.0" y="235.39" type="line"/>
      <point x="83.668" y="253.8"/>
      <point x="112.62199999999999" y="268.972"/>
      <point x="162.81" y="268.972" type="curve" smooth="yes"/>
      <point x="270.892" y="268.972"/>
      <point x="332.12199999999996" y="188.018"/>
      <point x="442.166" y="188.018" type="curve" smooth="yes"/>
      <point x="476.23799999999994" y="188.018"/>
      <point x="520.538" y="204.15200000000002"/>
    </contour>
  </outline>
</glyph>
<glyph name="cent" format="2">
  <advance width="852.292"/>
  <unicode hex="00A2"/>
  <outline>
    <contour>
      <point x="303.75399999999996" y="-104.656" type="line"/>
      <point x="456.258" y="-104.656" type="line"/>
      <point x="472.118" y="-7.236" type="line"/>
      <point x="542.928" y="-4.468"/>
      <point x="608.5740000000001" y="3.6320000000000014"/>
      <point x="667.236" y="19.724" type="curve"/>
      <point x="666.62" y="176.02599999999998" type="line"/>
      <point x="588.0199999999999" y="162.67399999999998"/>
      <point x="541.3839999999999" y="157.696"/>
      <point x="495.83" y="157.696" type="curve" smooth="yes"/>
      <point x="408.188" y="157.696"/>
      <point x="365.214" y="187.42000000000002"/>
      <point x="365.214" y="239.92000000000002" type="curve" smooth="yes"/>
      <point x="365.214" y="333.246"/>
      <point x="437.272" y="386.152"/>
      <point x="522.028" y="386.152" type="curve" smooth="yes"/>
      <point x="575.668" y="386.152"/>
      <point x="611.752" y="379.93800000000005"/>
      <point x="686.094" y="363.47200000000004" type="curve"/>
      <point x="738.7479999999999" y="528.9860000000001" type="line"/>
      <point x="681.24" y="543.394"/>
      <point x="634.3839999999999" y="553.848"/>
      <point x="562.638" y="555.868" type="curve"/>
      <point x="579.1419999999999" y="651.942" type="line"/>
      <point x="426.6379999999999" y="651.942" type="line"/>
      <point x="407.812" y="540.72" type="line"/>
      <point x="242.98399999999998" y="497.54400000000004"/>
      <point x="142.222" y="361.11400000000003"/>
      <point x="142.222" y="190.23999999999998" type="curve" smooth="yes"/>
      <point x="142.222" y="80.92599999999999"/>
      <point x="203.54799999999997" y="20.578"/>
      <point x="320.936" y="0.5460000000000003" type="curve"/>
    </contour>
  </outline>
</glyph>
<glyph name="sterling" format="2">
  <advance width="852.46"/>
  <unicode hex="00A3"/>
  <outline>
    <contour>
      <point x="84.276" y="0.0" type="line"/>
      <point x="687.976" y="0.0" type="line"/>
      <point x="712.9759999999999" y="158.6" type="line"/>
      <point x="358.21599999999995" y="158.6" type="line"/>
      <point x="401.63199999999995" y="191.99200000000002"/>
      <point x="431.716" y="231.48400000000004"/>
      <point x="431.716" y="288.99999999999994" type="curve" smooth="yes"/>
      <point x="431.716" y="329.404"/>
      <point x="400.408" y="393.28000000000003"/>
      <point x="400.408" y="444.15200000000004" type="curve" smooth="yes"/>
      <point x="400.408" y="508.92400000000004"/>
      <point x="456.956" y="541.36"/>
      <point x="547.1840000000001" y="541.36" type="curve" smooth="yes"/>
      <point x="618.1800000000001" y="541.36"/>
      <point x="671.1719999999999" y="533.8639999999999"/>
      <point x="734.7519999999998" y="512.304" type="curve"/>
      <point x="787.7560000000001" y="668.404" type="line"/>
      <point x="709.412" y="696.48"/>
      <point x="648.3040000000001" y="710.0"/>
      <point x="545.812" y="710.0" type="curve" smooth="yes"/>
      <point x="387.568" y="710.0"/>
      <point x="194.86399999999998" y="640.9680000000001"/>
      <point x="194.86399999999998" y="477.54800000000006" type="curve" smooth="yes"/>
      <point x="194.86399999999998" y="402.272"/>
      <point x="231.98" y="340.508"/>
      <point x="231.98" y="284.064" type="curve" smooth="yes"/>
      <point x="231.98" y="219.82399999999998"/>
      <point x="185.55999999999997" y="175.316"/>
      <point x="104.26400000000001" y="128.5" type="curve"/>
    </contour>
    <contour>
      <point x="120.55199999999999" y="303.53200000000004" type="line"/>
      <point x="624.7479999999999" y="303.672" type="line"/>
      <point x="640.9040000000001" y="404.89200000000005" type="line"/>
      <point x="136.06400000000002" y="404.89200000000005" type="line"/>
    </contour>
  </outline>
</glyph>
<glyph name="currency" format="2">
  <advance width="504.87800000000004"/>
  <unicode hex="00A4"/>
  <outline>
    <contour>
      <point x="115.72999999999999" y="88.66199999999999" type="line"/>
      <point x="192.438" y="160.136" type="line"/>
      <point x="203.602" y="155.616"/>
      <point x="217.152" y="153.474"/>
      <point x="231.75799999999998" y="153.474" type="curve" smooth="yes"/>
      <point x="246.954" y="153.474"/>
      <point x="261.50600000000003" y="155.714"/>
      <point x="275.358" y="160.48000000000002" type="curve"/>
      <point x="330.584" y="88.66199999999999" type="line"/>
      <point x="438.322" y="189.608" type="line"/>
      <point x="393.29999999999995" y="248.956" type="line"/>
      <point x="406.95799999999997" y="273.442"/>
      <point x="415.326" y="301.218"/>
      <point x="415.842" y="332.01800000000003" type="curve" smooth="yes"/>
      <point x="416.358" y="343.79400000000004"/>
      <point x="414.916" y="355.604"/>
      <point x="412.516" y="366.196" type="curve"/>
      <point x="475.648" y="425.544" type="line"/>
      <point x="401.02" y="526.49" type="line"/>
      <point x="323.52599999999995" y="455.446" type="line"/>
      <point x="311.214" y="460.31"/>
      <point x="296.866" y="462.84999999999997"/>
      <point x="280.81" y="462.84999999999997" type="curve" smooth="yes"/>
      <point x="265.94599999999997" y="462.84999999999997"/>
      <point x="251.578" y="460.052"/>
      <point x="238.414" y="455.78999999999996" type="curve"/>
      <point x="185.56400000000002" y="526.49" type="line"/>
      <point x="77.394" y="425.544" type="line"/>
      <point x="119.95599999999999" y="367.95799999999997" type="line"/>
      <point x="105.512" y="344.302"/>
      <point x="97.542" y="316.138"/>
      <point x="97.026" y="286.21000000000004" type="curve" smooth="yes"/>
      <point x="96.50999999999999" y="272.39"/>
      <point x="97.694" y="258.73199999999997"/>
      <point x="100.69600000000001" y="247.096" type="curve"/>
      <point x="39.465999999999994" y="189.608" type="line"/>
    </contour>
    <contour>
      <point x="249.26" y="264.20399999999995" type="curve" smooth="yes"/>
      <point x="228.242" y="264.20399999999995"/>
      <point x="214.712" y="279.006"/>
      <point x="215.486" y="301.01599999999996" type="curve" smooth="yes"/>
      <point x="216.26" y="329.23"/>
      <point x="238.236" y="351.86199999999997"/>
      <point x="263.104" y="351.86199999999997" type="curve" smooth="yes"/>
      <point x="284.766" y="351.86199999999997"/>
      <point x="297.996" y="335.18"/>
      <point x="297.222" y="314.344" type="curve" smooth="yes"/>
      <point x="296.44800000000004" y="283.85"/>
      <point x="273.162" y="264.20399999999995"/>
    </contour>
  </outline>
</glyph>
<glyph name="yen" format="2">
  <advance width="874.78"/>
  <unicode hex="00A5"/>
  <outline>
    <contour>
      <point x="132.54000000000002" y="301.96" type="line"/>
      <point x="335.52" y="301.96" type="line"/>
      <point x="328.04" y="254.06" type="line"/>
      <point x="124.83999999999997" y="254.06" type="line"/>
      <point x="111.53999999999999" y="167.82000000000002" type="line"/>
      <point x="314.74" y="167.82000000000002" type="line"/>
      <point x="287.68" y="0.0" type="line"/>
      <point x="498.0" y="0.0" type="line"/>
      <point x="525.5600000000001" y="167.82000000000002" type="line"/>
      <point x="733.4" y="167.82000000000002" type="line"/>
      <point x="746.56" y="254.06" type="line"/>
      <point x="538.3599999999999" y="254.06" type="line"/>
      <point x="545.8399999999999" y="301.96" type="line"/>
      <point x="754.4" y="301.96" type="line"/>
      <point x="767.7" y="388.28000000000003" type="line"/>
      <point x="559.2800000000001" y="388.28000000000003" type="line"/>
      <point x="864.4000000000001" y="698.2199999999999" type="line"/>
      <point x="649.1" y="701.12" type="line"/>
      <point x="471.4" y="497.85999999999996" type="line"/>
      <point x="354.84" y="701.5600000000001" type="line"/>
      <point x="140.64" y="698.2199999999999" type="line"/>
      <point x="349.17999999999995" y="388.28000000000003" type="line"/>
      <point x="146.48" y="388.28000000000003" type="line"/>
    </contour>
  </outline>
</glyph>
<glyph name="brokenbar" format="2">
  <advance width="284.264"/>
  <unicode hex="00A6"/>
  <outline>
    <contour>
      <point x="243.63000000000002" y="391.0" type="line"/>
      <point x="308.74799999999993" y="790.258" type="line"/>
      <point x="142.82799999999997" y="790.258" type="line"/>
      <point x="77.71" y="391.0" type="line"/>
    </contour>
    <contour>
      <point x="45.334" y="190.258" type="line"/>
      <point x="-19.484" y="-210.0" type="line"/>
      <point x="145.83399999999997" y="-210.0" type="line"/>
      <point x="210.91000000000003" y="190.258" type="line"/>
    </contour>
  </outline>
</glyph>
<glyph name="section" format="2">
  <advance width="612.834"/>
  <unicode hex="00A7"/>
  <outline>
    <contour>
      <point x="28.687999999999995" y="-9.008000000000013" type="curve"/>
      <point x="-39.217999999999996" y="-184.538" type="line"/>
      <point x="23.945999999999994" y="-205.35199999999998"/>
      <point x="96.68799999999999" y="-220.0"/>
      <point x="159.45" y="-220.0" type="curve" smooth="yes"/>
      <point x="386.99999999999994" y="-220.0"/>
      <point x="561.9179999999999" y="-65.146"/>
      <point x="561.9179999999999" y="159.834" type="curve" smooth="yes"/>
      <point x="561.9179999999999" y="319.738"/>
      <point x="448.196" y="404.63"/>
      <point x="448.196" y="489.45599999999996" type="curve" smooth="yes"/>
      <point x="448.196" y="537.124"/>
      <point x="477.4559999999999" y="558.832"/>
      <point x="514.746" y="558.832" type="curve" smooth="yes"/>
      <point x="529.832" y="558.832"/>
      <point x="543.2439999999999" y="554.438"/>
      <point x="559.252" y="548.05" type="curve"/>
      <point x="615.3100000000001" y="731.794" type="line"/>
      <point x="568.3919999999999" y="743.322"/>
      <point x="507.846" y="749.758"/>
      <point x="456.878" y="749.758" type="curve" smooth="yes"/>
      <point x="216.808" y="749.758"/>
      <point x="54.32199999999999" y="596.234"/>
      <point x="54.32199999999999" y="392.03" type="curve" smooth="yes"/>
      <point x="54.32199999999999" y="213.14"/>
      <point x="171.832" y="117.33599999999998"/>
      <point x="171.832" y="24.424" type="curve" smooth="yes"/>
      <point x="171.832" y="-7.448000000000002"/>
      <point x="154.35999999999999" y="-32.70600000000002"/>
      <point x="118.50600000000001" y="-32.70600000000002" type="curve" smooth="yes"/>
      <point x="92.184" y="-32.70600000000002"/>
      <point x="62.00399999999999" y="-23.98"/>
    </contour>
    <contour>
      <point x="381.176" y="629.816" type="curve"/>
      <point x="311.722" y="592.358"/>
      <point x="290.17199999999997" y="529.494"/>
      <point x="290.17199999999997" y="465.99399999999997" type="curve" smooth="yes"/>
      <point x="290.17199999999997" y="353.95799999999997"/>
      <point x="393.676" y="223.05"/>
      <point x="393.676" y="112.62400000000001" type="curve" smooth="yes"/>
      <point x="393.676" y="-4.167999999999985"/>
      <point x="318.50600000000003" y="-113.55199999999999"/>
      <point x="193.334" y="-116.97800000000001" type="curve"/>
      <point x="281.402" y="-92.41"/>
      <point x="331.114" y="-15.404"/>
      <point x="331.114" y="63.451999999999984" type="curve" smooth="yes"/>
      <point x="331.114" y="172.536"/>
      <point x="228.176" y="298.27"/>
      <point x="228.176" y="416.69" type="curve" smooth="yes"/>
      <point x="228.176" y="519.212"/>
      <point x="275.192" y="608.91"/>
    </contour>
  </outline>
</glyph>
<glyph name="copyright" format="2">
  <advance width="847.9339999999999"/>
  <unicode hex="00A9"/>
  <outline>
    <contour>
      <point x="409.2879999999999" y="-10.200000000000001" type="curve" smooth="yes"/>
      <point x="667.732" y="-12.104"/>
      <point x="809.0819999999999" y="133.87199999999999"/>
      <point x="809.0819999999999" y="371.3260000000001" type="curve" smooth="yes"/>
      <point x="809.0819999999999" y="571.8359999999999"/>
      <point x="691.6320000000001" y="707.5219999999999"/>
      <point x="463.542" y="709.4259999999999" type="curve" smooth="yes"/>
      <point x="206.52" y="711.33"/>
      <point x="62.59400000000001" y="567.326"/>
      <point x="62.59400000000001" y="328.1" type="curve" smooth="yes"/>
      <point x="62.59400000000001" y="128.18200000000002"/>
      <point x="179.65999999999997" y="-8.296"/>
    </contour>
    <contour>
      <point x="422.4220000000001" y="158.088" type="curve" smooth="yes"/>
      <point x="483.10800000000006" y="158.088"/>
      <point x="539.5859999999999" y="170.924"/>
      <point x="580.8879999999999" y="187.246" type="curve"/>
      <point x="572.4839999999999" y="275.854" type="line"/>
      <point x="531.7059999999999" y="264.63800000000003"/>
      <point x="488.9879999999999" y="257.326"/>
      <point x="453.48799999999994" y="257.326" type="curve" smooth="yes"/>
      <point x="395.59000000000003" y="257.326"/>
      <point x="366.244" y="282.364"/>
      <point x="366.244" y="329.78799999999995" type="curve" smooth="yes"/>
      <point x="366.244" y="397.554"/>
      <point x="403.088" y="440.906"/>
      <point x="476.0619999999999" y="440.906" type="curve" smooth="yes"/>
      <point x="514.322" y="440.906"/>
      <point x="547.2299999999999" y="437.29799999999994"/>
      <point x="585.764" y="429.09000000000003" type="curve"/>
      <point x="611.3039999999999" y="526.634" type="line"/>
      <point x="574.996" y="537.2620000000001"/>
      <point x="530.3399999999999" y="544.002"/>
      <point x="478.68800000000005" y="544.002" type="curve" smooth="yes"/>
      <point x="341.76199999999994" y="544.002"/>
      <point x="243.55200000000002" y="467.24"/>
      <point x="243.55200000000002" y="322.972" type="curve" smooth="yes"/>
      <point x="243.55200000000002" y="216.082"/>
      <point x="311.9219999999999" y="158.088"/>
    </contour>
    <contour>
      <point x="419.294" y="62.06399999999999" type="curve" smooth="yes"/>
      <point x="229.28999999999994" y="62.06399999999999"/>
      <point x="144.69799999999998" y="163.92000000000002"/>
      <point x="144.69799999999998" y="334.56" type="curve" smooth="yes"/>
      <point x="144.69799999999998" y="523.904"/>
      <point x="242.63199999999998" y="637.358"/>
      <point x="453.78999999999996" y="637.358" type="curve" smooth="yes"/>
      <point x="636.7739999999999" y="637.358"/>
      <point x="726.978" y="535.3059999999999"/>
      <point x="726.978" y="365.07" type="curve" smooth="yes"/>
      <point x="726.978" y="176.12600000000003"/>
      <point x="630.052" y="62.06399999999999"/>
    </contour>
  </outline>
</glyph>
<glyph name="ordfeminine" format="2">
  <advance width="491.568"/>
  <unicode hex="00AA"/>
  <outline>
    <contour>
      <point x="27.253999999999998" y="204.152" type="line"/>
      <point x="436.81999999999994" y="204.152" type="line"/>
      <point x="453.236" y="310.046" type="line"/>
      <point x="43.67" y="310.046" type="line"/>
    </contour>
    <component base="a.superior" xOffset="9.064"/>
  </outline>
</glyph>
<glyph name="logicalnot" format="2">
  <advance width="610.4399999999999"/>
  <unicode hex="00AC"/>
  <outline>
    <contour>
      <point x="58.692" y="299.63200000000006" type="line"/>
      <point x="400.38" y="299.63200000000006" type="line"/>
      <point x="379.432" y="162.466" type="line"/>
      <point x="537.396" y="162.466" type="line"/>
      <point x="585.682" y="464.26200000000006" type="line"/>
      <point x="86.03" y="464.26200000000006" type="line"/>
    </contour>
  </outline>
</glyph>
<glyph name="registered" format="2">
  <advance width="760.9839999999999"/>
  <unicode hex="00AE"/>
  <outline>
    <contour>
      <point x="384.88199999999995" y="209.09599999999998" type="curve" smooth="yes"/>
      <point x="619.1379999999999" y="209.09599999999998"/>
      <point x="757.094" y="360.13399999999996"/>
      <point x="757.094" y="591.914" type="curve" smooth="yes"/>
      <point x="757.094" y="772.748"/>
      <point x="651.6419999999999" y="892.8879999999999"/>
      <point x="462.84799999999996" y="892.8879999999999" type="curve" smooth="yes"/>
      <point x="228.59199999999998" y="892.8879999999999"/>
      <point x="91.832" y="741.3499999999999"/>
      <point x="91.832" y="510.06999999999994" type="curve" smooth="yes"/>
      <point x="91.832" y="329.432"/>
      <point x="195.892" y="209.09599999999998"/>
    </contour>
    <contour>
      <point x="393.02599999999995" y="279.10200000000003" type="curve" smooth="yes"/>
      <point x="243.302" y="279.10200000000003"/>
      <point x="165.74599999999998" y="375.156"/>
      <point x="165.74599999999998" y="509.97999999999996" type="curve" smooth="yes"/>
      <point x="165.74599999999998" y="711.51"/>
      <point x="272.714" y="822.578"/>
      <point x="454.90000000000003" y="822.578" type="curve" smooth="yes"/>
      <point x="604.6239999999999" y="822.578"/>
      <point x="683.18" y="726.828"/>
      <point x="683.18" y="591.504" type="curve" smooth="yes"/>
      <point x="683.18" y="389.97400000000005"/>
      <point x="575.0160000000001" y="279.10200000000003"/>
    </contour>
    <contour>
      <point x="244.528" y="387.93000000000006" type="line"/>
      <point x="348.9200000000001" y="387.93000000000006" type="line"/>
      <point x="365.388" y="490.33199999999994" type="line"/>
      <point x="378.284" y="490.048"/>
      <point x="391.36799999999994" y="489.568"/>
      <point x="406.70799999999997" y="489.806" type="curve"/>
      <point x="484.5059999999999" y="514.44" type="line"/>
      <point x="551.3179999999999" y="514.4459999999999"/>
      <point x="607.8259999999998" y="546.8679999999999"/>
      <point x="607.8259999999998" y="634.188" type="curve" smooth="yes"/>
      <point x="607.8259999999998" y="694.8380000000001"/>
      <point x="564.4179999999999" y="724.1360000000001"/>
      <point x="450.674" y="724.1360000000001" type="curve" smooth="yes"/>
      <point x="420.36" y="724.1360000000001"/>
      <point x="369.28" y="722.874"/>
      <point x="297.43399999999997" y="718.17" type="curve"/>
    </contour>
    <contour>
      <point x="414.868" y="560.03" type="curve" smooth="yes"/>
      <point x="405.32199999999995" y="560.03"/>
      <point x="397.94" y="560.7719999999999"/>
      <point x="376.93800000000005" y="561.072" type="curve"/>
      <point x="389.622" y="642.644" type="line"/>
      <point x="419.06199999999995" y="643.478"/>
      <point x="424.5379999999999" y="643.978"/>
      <point x="446.45" y="643.978" type="curve" smooth="yes"/>
      <point x="487.544" y="643.978"/>
      <point x="500.3299999999999" y="636.468"/>
      <point x="500.3299999999999" y="617.948" type="curve" smooth="yes"/>
      <point x="500.3299999999999" y="580.1999999999999"/>
      <point x="485.76599999999996" y="560.03"/>
    </contour>
    <contour>
      <point x="561.7440000000001" y="383.248" type="curve" smooth="yes"/>
      <point x="565.038" y="383.248"/>
      <point x="572.1659999999999" y="383.764"/>
      <point x="576.4099999999999" y="385.038" type="curve"/>
      <point x="590.2639999999999" y="481.89400000000006" type="line"/>
      <point x="587.8679999999999" y="481.91"/>
      <point x="585.3639999999999" y="481.91"/>
      <point x="582.902" y="481.91" type="curve" smooth="yes"/>
      <point x="566.654" y="481.91"/>
      <point x="528.5500000000001" y="500.566"/>
      <point x="503.09000000000003" y="530.6260000000001" type="curve"/>
      <point x="386.3179999999999" y="501.36799999999994" type="line"/>
      <point x="444.162" y="426.584"/>
      <point x="497.38400000000007" y="383.248"/>
    </contour>
  </outline>
</glyph>
<glyph name="degree" format="2">
  <advance width="396.92999999999995"/>
  <unicode hex="00B0"/>
  <outline>
    <contour>
      <point x="216.45999999999998" y="355.396" type="curve" smooth="yes"/>
      <point x="329.592" y="355.396"/>
      <point x="404.408" y="453.778"/>
      <point x="404.408" y="570.674" type="curve" smooth="yes"/>
      <point x="404.408" y="644.372"/>
      <point x="366.32000000000005" y="711.316"/>
      <point x="262.348" y="711.316" type="curve" smooth="yes"/>
      <point x="149.58599999999998" y="711.316"/>
      <point x="74.33800000000001" y="612.932"/>
      <point x="74.33800000000001" y="496.232" type="curve" smooth="yes"/>
      <point x="74.33800000000001" y="421.78200000000004"/>
      <point x="113.47800000000001" y="355.396"/>
    </contour>
    <contour>
      <point x="231.70800000000003" y="481.98400000000004" type="curve" smooth="yes"/>
      <point x="209.82999999999998" y="481.98400000000004"/>
      <point x="197.894" y="497.24800000000005"/>
      <point x="197.894" y="519.596" type="curve" smooth="yes"/>
      <point x="197.894" y="554.4540000000001"/>
      <point x="217.31799999999998" y="583.6959999999999"/>
      <point x="246.77999999999997" y="583.6959999999999" type="curve" smooth="yes"/>
      <point x="269.11199999999997" y="583.6959999999999"/>
      <point x="280.852" y="568.3480000000001"/>
      <point x="280.852" y="546.0619999999999" type="curve" smooth="yes"/>
      <point x="280.852" y="511.81199999999995"/>
      <point x="260.974" y="481.98400000000004"/>
    </contour>
  </outline>
</glyph>
<glyph name="plusminus" format="2">
  <advance width="611.728"/>
  <unicode hex="00B1"/>
  <outline>
    <contour>
      <point x="512.834" y="9.758" type="line"/>
      <point x="540.1719999999999" y="177.01000000000002" type="line"/>
      <point x="378.642" y="177.01000000000002" type="line"/>
      <point x="396.752" y="290.056" type="line"/>
      <point x="558.24" y="290.056" type="line"/>
      <point x="585.578" y="457.308" type="line"/>
      <point x="424.09" y="457.308" type="line"/>
      <point x="444.36199999999997" y="585.1800000000001" type="line"/>
      <point x="266.78999999999996" y="585.1800000000001" type="line"/>
      <point x="245.35600000000002" y="457.308" type="line"/>
      <point x="85.59" y="457.308" type="line"/>
      <point x="58.252" y="290.056" type="line"/>
      <point x="219.18" y="290.056" type="line"/>
      <point x="199.866" y="177.01000000000002" type="line"/>
      <point x="40.184" y="177.01000000000002" type="line"/>
      <point x="12.845999999999997" y="9.758" type="line"/>
    </contour>
  </outline>
</glyph>
<glyph name="uni00B2" format="2">
  <advance width="494.69"/>
  <unicode hex="00B2"/>
  <outline>
    <contour>
      <point x="54.97999999999998" y="369.774" type="line"/>
      <point x="472.04799999999994" y="369.774" type="line"/>
      <point x="488.54400000000004" y="462.384" type="line"/>
      <point x="304.308" y="462.384" type="line"/>
      <point x="394.554" y="512.316"/>
      <point x="473.768" y="572.868"/>
      <point x="473.768" y="660.306" type="curve" smooth="yes"/>
      <point x="473.768" y="740.274"/>
      <point x="390.392" y="773.064"/>
      <point x="305.304" y="773.064" type="curve" smooth="yes"/>
      <point x="243.33999999999997" y="773.064"/>
      <point x="157.042" y="754.0219999999999"/>
      <point x="106.11999999999998" y="727.776" type="curve"/>
      <point x="133.088" y="629.528" type="line"/>
      <point x="175.598" y="650.324"/>
      <point x="214.99800000000002" y="661.174"/>
      <point x="248.91999999999996" y="661.174" type="curve" smooth="yes"/>
      <point x="281.95399999999995" y="661.174"/>
      <point x="305.392" y="646.918"/>
      <point x="305.392" y="621.014" type="curve" smooth="yes"/>
      <point x="305.15" y="559.7299999999999"/>
      <point x="221.328" y="502.65000000000003"/>
      <point x="66.418" y="445.00600000000003" type="curve"/>
    </contour>
  </outline>
</glyph>
<glyph name="uni00B3" format="2">
  <advance width="498.1099999999999"/>
  <unicode hex="00B3"/>
  <outline>
    <contour>
      <point x="45.510000000000005" y="395.16" type="line"/>
      <point x="99.46000000000001" y="371.62"/>
      <point x="173.15" y="363.14"/>
      <point x="245.27" y="363.14" type="curve" smooth="yes"/>
      <point x="371.66999999999996" y="363.14"/>
      <point x="498.43999999999994" y="394.81"/>
      <point x="498.43999999999994" y="498.68" type="curve" smooth="yes"/>
      <point x="498.43999999999994" y="535.9999999999999"/>
      <point x="473.53999999999996" y="564.55"/>
      <point x="428.92999999999995" y="577.4200000000001" type="curve"/>
      <point x="478.9999999999999" y="592.7099999999999"/>
      <point x="516.2199999999999" y="624.28"/>
      <point x="516.2199999999999" y="675.22" type="curve" smooth="yes"/>
      <point x="516.2199999999999" y="735.08"/>
      <point x="440.29" y="773.5799999999999"/>
      <point x="306.46" y="773.5799999999999" type="curve" smooth="yes"/>
      <point x="235.36999999999998" y="773.5799999999999"/>
      <point x="155.22000000000003" y="761.71"/>
      <point x="116.03999999999999" y="746.7099999999999" type="curve"/>
      <point x="121.18" y="654.31" type="line"/>
      <point x="168.54" y="664.8699999999999"/>
      <point x="227.41" y="670.29"/>
      <point x="273.14" y="670.29" type="curve" smooth="yes"/>
      <point x="332.47999999999996" y="670.29"/>
      <point x="368.92999999999995" y="660.9300000000001"/>
      <point x="368.92999999999995" y="643.26" type="curve" smooth="yes"/>
      <point x="368.92999999999995" y="621.3"/>
      <point x="339.03" y="611.01"/>
      <point x="269.15" y="611.01" type="curve" smooth="yes"/>
      <point x="180.3" y="611.01" type="line"/>
      <point x="165.4" y="527.9999999999999" type="line"/>
      <point x="241.93999999999994" y="527.9999999999999" type="line" smooth="yes"/>
      <point x="333.03" y="527.9999999999999"/>
      <point x="355.02000000000004" y="515.1899999999999"/>
      <point x="355.02000000000004" y="496.53999999999996" type="curve" smooth="yes"/>
      <point x="355.02000000000004" y="472.76"/>
      <point x="312.88" y="460.84"/>
      <point x="240.75999999999996" y="460.84" type="curve" smooth="yes"/>
      <point x="182.45999999999998" y="460.84"/>
      <point x="124.44" y="471.03999999999996"/>
      <point x="87.54" y="484.40999999999997" type="curve"/>
    </contour>
  </outline>
</glyph>
<glyph name="uni00B5" format="2">
  <advance width="709.6659999999999"/>
  <unicode hex="00B5"/>
  <outline>
    <contour>
      <point x="-22.174" y="-210.0" type="line"/>
      <point x="192.08999999999997" y="-210.0" type="line"/>
      <point x="226.33" y="2.431999999999995" type="line"/>
      <point x="234.652" y="-5.239999999999998"/>
      <point x="247.42" y="-10.0"/>
      <point x="264.632" y="-10.0" type="curve" smooth="yes"/>
      <point x="313.804" y="-10.0"/>
      <point x="370.72" y="13.384"/>
      <point x="422.5199999999999" y="59.27" type="curve"/>
      <point x="440.534" y="20.630000000000003"/>
      <point x="485.306" y="-10.0"/>
      <point x="545.0980000000001" y="-10.0" type="curve" smooth="yes"/>
      <point x="587.154" y="-10.0"/>
      <point x="634.246" y="2.6739999999999995"/>
      <point x="667.856" y="26.144" type="curve"/>
      <point x="671.824" y="158.0" type="line"/>
      <point x="661.348" y="154.634"/>
      <point x="654.534" y="154.21399999999997"/>
      <point x="651.232" y="154.21399999999997" type="curve" smooth="yes"/>
      <point x="638.968" y="154.21399999999997"/>
      <point x="629.948" y="161.398"/>
      <point x="629.948" y="180.616" type="curve" smooth="yes"/>
      <point x="629.948" y="186.148"/>
      <point x="631.0319999999999" y="196.85"/>
      <point x="688.184" y="547.2" type="curve"/>
      <point x="472.83400000000006" y="547.2" type="line"/>
      <point x="415.61000000000007" y="182.288" type="line"/>
      <point x="385.02599999999995" y="166.718"/>
      <point x="345.66799999999995" y="154.428"/>
      <point x="312.236" y="154.428" type="curve" smooth="yes"/>
      <point x="276.698" y="154.428"/>
      <point x="257.298" y="169.16999999999996"/>
      <point x="257.81399999999996" y="203.6" type="curve" smooth="yes"/>
      <point x="263.748" y="252.512"/>
      <point x="273.068" y="311.05600000000004"/>
      <point x="313.152" y="547.2" type="curve"/>
      <point x="97.64200000000001" y="547.2" type="line"/>
    </contour>
  </outline>
</glyph>
<glyph name="paragraph" format="2">
  <advance width="730.718"/>
  <unicode hex="00B6"/>
  <outline>
    <contour>
      <point x="430.812" y="-210.0" type="line"/>
      <point x="589.938" y="-210.0" type="line"/>
      <point x="741.3139999999999" y="740.0" type="line"/>
      <point x="582.1879999999999" y="740.0" type="line"/>
    </contour>
    <contour>
      <point x="288.46999999999997" y="328.322" type="line"/>
      <point x="261.582" y="335.13599999999997"/>
      <point x="243.34199999999998" y="363.09400000000005"/>
      <point x="243.34199999999998" y="407.974" type="curve" smooth="yes"/>
      <point x="243.34199999999998" y="478.92199999999997"/>
      <point x="268.842" y="571.5060000000001"/>
      <point x="352.02599999999995" y="572.568" type="curve"/>
      <point x="227.902" y="-210.0" type="line"/>
      <point x="387.028" y="-210.0" type="line"/>
      <point x="538.404" y="740.0" type="line"/>
      <point x="425.024" y="740.0" type="line" smooth="yes"/>
      <point x="195.11999999999998" y="740.0"/>
      <point x="70.432" y="622.578"/>
      <point x="70.432" y="407.386" type="curve" smooth="yes"/>
      <point x="70.432" y="293.404"/>
      <point x="130.35199999999998" y="224.642"/>
      <point x="252.07999999999998" y="210.134" type="curve"/>
    </contour>
  </outline>
</glyph>
<glyph name="periodcentered" format="2">
  <advance width="305.276"/>
  <unicode hex="00B7"/>
  <outline>
    <contour>
      <point x="41.175999999999995" y="293.18" type="curve" smooth="yes"/>
      <point x="40.895999999999994" y="241.544"/>
      <point x="72.91999999999999" y="213.74399999999997"/>
      <point x="142.39999999999995" y="213.74399999999997" type="curve" smooth="yes"/>
      <point x="227.624" y="213.74399999999997"/>
      <point x="275.564" y="263.18800000000005"/>
      <point x="275.844" y="337.148" type="curve" smooth="yes"/>
      <point x="276.124" y="389.50000000000006"/>
      <point x="243.95999999999995" y="417.30000000000007"/>
      <point x="175.34" y="417.30000000000007" type="curve" smooth="yes"/>
      <point x="91.25599999999999" y="417.30000000000007"/>
      <point x="41.455999999999996" y="364.704"/>
    </contour>
  </outline>
</glyph>
<glyph name="uni00B9" format="2">
  <advance width="449.964"/>
  <unicode hex="00B9"/>
  <outline>
    <contour>
      <point x="60.622" y="370.0" type="line"/>
      <point x="439.596" y="370.0" type="line"/>
      <point x="456.30199999999996" y="464.99" type="line"/>
      <point x="352.134" y="464.99" type="line"/>
      <point x="401.45000000000005" y="765.676" type="line"/>
      <point x="315.81399999999996" y="765.676" type="line"/>
      <point x="95.602" y="689.208" type="line"/>
      <point x="109.378" y="582.304" type="line"/>
      <point x="221.84799999999998" y="622.196" type="line"/>
      <point x="194.868" y="464.99" type="line"/>
      <point x="76.756" y="464.99" type="line"/>
    </contour>
  </outline>
</glyph>
<glyph name="ordmasculine" format="2">
  <advance width="467.976"/>
  <unicode hex="00BA"/>
  <outline>
    <contour>
      <point x="27.323999999999998" y="204.152" type="line"/>
      <point x="418.678" y="204.152" type="line"/>
      <point x="435.05199999999996" y="310.046" type="line"/>
      <point x="43.698" y="310.046" type="line"/>
    </contour>
    <component base="o.superior" xOffset="8.42"/>
  </outline>
</glyph>
<glyph name="AE" format="2">
  <advance width="1214.1"/>
  <unicode hex="00C6"/>
  <anchor x="584.627904" y="0.0" name="bottom"/>
  <anchor x="754.268" y="700.0" name="top"/>
  <outline>
    <contour>
      <point x="483.6679999999999" y="0.0" type="line"/>
      <point x="1136.4959999999996" y="0.0" type="line"/>
      <point x="1164.2119999999998" y="169.368" type="line"/>
      <point x="718.324" y="169.368" type="line"/>
      <point x="735.1479999999999" y="275.428" type="line"/>
      <point x="1131.3319999999999" y="275.428" type="line"/>
      <point x="1157.0320000000002" y="429.476" type="line"/>
      <point x="760.492" y="429.476" type="line"/>
      <point x="776.4760000000001" y="529.552" type="line"/>
      <point x="1200.288" y="529.552" type="line"/>
      <point x="1228.5759999999998" y="700.0" type="line"/>
      <point x="464.84799999999996" y="700.0" type="line"/>
      <point x="-43.300000000000004" y="0.0" type="line"/>
      <point x="205.37199999999999" y="0.0" type="line"/>
      <point x="320.88800000000003" y="162.92" type="line"/>
      <point x="509.364" y="162.92" type="line"/>
    </contour>
    <contour>
      <point x="419.384" y="316.424" type="line"/>
      <point x="572.2679999999999" y="560.464" type="line"/>
      <point x="532.712" y="316.424" type="line"/>
    </contour>
  </outline>
</glyph>
<glyph name="multiply" format="2">
  <advance width="540.9399999999999"/>
  <unicode hex="00D7"/>
  <outline>
    <contour>
      <point x="123.46199999999999" y="93.39999999999999" type="line"/>
      <point x="261.608" y="210.724" type="line"/>
      <point x="368.24600000000004" y="84.63599999999998" type="line"/>
      <point x="487.1619999999999" y="211.37" type="line"/>
      <point x="395.09000000000003" y="320.112" type="line"/>
      <point x="522.764" y="429.54" type="line"/>
      <point x="433.01" y="549.75" type="line"/>
      <point x="294.7099999999999" y="431.418" type="line"/>
      <point x="186.588" y="556.638" type="line"/>
      <point x="69.17800000000001" y="435.3499999999999" type="line"/>
      <point x="163.384" y="322.324" type="line"/>
      <point x="32.918" y="210.6" type="line"/>
    </contour>
  </outline>
</glyph>
<glyph name="Oslash" format="2">
  <advance width="881.8199999999998"/>
  <unicode hex="00D8"/>
  <anchor x="498.2" y="700.0" name="top"/>
  <outline>
    <contour>
      <point x="941.7799999999996" y="717.2" type="line"/>
      <point x="763.9399999999999" y="717.2" type="line"/>
      <point x="638.58" y="604.0" type="line"/>
      <point x="636.6400000000001" y="603.8599999999999" type="line"/>
      <point x="181.46" y="185.51999999999998" type="line"/>
      <point x="179.37999999999997" y="185.38" type="line"/>
      <point x="-36.779999999999994" y="-13.64" type="line"/>
      <point x="140.34" y="-13.64" type="line"/>
      <point x="267.82" y="102.75999999999999" type="line"/>
      <point x="269.76" y="102.89999999999998" type="line"/>
      <point x="737.6599999999999" y="528.44" type="line"/>
      <point x="739.3799999999999" y="528.58" type="line"/>
    </contour>
    <contour>
      <point x="421.35999999999996" y="-8.280000000000001" type="curve" smooth="yes"/>
      <point x="699.5799999999998" y="-8.280000000000001"/>
      <point x="855.5999999999999" y="145.38"/>
      <point x="859.56" y="403.74" type="curve" smooth="yes"/>
      <point x="862.4399999999998" y="601.24"/>
      <point x="739.1999999999998" y="708.42"/>
      <point x="483.64000000000004" y="708.42" type="curve" smooth="yes"/>
      <point x="205.42" y="708.42"/>
      <point x="49.39999999999999" y="554.9"/>
      <point x="45.44" y="296.26" type="curve" smooth="yes"/>
      <point x="42.56" y="98.76"/>
      <point x="165.79999999999998" y="-8.280000000000001"/>
    </contour>
    <contour>
      <point x="434.18" y="148.64000000000001" type="curve" smooth="yes"/>
      <point x="319.4199999999999" y="148.64000000000001"/>
      <point x="266.0" y="194.47999999999996"/>
      <point x="266.0" y="299.38" type="curve" smooth="yes"/>
      <point x="266.0" y="449.44"/>
      <point x="346.84" y="551.5000000000001"/>
      <point x="471.37999999999994" y="551.5000000000001" type="curve" smooth="yes"/>
      <point x="585.3599999999999" y="551.5000000000001"/>
      <point x="639.0" y="505.66000000000014"/>
      <point x="639.0" y="400.40000000000003" type="curve" smooth="yes"/>
      <point x="639.0" y="253.14000000000001"/>
      <point x="558.44" y="148.64000000000001"/>
    </contour>
  </outline>
</glyph>
<glyph name="Thorn" format="2">
  <advance width="853.19"/>
  <unicode hex="00DE"/>
  <outline>
    <contour>
      <point x="20.35" y="0.0" type="line"/>
      <point x="245.32" y="0.0" type="line"/>
      <point x="262.14" y="101.03999999999999" type="line"/>
      <point x="339.4199999999999" y="97.18"/>
      <point x="366.95000000000005" y="96.25"/>
      <point x="408.68999999999994" y="96.25" type="curve" smooth="yes"/>
      <point x="721.6599999999999" y="96.25"/>
      <point x="846.77" y="189.57999999999998"/>
      <point x="846.77" y="400.37000000000006" type="curve" smooth="yes"/>
      <point x="846.77" y="557.06"/>
      <point x="756.05" y="633.11"/>
      <point x="479.91999999999996" y="633.11" type="curve" smooth="yes"/>
      <point x="454.84" y="633.11"/>
      <point x="413.11" y="632.0400000000001"/>
      <point x="348.19999999999993" y="630.6999999999999" type="curve"/>
      <point x="360.04999999999995" y="700.0" type="line"/>
      <point x="135.08" y="700.0" type="line"/>
    </contour>
    <contour>
      <point x="397.72999999999996" y="264.32" type="curve" smooth="yes"/>
      <point x="364.31999999999994" y="264.32"/>
      <point x="343.7199999999999" y="264.89"/>
      <point x="290.08" y="268.46" type="curve"/>
      <point x="320.83000000000004" y="462.49" type="line"/>
      <point x="404.36999999999995" y="466.40999999999997"/>
      <point x="419.66999999999996" y="467.05"/>
      <point x="471.33" y="467.05" type="curve" smooth="yes"/>
      <point x="580.71" y="467.05"/>
      <point x="614.9200000000001" y="434.03999999999996"/>
      <point x="614.9200000000001" y="385.55" type="curve" smooth="yes"/>
      <point x="614.9200000000001" y="299.25999999999993"/>
      <point x="569.3199999999999" y="264.32"/>
    </contour>
  </outline>
</glyph>
<glyph name="germandbls" format="2">
  <advance width="855.98"/>
  <unicode hex="00DF"/>
  <outline>
    <contour>
      <point x="55.724000000000004" y="15.551999999999994" type="line" smooth="yes"/>
      <point x="48.815999999999995" y="-27.592000000000006"/>
      <point x="31.344" y="-50.640000000000015"/>
      <point x="2.447999999999995" y="-50.640000000000015" type="curve" smooth="yes"/>
      <point x="-8.828000000000007" y="-50.640000000000015"/>
      <point x="-22.308000000000003" y="-49.07200000000002"/>
      <point x="-35.348000000000006" y="-44.94400000000002" type="curve"/>
      <point x="-74.532" y="-197.60799999999998" type="line"/>
      <point x="-35.88800000000001" y="-213.416"/>
      <point x="4.851999999999985" y="-220.0"/>
      <point x="55.044000000000004" y="-220.0" type="curve" smooth="yes"/>
      <point x="170.98799999999997" y="-220.0"/>
      <point x="240.324" y="-143.78"/>
      <point x="261.27199999999993" y="-9.939999999999998" type="curve" smooth="yes"/>
      <point x="337.644" y="479.276" type="line" smooth="yes"/>
      <point x="351.32" y="564.604"/>
      <point x="418.56399999999996" y="596.764"/>
      <point x="526.12" y="596.764" type="curve" smooth="yes"/>
      <point x="607.8359999999999" y="596.764"/>
      <point x="632.608" y="581.0039999999999"/>
      <point x="632.608" y="562.7080000000001" type="curve" smooth="yes"/>
      <point x="632.608" y="542.4519999999999"/>
      <point x="618.856" y="532.3040000000001"/>
      <point x="526.34" y="513.8960000000001" type="curve" smooth="yes"/>
      <point x="424.84400000000005" y="493.21999999999997"/>
      <point x="376.46400000000006" y="447.492"/>
      <point x="376.46400000000006" y="350.004" type="curve" smooth="yes"/>
      <point x="376.46400000000006" y="264.552"/>
      <point x="423.90000000000003" y="222.604"/>
      <point x="529.1759999999999" y="202.85999999999999" type="curve" smooth="yes"/>
      <point x="615.7959999999999" y="185.74"/>
      <point x="636.8719999999998" y="179.316"/>
      <point x="636.8719999999998" y="156.70400000000004" type="curve" smooth="yes"/>
      <point x="636.8719999999998" y="139.22000000000003"/>
      <point x="610.82" y="127.712"/>
      <point x="562.916" y="127.712" type="curve" smooth="yes"/>
      <point x="501.224" y="127.712"/>
      <point x="409.70400000000006" y="142.136"/>
      <point x="351.012" y="159.75199999999998" type="curve"/>
      <point x="312.56399999999996" y="25.403999999999996" type="line"/>
      <point x="382.716" y="3.4879999999999987"/>
      <point x="462.252" y="-9.996"/>
      <point x="543.5759999999999" y="-9.996" type="curve" smooth="yes"/>
      <point x="752.2760000000001" y="-9.996"/>
      <point x="840.9519999999999" y="51.272"/>
      <point x="840.9519999999999" y="177.12400000000002" type="curve" smooth="yes"/>
      <point x="840.9519999999999" y="265.44"/>
      <point x="792.9440000000001" y="313.144"/>
      <point x="687.0120000000001" y="329.448" type="curve" smooth="yes"/>
      <point x="587.6320000000001" y="344.168"/>
      <point x="567.908" y="350.63199999999995"/>
      <point x="567.908" y="371.0" type="curve" smooth="yes"/>
      <point x="567.908" y="389.572"/>
      <point x="585.464" y="394.15200000000004"/>
      <point x="668.836" y="408.652" type="curve" smooth="yes"/>
      <point x="781.836" y="427.75600000000003"/>
      <point x="819.4000000000001" y="481.30800000000005"/>
      <point x="819.4000000000001" y="573.604" type="curve" smooth="yes"/>
      <point x="819.4000000000001" y="684.604"/>
      <point x="723.78" y="750.0"/>
      <point x="521.4839999999999" y="750.0" type="curve" smooth="yes"/>
      <point x="286.77199999999993" y="750.0"/>
      <point x="162.244" y="678.5040000000001"/>
      <point x="135.17999999999998" y="508.85200000000003" type="curve" smooth="yes"/>
      <point x="133.47600000000003" y="495.68000000000006" type="line"/>
      <point x="46.08800000000001" y="480.8" type="line"/>
      <point x="23.384000000000004" y="346.10800000000006" type="line"/>
      <point x="107.832" y="346.10800000000006" type="line"/>
    </contour>
  </outline>
</glyph>
<glyph name="ae" format="2">
  <advance width="1054.2399999999998"/>
  <unicode hex="00E6"/>
  <anchor x="486.34" y="0.0" name="bottom"/>
  <anchor x="571.8199999999999" y="547.1999999999999" name="top"/>
  <outline>
    <contour>
      <point x="219.32000000000002" y="-10.0" type="curve" smooth="yes"/>
      <point x="280.2399999999999" y="-10.0"/>
      <point x="340.44" y="10.959999999999999"/>
      <point x="399.5399999999999" y="50.27999999999999" type="curve"/>
      <point x="390.67999999999995" y="-0.41999999999999993" type="line"/>
      <point x="581.0999999999998" y="-0.41999999999999993" type="line"/>
      <point x="590.36" y="56.56000000000001" type="line"/>
      <point x="630.6999999999999" y="15.980000000000004"/>
      <point x="693.3000000000001" y="-9.500000000000002"/>
      <point x="777.2199999999999" y="-9.500000000000002" type="curve" smooth="yes"/>
      <point x="848.04" y="-9.500000000000002"/>
      <point x="919.86" y="2.759999999999999"/>
      <point x="983.98" y="25.380000000000006" type="curve"/>
      <point x="965.9399999999998" y="175.46" type="line"/>
      <point x="885.6600000000001" y="152.98000000000002"/>
      <point x="808.2" y="143.29999999999998"/>
      <point x="767.1200000000001" y="143.29999999999998" type="curve" smooth="yes"/>
      <point x="661.9" y="143.29999999999998"/>
      <point x="620.3199999999999" y="170.43999999999997"/>
      <point x="620.3199999999999" y="242.07999999999998" type="curve" smooth="yes"/>
      <point x="620.3199999999999" y="333.76"/>
      <point x="677.2199999999997" y="413.58"/>
      <point x="762.3" y="413.58" type="curve" smooth="yes"/>
      <point x="801.8399999999999" y="413.58"/>
      <point x="821.6399999999999" y="401.08"/>
      <point x="821.6399999999999" y="376.35999999999996" type="curve" smooth="yes"/>
      <point x="821.6399999999999" y="339.93999999999994"/>
      <point x="771.5999999999999" y="316.06"/>
      <point x="680.9599999999999" y="307.72" type="curve" smooth="yes"/>
      <point x="644.8" y="304.29999999999995"/>
      <point x="614.0999999999999" y="303.64"/>
      <point x="585.8599999999999" y="306.76" type="curve"/>
      <point x="588.8799999999999" y="208.57999999999996" type="line"/>
      <point x="632.8999999999999" y="201.51999999999998"/>
      <point x="686.0200000000001" y="199.23999999999998"/>
      <point x="752.7800000000002" y="204.01999999999998" type="curve" smooth="yes"/>
      <point x="938.5999999999998" y="216.73999999999998"/>
      <point x="1040.94" y="291.76"/>
      <point x="1040.94" y="401.38" type="curve" smooth="yes"/>
      <point x="1040.94" y="499.02000000000004"/>
      <point x="964.9199999999998" y="557.1999999999999"/>
      <point x="840.4800000000001" y="557.1999999999999" type="curve" smooth="yes"/>
      <point x="766.0400000000001" y="557.1999999999999"/>
      <point x="704.78" y="537.82"/>
      <point x="661.3599999999999" y="507.26000000000005" type="curve"/>
      <point x="668.18" y="550.1999999999999" type="line"/>
      <point x="477.7599999999999" y="550.1999999999999" type="line"/>
      <point x="471.53999999999985" y="510.59999999999997" type="line"/>
      <point x="439.74" y="541.4000000000001"/>
      <point x="392.9" y="557.1999999999999"/>
      <point x="334.6799999999999" y="557.1999999999999" type="curve" smooth="yes"/>
      <point x="138.78000000000003" y="557.1999999999999"/>
      <point x="22.86" y="402.17999999999995"/>
      <point x="22.86" y="199.46" type="curve" smooth="yes"/>
      <point x="22.86" y="59.06"/>
      <point x="98.63999999999999" y="-10.0"/>
    </contour>
    <contour>
      <point x="323.21999999999997" y="146.74" type="curve" smooth="yes"/>
      <point x="278.54" y="146.74"/>
      <point x="238.50000000000003" y="168.65999999999997"/>
      <point x="238.50000000000003" y="230.06000000000003" type="curve" smooth="yes"/>
      <point x="238.50000000000003" y="344.52"/>
      <point x="313.78000000000003" y="412.28"/>
      <point x="384.65999999999997" y="412.28" type="curve" smooth="yes"/>
      <point x="410.59999999999997" y="412.28"/>
      <point x="432.65999999999997" y="408.44"/>
      <point x="453.05999999999995" y="398.67999999999995" type="curve"/>
      <point x="417.22" y="168.78" type="line"/>
      <point x="387.40000000000003" y="155.95999999999998"/>
      <point x="355.08" y="146.74"/>
    </contour>
  </outline>
</glyph>
<glyph name="eth" format="2">
  <advance width="713.3999999999999"/>
  <unicode hex="00F0"/>
  <outline>
    <contour>
      <point x="509.82000000000016" y="360.16" type="curve"/>
      <point x="533.96" y="489.08" type="line"/>
      <point x="480.20000000000005" y="511.58"/>
      <point x="405.65999999999997" y="523.0200000000001"/>
      <point x="337.3599999999999" y="523.0200000000001" type="curve" smooth="yes"/>
      <point x="142.15999999999997" y="523.0200000000001"/>
      <point x="19.020000000000003" y="407.02"/>
      <point x="19.020000000000003" y="227.62" type="curve" smooth="yes"/>
      <point x="19.020000000000003" y="53.239999999999995"/>
      <point x="141.84000000000003" y="-8.639999999999997"/>
      <point x="307.78000000000003" y="-8.639999999999997" type="curve" smooth="yes"/>
      <point x="523.18" y="-8.639999999999997"/>
      <point x="652.7000000000002" y="90.16"/>
      <point x="693.1399999999999" y="324.42" type="curve" smooth="yes"/>
      <point x="699.78" y="361.67999999999995"/>
      <point x="702.4199999999998" y="396.59999999999997"/>
      <point x="702.4199999999998" y="427.94000000000005" type="curve" smooth="yes"/>
      <point x="702.4199999999998" y="677.9399999999999"/>
      <point x="515.8199999999998" y="756.0799999999999"/>
      <point x="236.39999999999998" y="756.0799999999999" type="curve" smooth="yes"/>
      <point x="178.14" y="756.0799999999999"/>
      <point x="127.19999999999996" y="748.5800000000002"/>
      <point x="78.93999999999998" y="740.1599999999999" type="curve"/>
      <point x="67.32" y="618.9000000000001" type="line"/>
      <point x="106.78000000000003" y="623.6"/>
      <point x="131.14" y="629.5199999999999"/>
      <point x="210.09999999999997" y="629.5199999999999" type="curve" smooth="yes"/>
      <point x="414.14000000000004" y="629.5199999999999"/>
      <point x="488.42" y="585.76"/>
      <point x="488.42" y="466.85999999999996" type="curve" smooth="yes"/>
      <point x="488.42" y="435.66"/>
      <point x="486.28" y="398.8"/>
      <point x="478.63999999999993" y="353.44000000000005" type="curve" smooth="yes"/>
      <point x="450.74" y="184.05999999999997"/>
      <point x="405.52000000000004" y="134.26"/>
      <point x="326.75999999999993" y="134.26" type="curve" smooth="yes"/>
      <point x="263.22" y="134.26"/>
      <point x="232.09999999999997" y="166.12"/>
      <point x="232.09999999999997" y="227.76" type="curve" smooth="yes"/>
      <point x="232.09999999999997" y="323.04"/>
      <point x="293.09999999999997" y="388.21999999999997"/>
      <point x="376.7799999999999" y="388.21999999999997" type="curve" smooth="yes"/>
      <point x="433.4" y="388.21999999999997"/>
      <point x="472.55999999999983" y="375.56"/>
    </contour>
    <contour>
      <point x="255.9" y="540.7400000000001" type="line"/>
      <point x="487.69999999999993" y="640.94" type="line"/>
      <point x="485.3199999999998" y="645.74" type="line"/>
      <point x="741.8599999999998" y="757.4399999999999" type="line"/>
      <point x="552.5" y="757.8" type="line"/>
      <point x="398.62" y="691.2800000000001" type="line"/>
      <point x="396.15999999999997" y="684.24" type="line"/>
      <point x="66.74000000000001" y="540.7400000000001" type="line"/>
    </contour>
  </outline>
</glyph>
<glyph name="divide" format="2">
  <advance width="611.924"/>
  <unicode hex="00F7"/>
  <outline>
    <contour>
      <point x="181.80800000000002" y="82.16000000000001" type="curve" smooth="yes"/>
      <point x="181.528" y="42.988"/>
      <point x="207.16799999999998" y="22.779999999999998"/>
      <point x="264.828" y="22.779999999999998" type="curve" smooth="yes"/>
      <point x="328.048" y="22.779999999999998"/>
      <point x="372.33599999999996" y="49.796"/>
      <point x="372.89599999999996" y="120.59600000000002" type="curve" smooth="yes"/>
      <point x="373.176" y="159.76800000000003"/>
      <point x="348.03999999999996" y="179.25600000000003"/>
      <point x="290.812" y="179.25600000000003" type="curve" smooth="yes"/>
      <point x="227.732" y="179.25600000000003"/>
      <point x="182.36800000000002" y="147.44"/>
    </contour>
    <contour>
      <point x="253.256" y="515.38" type="curve" smooth="yes"/>
      <point x="252.97599999999997" y="476.992"/>
      <point x="277.112" y="456.72"/>
      <point x="335.556" y="456.72" type="curve" smooth="yes"/>
      <point x="399.28000000000003" y="456.72"/>
      <point x="442.496" y="485.164"/>
      <point x="443.056" y="554.9640000000002" type="curve" smooth="yes"/>
      <point x="443.33599999999996" y="594.492"/>
      <point x="418.62800000000004" y="613.336"/>
      <point x="360.75600000000003" y="613.336" type="curve" smooth="yes"/>
      <point x="295.74" y="613.336"/>
      <point x="253.81599999999997" y="580.16"/>
    </contour>
    <contour>
      <point x="48.827999999999996" y="233.92" type="line"/>
      <point x="548.9" y="233.92" type="line"/>
      <point x="576.98" y="401.48" type="line"/>
      <point x="76.76799999999999" y="401.48" type="line"/>
    </contour>
  </outline>
</glyph>
<glyph name="oslash" format="2">
  <advance width="697.7399999999999"/>
  <unicode hex="00F8"/>
  <anchor x="380.44000000000005" y="547.1999999999999" name="top"/>
  <outline>
    <contour>
      <point x="574.06" y="558.7" type="line"/>
      <point x="482.03999999999985" y="466.96000000000004" type="line"/>
      <point x="479.82000000000005" y="468.32" type="line"/>
      <point x="164.49999999999997" y="148.95999999999995" type="line"/>
      <point x="162.85999999999999" y="150.81999999999996" type="line"/>
      <point x="2.899999999999997" y="-9.64" type="line"/>
      <point x="126.47999999999999" y="-9.64" type="line"/>
      <point x="219.13999999999996" y="82.58000000000001" type="line"/>
      <point x="221.50000000000003" y="81.22" type="line"/>
      <point x="552.6399999999998" y="414.76" type="line"/>
      <point x="554.1399999999999" y="412.9" type="line"/>
      <point x="699.4399999999998" y="558.7" type="line"/>
    </contour>
    <contour>
      <point x="337.86000000000007" y="-9.64" type="curve" smooth="yes"/>
      <point x="551.4599999999999" y="-9.64"/>
      <point x="669.52" y="107.52000000000001"/>
      <point x="669.24" y="315.5200000000001" type="curve" smooth="yes"/>
      <point x="668.96" y="481.4400000000001"/>
      <point x="552.92" y="558.34"/>
      <point x="363.65999999999997" y="558.34" type="curve" smooth="yes"/>
      <point x="146.33999999999997" y="558.34"/>
      <point x="28.199999999999996" y="439.58000000000004"/>
      <point x="28.479999999999997" y="232.89999999999995" type="curve" smooth="yes"/>
      <point x="28.759999999999998" y="67.26"/>
      <point x="144.24" y="-9.64"/>
    </contour>
    <contour>
      <point x="340.1" y="131.96" type="curve" smooth="yes"/>
      <point x="274.58" y="131.46"/>
      <point x="238.16" y="162.29999999999998"/>
      <point x="237.3" y="226.48000000000002" type="curve" smooth="yes"/>
      <point x="234.50000000000003" y="333.4799999999999"/>
      <point x="276.76000000000005" y="415.74"/>
      <point x="357.62" y="416.74000000000007" type="curve" smooth="yes"/>
      <point x="422.14000000000004" y="417.24"/>
      <point x="459.2799999999998" y="385.76000000000005"/>
      <point x="460.13999999999993" y="321.72" type="curve" smooth="yes"/>
      <point x="462.9399999999999" y="212.34000000000006"/>
      <point x="420.26" y="132.60000000000002"/>
    </contour>
  </outline>
</glyph>
<glyph name="thorn" format="2">
  <advance width="718.44"/>
  <unicode hex="00FE"/>
  <outline>
    <contour>
      <point x="-22.313999999999997" y="-210.0" type="line"/>
      <point x="191.864" y="-210.0" type="line"/>
      <point x="226.018" y="1.4419999999999993" type="line"/>
      <point x="253.398" y="-4.2440000000000015"/>
      <point x="293.816" y="-9.57"/>
      <point x="336.94199999999995" y="-9.57" type="curve" smooth="yes"/>
      <point x="580.3900000000001" y="-9.57"/>
      <point x="696.618" y="135.69"/>
      <point x="696.618" y="354.83400000000006" type="curve" smooth="yes"/>
      <point x="696.618" y="481.488"/>
      <point x="634.666" y="557.2"/>
      <point x="510.1039999999999" y="557.2" type="curve" smooth="yes"/>
      <point x="425.924" y="557.2"/>
      <point x="366.8759999999999" y="530.5440000000001"/>
      <point x="301.79999999999995" y="489.0" type="curve"/>
      <point x="341.04599999999994" y="740.0" type="line"/>
      <point x="128.11599999999999" y="740.0" type="line"/>
    </contour>
    <contour>
      <point x="334.8059999999999" y="140.968" type="curve" smooth="yes"/>
      <point x="304.038" y="140.968"/>
      <point x="274.8" y="146.158"/>
      <point x="250.088" y="153.07799999999997" type="curve"/>
      <point x="282.36199999999997" y="353.13" type="line"/>
      <point x="318.06999999999994" y="370.442"/>
      <point x="361.492" y="383.872"/>
      <point x="400.544" y="383.872" type="curve" smooth="yes"/>
      <point x="450.11000000000007" y="383.872"/>
      <point x="479.3879999999999" y="361.39"/>
      <point x="479.3879999999999" y="303.576" type="curve" smooth="yes"/>
      <point x="479.3879999999999" y="217.5"/>
      <point x="423.34000000000003" y="140.968"/>
    </contour>
  </outline>
</glyph>
<glyph name="Dcroat" format="2">
  <advance width="884.496"/>
  <unicode hex="0110"/>
  <outline>
    <contour>
      <point x="16.403999999999996" y="276.82" type="line"/>
      <point x="444.69199999999995" y="276.82" type="line"/>
      <point x="472.056" y="432.70799999999997" type="line"/>
      <point x="42.11599999999999" y="432.70799999999997" type="line"/>
    </contour>
    <component base="D" xOffset="9.452"/>
  </outline>
</glyph>
<glyph name="dcroat" format="2">
  <advance width="743.1519999999999"/>
  <unicode hex="0111"/>
  <outline>
    <contour>
      <point x="342.55999999999995" y="600.812" type="line"/>
      <point x="777.2720000000002" y="600.812" type="line"/>
      <point x="792.076" y="693.872" type="line"/>
      <point x="357.58" y="693.872" type="line"/>
    </contour>
    <component base="d"/>
  </outline>
</glyph>
<glyph name="Hbar" format="2">
  <advance width="878.4559999999999"/>
  <unicode hex="0126"/>
  <outline>
    <contour>
      <point x="55.025999999999996" y="492.774" type="line"/>
      <point x="894.828" y="492.774" type="line"/>
      <point x="917.6519999999999" y="636.232" type="line"/>
      <point x="77.85000000000001" y="636.232" type="line"/>
    </contour>
    <component base="H" xOffset="2.0319999999999996"/>
  </outline>
</glyph>
<glyph name="hbar" format="2">
  <advance width="706.304"/>
  <unicode hex="0127"/>
  <outline>
    <contour>
      <point x="36.519999999999996" y="600.812" type="line"/>
      <point x="459.528" y="600.812" type="line"/>
      <point x="474.192" y="693.872" type="line"/>
      <point x="51.18399999999998" y="693.872" type="line"/>
    </contour>
    <component base="h" xOffset="-1.5759999999999992"/>
  </outline>
</glyph>
<glyph name="Idotaccent" format="2">
  <advance width="356.094"/>
  <unicode hex="0130"/>
  <outline>
    <contour>
      <point x="282.002" y="929.08" type="curve" smooth="yes"/>
      <point x="183.04600000000002" y="929.08"/>
      <point x="137.23399999999998" y="885.48"/>
      <point x="137.01" y="812.35" type="curve" smooth="yes"/>
      <point x="136.96800000000002" y="762.7379999999999"/>
      <point x="171.564" y="734.8620000000001"/>
      <point x="249.36199999999997" y="734.8620000000001" type="curve" smooth="yes"/>
      <point x="332.21" y="734.8620000000001"/>
      <point x="393.626" y="770.5500000000001"/>
      <point x="393.948" y="852.5500000000001" type="curve" smooth="yes"/>
      <point x="393.99" y="901.462"/>
      <point x="359.42999999999995" y="929.08"/>
    </contour>
    <component base="I"/>
  </outline>
</glyph>
<glyph name="dotlessi" format="2">
  <advance width="324.774"/>
  <unicode hex="0131"/>
  <anchor x="118.71328799999999" y="0.0" name="bottom"/>
  <anchor x="226.82999999999998" y="0.0" name="ogonek"/>
  <anchor x="205.458712" y="547.2" name="top"/>
  <outline>
    <contour>
      <point x="226.82999999999998" y="0.0" type="line"/>
      <point x="312.808" y="547.2" type="line"/>
      <point x="97.98599999999999" y="547.2" type="line"/>
      <point x="10.845999999999997" y="0.602" type="line"/>
    </contour>
  </outline>
</glyph>
<glyph name="Ldot" format="2">
  <advance width="715.208"/>
  <unicode hex="013F"/>
  <outline>
    <contour>
      <point x="449.50748400000003" y="411.14419599999997" type="curve" smooth="yes"/>
      <point x="449.32548399999996" y="364.009916"/>
      <point x="479.428796" y="338.416862"/>
      <point x="544.46499" y="338.416862" type="curve" smooth="yes"/>
      <point x="622.1522379999999" y="338.416862"/>
      <point x="667.957464" y="379.57542199999995"/>
      <point x="668.335464" y="447.85927200000003" type="curve" smooth="yes"/>
      <point x="668.517464" y="495.811638"/>
      <point x="638.456152" y="521.446692"/>
      <point x="574.1937859999999" y="521.446692" type="curve" smooth="yes"/>
      <point x="497.28062400000005" y="521.446692"/>
      <point x="449.88548399999996" y="477.020046"/>
    </contour>
    <component base="L"/>
  </outline>
</glyph>
<glyph name="ldot" format="2">
  <advance width="458.176"/>
  <unicode hex="0140"/>
  <outline>
    <contour>
      <point x="343.68622" y="389.08817000000005" type="curve" smooth="yes"/>
      <point x="343.50422000000003" y="353.940484"/>
      <point x="362.453848" y="335.213584"/>
      <point x="403.869282" y="335.213584" type="curve" smooth="yes"/>
      <point x="455.23072599999995" y="335.213584"/>
      <point x="483.18175" y="368.177462"/>
      <point x="483.55974999999995" y="418.803448" type="curve" smooth="yes"/>
      <point x="483.74175" y="454.385574"/>
      <point x="464.8341219999999" y="473.154474"/>
      <point x="423.93185000000005" y="473.154474" type="curve" smooth="yes"/>
      <point x="373.082708" y="473.154474"/>
      <point x="344.06422000000003" y="438.08454199999994"/>
    </contour>
    <component base="l"/>
  </outline>
</glyph>
<glyph name="Lslash" format="2">
  <advance width="713.1379999999999"/>
  <unicode hex="0141"/>
  <outline>
    <contour>
      <point x="18.14" y="0.0" type="line"/>
      <point x="642.968" y="0.0" type="line"/>
      <point x="673.9179999999999" y="178.874" type="line"/>
      <point x="272.68399999999997" y="178.874" type="line"/>
      <point x="292.628" y="305.31800000000004" type="line"/>
      <point x="519.616" y="410.726" type="line"/>
      <point x="549.932" y="595.09" type="line"/>
      <point x="322.428" y="489.424" type="line"/>
      <point x="356.60400000000004" y="700.0" type="line"/>
      <point x="131.80599999999998" y="700.0" type="line"/>
      <point x="80.108" y="382.57399999999996" type="line"/>
      <point x="16.403999999999996" y="352.664" type="line"/>
      <point x="-11.975999999999999" y="171.268" type="line"/>
      <point x="50.26599999999999" y="200.576" type="line"/>
    </contour>
  </outline>
</glyph>
<glyph name="lslash" format="2">
  <advance width="407.22"/>
  <unicode hex="0142"/>
  <outline>
    <contour>
      <point x="-7.234000000000002" y="188.398" type="line"/>
      <point x="382.29" y="383.882" type="line"/>
      <point x="407.10200000000003" y="538.4739999999999" type="line"/>
      <point x="16.717999999999996" y="342.99" type="line"/>
    </contour>
    <component base="l" xOffset="5.16"/>
  </outline>
</glyph>
<glyph name="Eng" format="2">
  <advance width="835.1199999999999"/>
  <unicode hex="014A"/>
  <outline>
    <contour>
      <point x="20.21" y="0.0" type="line"/>
      <point x="222.99999999999997" y="0.0" type="line"/>
      <point x="284.73" y="376.55" type="line"/>
      <point x="523.3599999999999" y="2.5899999999999976" type="line"/>
      <point x="517.5200000000001" y="-38.7"/>
      <point x="483.0599999999999" y="-50.899999999999984"/>
      <point x="437.25" y="-50.899999999999984" type="curve" smooth="yes"/>
      <point x="410.15999999999997" y="-51.179999999999986"/>
      <point x="387.46" y="-46.82000000000001"/>
      <point x="362.69" y="-36.96000000000002" type="curve"/>
      <point x="330.09999999999997" y="-200.79" type="line"/>
      <point x="375.0399999999999" y="-214.02"/>
      <point x="433.51" y="-215.85999999999999"/>
      <point x="456.15000000000003" y="-215.85999999999999" type="curve" smooth="yes"/>
      <point x="606.1700000000001" y="-214.77999999999997"/>
      <point x="696.8799999999999" y="-168.58"/>
      <point x="722.9599999999999" y="-5.89" type="curve" smooth="yes"/>
      <point x="837.9099999999999" y="700.0" type="line"/>
      <point x="634.4" y="700.0" type="line"/>
      <point x="569.5899999999999" y="304.04" type="line"/>
      <point x="332.53" y="700.98" type="line"/>
      <point x="134.35999999999999" y="700.98" type="line"/>
    </contour>
  </outline>
</glyph>
